<?xml version="1.0" encoding="utf-8"?>
<!-- Generator: Adobe Illustrator 22.0.1, SVG Export Plug-In . SVG Version: 6.00 Build 0)  -->
<svg version="1.1" xmlns="http://www.w3.org/2000/svg" xmlns:xlink="http://www.w3.org/1999/xlink" x="0px" y="0px"
	 viewBox="0 0 500 500" style="enable-background:new 0 0 500 500;" xml:space="preserve">
<style type="text/css">
	.st0{fill:#FFFFFF;}
	.st1{fill:#5C9544;}
	.st2{fill:none;}
	.st3{fill:#A81734;}
	.st4{fill:#BA151C;}
	.st5{fill:#FFFF77;}
	.st6{fill:#351F74;}
	.st7{fill:#FFFFFF;stroke:#000000;stroke-width:3;stroke-miterlimit:10;}
	.st8{fill:#FEFF65;stroke:#000000;stroke-width:6;stroke-miterlimit:10;}
	.st9{fill:#6A3A38;}
	.st10{fill:none;stroke:#000000;stroke-width:6;stroke-miterlimit:10;}
	.st11{fill:#FFFFFF;stroke:#000000;stroke-width:0.7;stroke-miterlimit:10;}
	.st12{fill:#FFFFFF;stroke:#FFFFFF;stroke-width:7;stroke-miterlimit:10;}
	.st13{fill:#ABDC66;}
	.st14{fill:#59331C;}
	.st15{fill:none;stroke:#F7F999;stroke-width:3;stroke-linecap:round;stroke-linejoin:round;stroke-miterlimit:10;}
	.st16{fill:#2D97C9;stroke:#000000;stroke-linecap:round;stroke-linejoin:round;stroke-miterlimit:10;}
	.st17{stroke:#000000;stroke-linecap:round;stroke-linejoin:round;stroke-miterlimit:10;}
	.st18{fill:#2A9CBE;stroke:#000000;stroke-linecap:round;stroke-linejoin:round;stroke-miterlimit:10;}
	.st19{fill:url(#SVGID_1_);stroke:#921700;stroke-miterlimit:10;}
	.st20{fill:#AC1526;}
	.st21{fill:none;stroke:#000000;stroke-linecap:round;stroke-linejoin:round;stroke-miterlimit:10;}
</style>
<g id="Layer_3">
</g>
<g id="Layer_1">
	<g>
		<g>
			<path class="st0" d="M265.8,12c-5.1-0.3-10.1-0.5-15.3-0.5s-10.2,0.2-15.3,0.5H265.8z"/>
			<path class="st1" d="M250.5,11.5c-5.1,0-10.2,0.2-15.3,0.5h30.6C260.7,11.7,255.6,11.5,250.5,11.5L250.5,11.5z"/>
		</g>
		<g>
			<path class="st0" d="M250.5,451c-107.2,0-195.1-84.6-200.3-190.6h400.5C445.6,366.4,357.7,451,250.5,451z"/>
			<path class="st1" d="M405.2,298.9c-7.7,24.7-21.3,47.4-40.1,66.2c-30.6,30.6-71.3,47.4-114.6,47.4s-84-16.9-114.6-47.4
				c-18.8-18.8-32.4-41.5-40.1-66.2H405.2 M487.8,221.9H13.2c-1.1,9.4-1.7,18.9-1.7,28.6c0,132,107,239,239,239s239-107,239-239
				C489.5,240.8,488.9,231.3,487.8,221.9L487.8,221.9z"/>
		</g>
	</g>
	<rect id="_x3C_Slice_x3E_" x="10" y="12" class="st2" width="479" height="479"/>
	<g>
		<path class="st3" d="M484.8,201.8C461.9,93.4,365.7,12,250.5,12S39.1,93.4,16.2,201.8H484.8z"/>
	</g>
	<g>
		<path class="st4" d="M463.1,201.8c-20.8-98.5-108.3-172.5-213-172.5s-192.2,74-213,172.5H463.1z"/>
	</g>
	<g>
		<path class="st0" d="M113.8,162.8c9.7-15,21.8-28.4,35.9-39.6C178.7,100.2,213.8,88,251,88c37.2,0,72.3,12.2,101.3,35.2
			c14.1,11.2,26.2,24.6,35.9,39.6H113.8z"/>
		<path class="st5" d="M251,48.5c-95.1,0-174.9,65.5-196.8,153.8h393.7C425.9,114,346.1,48.5,251,48.5L251,48.5z"/>
	</g>
	<g>
		<path class="st0" d="M135.7,163.4c26.9-34.4,68.8-55.9,114.3-55.9s87.4,21.5,114.3,55.9H135.7z"/>
		<path class="st6" d="M250,68c-84.7,0-156,57.1-177.7,134.9h355.3C406,125.1,334.7,68,250,68L250,68z"/>
	</g>
	<g>
		<circle class="st0" cx="250" cy="251" r="137"/>
		<path class="st0" d="M250,142c29.1,0,56.5,11.3,77.1,31.9c20.6,20.6,31.9,48,31.9,77.1s-11.3,56.5-31.9,77.1
			c-20.6,20.6-48,31.9-77.1,31.9s-56.5-11.3-77.1-31.9c-20.6-20.6-31.9-48-31.9-77.1s11.3-56.5,31.9-77.1
			C193.5,153.3,220.9,142,250,142 M250,86c-91.1,0-165,73.9-165,165s73.9,165,165,165s165-73.9,165-165S341.1,86,250,86L250,86z"/>
	</g>
	<path class="st7" d="M244.6,400.7c0,0-53.6-8.7-95.6-75.7c-27-51-19-157-19-157s50-23,64-31c35-19,55.4-38,55.4-38s29.6,25,50.6,36
		c23,14,68,33,68,33s9,103-21,158C310,384,244.6,400.7,244.6,400.7z"/>
	<path class="st8" d="M244.6,391.8c0,0-50.2-8.1-89.5-70.8c-25.3-47.7-17.8-146.9-17.8-146.9s46.8-21.5,59.9-29
		c32.7-17.8,51.8-35.5,51.8-35.5s27.7,23.4,47.4,33.7c21.5,13.1,63.6,30.9,63.6,30.9s8.4,96.4-19.6,147.8
		C305.8,376.2,244.6,391.8,244.6,391.8z"/>
	<circle class="st0" cx="247.5" cy="236.8" r="86.7"/>
	<path class="st9" d="M217.8,378.7l24.3,12.5l19.5-7.5l11.2-5.9c-5.2-9.4-15.9-15.9-28.3-15.9c-12.3,0-23,6.4-28.2,15.6L217.8,378.7
		z"/>
	<polygon class="st0" points="139.7,182.1 139.7,173.4 146.4,170.4 185.2,203.7 182.4,205.6 176.2,204.9 	"/>
	<polygon class="st0" points="169.8,158.6 191.7,182.1 202.8,179.5 196.9,173.6 181,152.6 	"/>
	<polygon class="st0" points="211.9,135.9 227.7,161.7 231.9,160.9 230.2,157.1 224.7,129.1 	"/>
	<polygon class="st0" points="262.7,122.2 256.9,159.9 261.4,161.7 262.7,155.7 275.9,131.9 	"/>
	<polygon class="st0" points="300.4,146.4 286.7,170.4 291.7,175.7 293.5,170.4 309.4,151.7 	"/>
	<polygon class="st0" points="348.7,170.4 311.5,199.2 313.7,203.2 319.2,198.9 357.5,185.6 358.5,175.7 	"/>
	<polygon class="st0" points="356.9,235.7 325.5,235.7 325.5,241.6 328,241.4 355.4,248.7 	"/>
	<polygon class="st0" points="138.9,239.2 175.4,240.2 175.4,252.1 168.7,250.4 138.9,251.2 	"/>
	<polygon class="st0" points="148.5,301.2 181.9,285.9 191.5,292.2 187.9,292.4 154.2,314.1 	"/>
	<polygon class="st0" points="308.2,288.7 338,318.4 346.9,304.2 310.7,284.1 	"/>
	<path class="st10" d="M244.6,391.8c0,0-50.2-8.1-89.5-70.8c-25.3-47.7-17.8-146.9-17.8-146.9s46.8-21.5,59.9-29
		c32.7-17.8,51.8-35.5,51.8-35.5s27.7,23.4,47.4,33.7c21.5,13.1,63.6,30.9,63.6,30.9s8.4,96.4-19.6,147.8
		C305.8,376.2,244.6,391.8,244.6,391.8z"/>
	<g>
		<path class="st11" d="M51.3,178.9L55,185c1.1,1.9,2.5,3.8,4,5.8c-0.2-2.2-0.1-3.8,0.2-4.9c0.4-1.2,1.3-2.4,2.7-3.7
			c0.6-0.5,1-0.9,1.1-1.1c0-0.1,0.2-0.3,0.3-0.6c0.2-0.4,0.5-0.5,1.1-0.3c0.1,0,0.3,0.1,0.5,0.1c0.2,0,0.4,0.1,0.5,0.1
			c0.2,0.1,0.3,0.2,0.4,0.3l0.7,0.8c0.3,0.3,0.4,0.6,0.3,0.9c-0.1,0.3-1,1.2-2.6,2.7c-1.7,1.5-2.7,2.9-3.2,4.1
			c-0.5,1.3-0.5,2.7,0,4.1c0.4,1.1,0.9,2,1.5,2.7c0.5,0.6,0.6,1,0.6,1.2c-0.1,0.4-0.4,0.5-0.8,0.3c-0.5-0.2-1.9-1.7-4.3-4.6
			l-3.7-4.5c-0.5-0.7-0.9-1-1.1-1.1c-0.1,0-0.3,0-0.6,0c-0.3,0-0.6,0-0.7-0.1c-0.2-0.1-0.4-0.4-0.7-0.9c0-0.1-0.2-0.4-0.6-1.1
			l-2.4-4.1c-0.5-0.9-0.8-1.4-0.9-1.5c-0.2-0.3-0.3-0.8-0.5-1.3c-0.2-0.7-0.2-1.2-0.1-1.6c0.1-0.2,0.4-0.2,0.9-0.2
			c0.1,0,0.4,0,0.7,0c0.3,0,0.6,0,0.7,0.1C49.9,177,50.6,177.7,51.3,178.9z"/>
		<path class="st11" d="M68.9,173l-1-0.5c1,1.7,1.4,3.4,1.2,5.2c-0.2,1.4-0.4,2.3-0.5,2.6c-0.1,0.3-0.5,0.5-1,0.5
			c-0.5,0-1-0.1-1.6-0.3c-0.2-0.1-0.6-0.5-1.1-1.1c-0.2-0.2-0.5-0.6-0.9-1.1c-1-1.2-1.8-3.1-2.3-5.6c-0.5-2.5-0.5-4.3,0-5.4
			c0.3-0.8,0.9-1.4,1.6-1.8c0.3-0.2,0.6-0.2,0.9-0.1c0.3,0.1,0.9,0.6,1.7,1.3c2.1,1.9,3.9,3.2,5.3,3.9c0.2,0.1,0.6,0.2,1.1,0.2
			c0.1,0,0.2,0,0.3,0.1c0.2,0.1,0.3,0.3,0.4,0.5c0.1,0.3,0.1,0.5,0,0.7c0,0.1-0.2,0.2-0.3,0.4c-0.2,0.2-0.3,0.3-0.3,0.4
			c0,0.1,0,0.1-0.1,0.3s-0.1,0.2-0.1,0.3C72,174,70.9,173.9,68.9,173z M63.3,168.1c-0.3,0.5,0.1,1.9,0.9,4c1,2.5,2,4,3,4.5
			c0.2,0.1,0.3,0.1,0.4-0.1c0.1-0.3,0.1-0.8-0.2-1.7c-0.2-0.9-0.5-1.7-0.9-2.6c-0.4-0.9-0.9-1.7-1.6-2.7c-0.6-0.9-1.1-1.5-1.4-1.6
			C63.4,167.9,63.3,167.9,63.3,168.1z"/>
		<path class="st11" d="M67.6,159.5c0.3,0.3,0.5,0.4,0.6,0.5c0.2,0.1,0.8,0.1,1.6,0c1.3-0.2,2.4-0.1,3.3,0.4
			c0.8,0.4,1.4,1.1,1.7,1.9c0.7,1.8,0.6,3.5-0.3,5.1c-0.4,0.8-0.9,1.3-1.6,1.6c-0.3,0.1-0.6,0.1-0.9,0c-0.4-0.2-0.8-0.7-1.2-1.5
			c-0.4-0.7-0.4-1.3-0.3-1.7c0.1-0.3,0.5-0.4,0.9-0.5c0.1,0,0.4,0,1,0c0.5,0,0.8-0.1,1-0.4c0.1-0.2,0-0.4-0.3-0.5
			c-0.3-0.2-0.8-0.4-1.5-0.6c-0.4-0.1-0.7-0.2-0.9-0.2c-0.2,0-1,0.1-2.1,0.2c-0.4,0-0.8,0-1.1-0.2c-0.8-0.4-1.4-1.6-1.7-3.5
			c-0.3-1.5-0.3-2.5-0.1-2.9c0.2-0.3,0.4-0.5,0.7-0.7c0.3-0.1,0.6-0.1,0.8,0l1.6,1.2c0.2,0.3,0.2,0.6,0,0.9
			c-0.2,0.4-0.6,0.7-1.1,0.8C67.7,159.5,67.6,159.5,67.6,159.5z"/>
		<path class="st11" d="M85.7,148.2l2.6,3.4c0.3,0.3,0.4,0.5,0.5,0.6c0.1,0,0.3,0.1,0.7,0.2c0.2,0.1,0.2,0.1,0.3,0.1
			c0.3,0.2,0.3,0.5,0.1,1.1c0,0.1-0.2,0.8-0.4,2.1c0,0.2-0.1,0.4-0.1,0.4c-0.2,0.3-0.5,0.4-0.9,0.1c-0.2-0.1-0.4-0.3-0.6-0.7
			l-3.4-4.4l-1.2,0c-0.2,0-0.3,0-0.4-0.1c-0.2-0.1-0.2-0.3-0.2-0.6l0.1-1.6l-5-6.9c-1.5-2.1-2.6-3.6-3-4.4c-0.5-0.8-0.6-1.4-0.4-1.7
			c0.2-0.3,0.5-0.3,0.9,0c0.2,0.1,0.6,0.5,1.2,1.1c0.1,0.1,0.4,0.3,0.9,0.8c0.6,0.5,1.1,0.9,1.4,1.3l5,6.6c0.1,0.1,0.2,0.2,0.3,0.4
			c0.1,0.1,0.2,0.1,0.3-0.1c0.3-0.4,0.3-1.2,0.3-2.6c-0.2-3.9-1.5-6.6-3.9-8.2c-1.7-1.1-3.5-1.4-5.5-0.8c-0.8,0.2-1.7,0.8-2.7,1.7
			c-1,0.9-1.9,1.9-2.6,3c-0.7,1-1.2,2.1-1.5,3.3c-0.3,1.2-0.4,2.2-0.2,3c0.1,0.4,0.3,0.7,0.6,1.1c0.2,0.3,0.3,0.6,0.1,0.9
			c-0.1,0.2-0.3,0.3-0.6,0.4c-0.3,0.1-0.5,0-0.6-0.1c-0.7-0.5-1.1-0.8-1.2-0.9c-0.2-0.4-0.3-1.2-0.2-2.6c0.1-3.5,0.9-6.5,2.5-8.8
			c1.7-2.5,3.7-4.1,6.2-4.7c2.5-0.6,4.8-0.2,7.1,1.4c1.3,0.8,2.3,2,3.2,3.3c0.9,1.4,1.4,2.9,1.7,4.5c0.2,1.1,0.1,2.2-0.1,3.2
			c0,0.2-0.3,1-0.7,2.3C86,145.9,85.8,146.9,85.7,148.2z"/>
		<path class="st11" d="M85.7,126.9l-0.8,1.5l-0.2,0.2c-0.2,0.3-0.6,0.3-1,0c-0.2-0.2-0.4-0.5-0.4-0.9c0-0.1-0.1-0.3-0.1-0.4
			l-0.2-0.4c-0.1-0.2,0-0.6,0.1-1.2s0.3-1,0.5-1.3c0.3-0.4,0.7-0.4,1.2-0.1c0.2,0.1,0.3,0.4,0.5,0.7c0.1,0.2,0.2,0.4,0.3,0.5
			C86,125.9,86,126.4,85.7,126.9z M89.3,136.1l-2.8-4.5c-0.3-0.5-0.5-0.9-0.6-1.1c0-0.2,0-0.5,0.1-0.9c0.2-0.5,0.3-0.9,0.3-1.3
			c0-0.4,0.1-0.7,0.2-0.8c0.2-0.3,0.6-0.3,1,0.1c0.2,0.2,0.5,0.6,0.8,1.2c1.2,2.6,2.3,4.2,3.2,4.9c0.5,0.4,0.9,0.4,1.2,0.1
			c0.2-0.3,0.3-0.7,0.3-1.2c0-0.4,0-0.7,0.1-0.8c0.2-0.3,0.4-0.3,0.7-0.1c0.2,0.1,0.4,0.6,0.5,1.4c0.1,0.5,0.1,0.9,0.1,1.2
			c0,0.3-0.2,0.7-0.5,1.4c0,0-0.1,0.2-0.1,0.6l-0.1,0.7c0,0.2-0.1,0.4-0.3,0.6c-0.3,0.4-0.7,0.6-1.2,0.6c-0.5,0-1-0.1-1.5-0.5
			C90.1,137.1,89.7,136.7,89.3,136.1z"/>
		<path class="st11" d="M87.8,115.6c0.1-0.2,0.4-0.1,0.7,0.1c0.7,0.5,1.2,0.6,1.4,0.4c0.2-0.2,0.3-0.7,0.3-1.4
			c0.1-1.3,0.3-2.1,0.6-2.5c0.6-0.7,1.3-0.6,2.3,0.3c1.1,0.9,1.4,1.6,0.9,2.1c-0.1,0.2-0.3,0.2-0.5,0.1c-0.1-0.1-0.1-0.1-0.2-0.2
			c-0.1-0.1-0.3-0.3-0.5-0.5c-0.4-0.3-0.7-0.4-0.8-0.1c-0.2,0.2-0.2,0.7-0.2,1.5c0,1.7-0.2,2.8-0.7,3.3c-0.6,0.7-1.4,0.9-2.2,0.5
			c-0.8-0.4-1.3-0.7-1.7-1c-0.4-0.4-0.4-0.9,0.1-1.7c0.1-0.1,0.1-0.3,0.3-0.6C87.7,115.8,87.7,115.7,87.8,115.6z M95.1,126.6l-0.9-4
			c-0.3-1.1-0.4-2-0.3-2.6c0-0.1,0-0.3,0-0.6c-0.1-0.6,0.1-1.1,0.5-1.5c0.5-0.6,1.4-0.4,2.5,0.5c0.6,0.5,1.7,1.8,3.3,4
			c0.3,0.4,0.5,0.7,0.7,0.8c0.1,0.1,0.3,0.2,0.6,0.2c0.3,0,0.5,0.1,0.6,0.2c0.2,0.2,0.3,0.7,0.1,1.7c-0.1,0.9-0.3,1.6-0.6,1.9
			c-0.5,0.5-1.3,0.3-2.4-0.7c-0.3-0.2-0.5-0.5-0.7-0.8l-2.1-3.2c-0.3-0.4-0.5-0.7-0.6-0.8c-0.1-0.1-0.1-0.1-0.2,0
			c-0.2,0.2,0.3,2.2,1.4,6c0.3,1.1,0.5,1.7,0.5,1.9c0,0.2,0.1,0.4,0.2,0.6c0.1,0.2,0.1,0.3,0.1,0.4c0,0-0.1,0.1-0.1,0.3
			c-0.1,0.2-0.2,0.5-0.2,0.9c0,0.3-0.1,0.5-0.2,0.6c-0.1,0.1-0.3,0.1-0.6,0.1c-0.5,0-0.8-0.1-0.8-0.1c-0.3-0.3-0.8-0.8-1.3-1.7
			c-0.1-0.2-0.7-1-1.7-2.5c-1.1-1.7-1.8-2.8-2.1-3.3c-0.3-0.6-0.3-1-0.2-1.2c0,0,0-0.2,0.1-0.5c0.1-0.5,0.1-0.9,0.3-1
			c0.2-0.2,0.5-0.4,0.8-0.5c0.4-0.1,0.6,0,0.9,0.2c0.2,0.1,0.3,0.4,0.5,0.8c0.1,0.4,0.4,1,0.8,1.9L95.1,126.6z"/>
		<path class="st11" d="M107.6,116.7l-0.8-0.8c0.4,1.9,0.1,3.7-0.7,5.3c-0.7,1.3-1.1,2-1.3,2.3c-0.2,0.2-0.6,0.3-1.1,0.2
			c-0.5-0.1-1-0.4-1.4-0.8c-0.2-0.2-0.4-0.6-0.7-1.4c-0.1-0.2-0.3-0.7-0.5-1.3c-0.5-1.5-0.7-3.5-0.3-6.1c0.3-2.5,0.9-4.2,1.8-5.1
			c0.6-0.6,1.3-1,2.1-1.2c0.3-0.1,0.6,0,0.8,0.2c0.3,0.3,0.6,0.8,1.1,1.8c1.3,2.5,2.6,4.3,3.7,5.5c0.2,0.2,0.5,0.4,1,0.6
			c0.1,0,0.2,0.1,0.3,0.2c0.1,0.1,0.2,0.4,0.2,0.6c0,0.3-0.1,0.5-0.2,0.6c-0.1,0.1-0.2,0.2-0.4,0.3s-0.3,0.2-0.4,0.3
			c0,0-0.1,0.1-0.2,0.2s-0.1,0.2-0.2,0.3C110.2,118.7,109.2,118.2,107.6,116.7z M103.9,110.2c-0.4,0.4-0.6,1.8-0.5,4.1
			c0.1,2.7,0.5,4.5,1.3,5.2c0.2,0.2,0.3,0.2,0.4,0c0.2-0.2,0.3-0.8,0.4-1.7s0.1-1.8,0-2.8c-0.1-0.9-0.3-2-0.6-3.1
			c-0.3-1.1-0.5-1.8-0.7-2C104.1,110,104,110,103.9,110.2z"/>
		<path class="st11" d="M110.8,103.5c0.2,0.3,0.3,0.6,0.4,0.7c0.2,0.2,0.7,0.4,1.5,0.5c1.3,0.3,2.3,0.7,3,1.5c0.6,0.7,0.9,1.5,1,2.4
			c0,1.9-0.6,3.5-2,4.7c-0.6,0.6-1.3,0.9-2,1c-0.3,0-0.6-0.1-0.8-0.3c-0.3-0.4-0.5-0.9-0.6-1.8c-0.1-0.8,0-1.4,0.3-1.7
			c0.2-0.2,0.6-0.3,1.1-0.2c0.1,0,0.4,0.1,0.9,0.3c0.5,0.2,0.8,0.1,1.1-0.1c0.2-0.2,0.1-0.4-0.1-0.6c-0.3-0.3-0.7-0.6-1.2-1
			c-0.3-0.2-0.6-0.4-0.8-0.5c-0.2-0.1-0.9-0.3-2.1-0.5c-0.4-0.1-0.7-0.3-1-0.5c-0.6-0.6-0.7-1.9-0.4-3.9c0.2-1.5,0.5-2.4,0.9-2.8
			c0.2-0.2,0.5-0.4,0.9-0.4c0.4,0,0.6,0.1,0.7,0.2l1.1,1.7c0.1,0.3,0,0.6-0.3,0.9c-0.4,0.3-0.8,0.5-1.3,0.4
			C110.9,103.6,110.9,103.6,110.8,103.5z"/>
		<path class="st11" d="M137.2,89.4c0.2-0.2,0.4-0.1,0.6,0.1c0.2,0.3,0.1,1-0.3,2.2c-0.3,0.9-1,2.1-1.9,3.5
			c-0.8,1.3-1.8,2.4-3.1,3.3c-1.9,1.4-4.1,2.1-6.5,2c-2.7-0.1-4.7-1.2-6.2-3.1c-0.8-1.1-1.2-2.1-1.2-3.1c0-0.3,0-0.6,0-0.9
			c0-0.1-0.1-0.3-0.2-0.7c-0.4-1.7-0.4-3.3,0.1-5c1.2-3.9,3.1-6.9,5.9-8.9c1.4-1.1,2.5-1.7,3.2-2c0.5-0.2,1,0.2,1.6,1
			c0.7,0.9,0.7,1.6,0.1,2.1c-0.1,0.1-0.4,0.2-0.8,0.3c-1.1,0.2-2.5,0.9-4.2,2.2c-2,1.5-3.4,3.2-4,5c-0.8,2.3-0.5,4.5,1,6.5
			c0.7,0.9,1.6,1.6,2.8,2.2c1.2,0.6,2.4,0.8,3.5,0.7c2.1-0.1,4-0.8,5.8-2.1c1.5-1.1,2.6-2.5,3.3-4.1
			C136.9,89.9,137.1,89.5,137.2,89.4z"/>
		<path class="st11" d="M138.1,79.4l-1.2,1.1l-0.2,0.1c-0.3,0.2-0.7,0.1-1-0.4c-0.1-0.2-0.2-0.6-0.1-1c0-0.2,0-0.3,0-0.4l-0.1-0.4
			c0-0.2,0.2-0.5,0.5-1.1s0.7-0.9,0.9-1c0.4-0.3,0.8-0.2,1.1,0.3c0.1,0.2,0.2,0.4,0.3,0.8c0,0.2,0.1,0.4,0.1,0.6
			C138.6,78.7,138.5,79.1,138.1,79.4z M138.4,89.3l-1.2-5.2c-0.1-0.6-0.2-1.1-0.2-1.3c0-0.2,0.2-0.5,0.4-0.8
			c0.3-0.4,0.5-0.8,0.7-1.2c0.2-0.4,0.3-0.6,0.4-0.7c0.3-0.2,0.6-0.1,1,0.4c0.2,0.2,0.3,0.7,0.3,1.3c0.3,2.8,0.8,4.7,1.4,5.6
			c0.4,0.6,0.7,0.7,1.1,0.5c0.3-0.2,0.5-0.5,0.7-1c0.1-0.4,0.3-0.6,0.4-0.7c0.3-0.2,0.5-0.1,0.7,0.2c0.1,0.2,0.1,0.7,0,1.5
			c-0.1,0.5-0.2,0.9-0.3,1.1c-0.1,0.2-0.4,0.6-1,1.1c0,0-0.1,0.2-0.3,0.6l-0.4,0.6c-0.1,0.2-0.3,0.4-0.4,0.5
			c-0.4,0.3-0.8,0.3-1.4,0.1c-0.5-0.2-0.9-0.5-1.2-1S138.5,90,138.4,89.3z"/>
		<path class="st11" d="M148,79.5l-1.2,0.7c0.2,1.5,0.4,2.5,0.8,3.1c0.4,0.7,1,0.9,1.7,0.5c0.3-0.2,0.6-0.5,1-1.1
			c0.2-0.4,0.4-0.6,0.6-0.7c0.3-0.2,0.6-0.1,0.8,0.2c0.1,0.2,0,0.8-0.3,1.7c-0.2,0.6-0.4,1.2-0.8,1.6c-0.5,0.6-1,1.1-1.7,1.5
			c-0.7,0.4-1.4,0.5-2.1,0.2c-0.9-0.4-1.6-1-2.1-1.8c-0.2-0.3-0.3-0.9-0.5-2c-0.1-0.3-0.2-1-0.4-1.9l-0.5,0.3
			c-0.2,0.1-0.4,0.1-0.5-0.1c-0.1-0.2-0.1-0.4-0.1-0.6c0.1-0.2,0.2-0.8,0.6-1.6c0.2-0.4,0.2-0.9,0.2-1.5l-0.3-2.9
			c-0.1-0.8-0.1-1.3,0-1.5c0.1-0.2,0.3-0.5,0.6-0.7c0,0,0.1-0.2,0.3-0.4c0.3-0.5,0.5-0.7,0.7-0.9c0.4-0.2,0.8,0,1.3,0.8
			c0.1,0.1,0.1,0.4,0.1,0.8c0,0.1,0,0.3,0,0.6l0.3,3.2l1.1-0.5c0.4-0.2,0.8-0.2,1,0.2c0.1,0.2,0.2,0.5,0.1,0.9
			c-0.1,0.4-0.1,0.7-0.1,1C148.6,79,148.4,79.3,148,79.5L148,79.5z"/>
		<path class="st11" d="M156.2,82.6L156,83c-0.1,0.2-0.3,0.3-0.5,0.4c-0.5,0.2-0.8,0.2-1.2-0.2c-0.3-0.4-1-1.5-2-3.4
			c-0.9-1.6-1.6-3.1-2.1-4.5c-0.1-0.4-0.2-0.7-0.2-0.9c0-0.3,0.2-0.6,0.4-1.2c0.4-0.8,0.7-1.2,0.9-1.4c0.2-0.1,0.4-0.1,0.7,0.1
			c0.3,0.1,0.5,0.3,0.6,0.6c0,0.1,0.1,0.3,0.1,0.6c0,0.2,0.2,0.9,0.7,2c0.4,1.1,0.8,1.9,1.2,2.6c0.3,0.5,0.5,0.9,0.7,1.3
			c0.2-3.7,0.4-6.3,0.8-7.6c0.1-0.4,0.3-0.7,0.5-1c0.3-0.4,0.6-0.7,0.9-0.8c0.5-0.3,0.9-0.1,1.1,0.3c0.1,0.2,0.2,0.7,0.3,1.3
			c0.8,6.3,1.3,10.1,1.5,11.6s0.5,2.8,0.9,3.9c0.6-0.7,0.8-1.8,0.6-3.1c-0.1-0.8,0-1.2,0.2-1.4c0.2-0.1,0.4,0,0.6,0.3
			c0.2,0.4,0.4,1.2,0.4,2.2c0,1-0.1,1.9-0.3,2.7c-0.4,1.4-0.9,2.3-1.5,2.6c-0.2,0.1-0.5,0.1-0.8-0.2c-0.6-0.5-1.1-1-1.4-1.5
			c-0.6-1.2-1.4-5.4-2.4-12.7c-0.3,1.4-0.4,3.2-0.3,5.3c0,0.6,0,0.9,0,1s-0.1,0.2-0.2,0.3C156.4,82.4,156.3,82.5,156.2,82.6z"/>
		<path class="st11" d="M170.6,80.9l-0.2,0.4c-0.1,0.1-0.2,0.2-0.3,0.2c-0.3,0.1-0.7,0.1-1.1,0c-0.2-0.1-0.4-0.4-0.6-1
			c-0.1-0.3-0.1-0.9,0-1.9c0-0.1,0.1-0.9,0.2-2.1c0.7-6.5,1.8-13.2,3.3-20c0.2-1,0.4-1.7,0.4-1.9c0.1-0.2,0.2-0.4,0.3-0.6
			c0.3-0.4,0.6-0.7,0.9-0.8c0.3-0.1,0.6,0,1,0.3l0.6,0.4c0.5,0.3,1,0.7,1.3,1.2c2.4,3.4,4.1,5.8,5.1,7.2c1.1,1.4,2.2,2.6,3.4,3.9
			c0-1.9-0.4-3.7-1-5.4c-0.2-0.6-0.6-1.2-1.3-1.8c-0.5-0.6-0.9-1.1-1.1-1.7c0-0.1-0.1-0.4-0.3-0.8l-0.9-3.1
			c-0.1-0.5-0.2-1.1-0.2-1.8c0,0,0-0.3,0-0.9c0-0.4,0.1-0.8,0.2-1.1c0.2-0.4,0.4-0.6,0.6-0.7c0.1,0,0.3,0,0.7,0.1c0,0,0.2,0,0.4,0.1
			s0.4,0.1,0.5,0.4c0.1,0.2,0.5,1.1,1.1,2.5l1.1,3.3c0.4,1.2,0.6,2.3,0.7,3.1l0.2,0.3c0.8,1.1,1.2,1.8,1.4,2.2
			c0.1,0.3,0.1,0.6,0,0.8c-0.1,0.2-0.3,0.4-0.7,0.5c0.5,4,0.6,6.3,0.2,6.9c-0.2,0.3-0.4,0.6-0.7,1c-0.3,0.4-0.6,0.7-0.7,0.7
			c-0.4,0.2-1.3-0.3-2.7-1.5c-3.6-3.1-6.4-6.6-8.6-10.7c-0.2-0.3-0.3-0.4-0.4-0.4c-0.2,0.1-0.7,2.4-1.4,7c-0.7,4.6-1.2,8.6-1.5,11.9
			c-0.1,1-0.1,1.5,0,1.7c0.1,0.1,0.1,0.2,0.1,0.3l0.2,0.6c0.1,0.3,0.1,0.6-0.2,1C170.8,80.6,170.7,80.8,170.6,80.9z"/>
		<path class="st11" d="M197.1,63.8l-0.3-1.1c-0.7,1.9-1.7,3.3-3.2,4.2c-1.2,0.8-2,1.2-2.3,1.3c-0.3,0.1-0.7,0-1-0.4
			c-0.4-0.4-0.6-0.8-0.8-1.4c-0.1-0.3,0-0.8,0.1-1.5c0-0.3,0.1-0.7,0.3-1.4c0.3-1.6,1.2-3.4,2.8-5.4c1.6-2,2.9-3.2,4.1-3.5
			c0.8-0.2,1.6-0.2,2.4,0.1c0.3,0.1,0.5,0.3,0.6,0.6c0.1,0.3,0.1,1.1,0.1,2.1c-0.1,2.8,0,5,0.5,6.6c0.1,0.3,0.3,0.6,0.5,1
			c0.1,0.1,0.1,0.2,0.2,0.3c0.1,0.2,0,0.4-0.1,0.7s-0.3,0.4-0.5,0.5c-0.1,0-0.3,0-0.5,0c-0.2,0-0.4,0-0.5,0c-0.1,0-0.1,0.1-0.3,0.1
			s-0.2,0.1-0.3,0.1C198.3,66.8,197.7,65.9,197.1,63.8z M197.2,56.3c-0.5,0.1-1.4,1.2-2.5,3.3c-1.3,2.4-1.8,4.1-1.5,5.2
			c0.1,0.2,0.2,0.3,0.3,0.3c0.3-0.1,0.7-0.5,1.2-1.2c0.5-0.7,1-1.5,1.4-2.4c0.4-0.9,0.7-1.8,1.1-2.9c0.3-1.1,0.4-1.8,0.3-2.1
			C197.4,56.3,197.3,56.3,197.2,56.3z"/>
		<path class="st11" d="M207.7,56.6l-1.3,0.3c-0.3,1.5-0.4,2.5-0.2,3.2c0.2,0.8,0.7,1.1,1.5,1c0.3-0.1,0.8-0.3,1.3-0.7
			c0.3-0.3,0.6-0.4,0.7-0.4c0.4-0.1,0.6,0.1,0.7,0.5c0,0.2-0.2,0.7-0.8,1.6c-0.4,0.5-0.8,1-1.3,1.3c-0.6,0.4-1.3,0.7-2.1,0.9
			c-0.8,0.2-1.5,0-2-0.4c-0.7-0.6-1.2-1.4-1.4-2.3c-0.1-0.3,0-1,0.2-2.1c0.1-0.3,0.1-1,0.2-1.9l-0.6,0.1c-0.3,0.1-0.4,0-0.5-0.2
			c0-0.2,0-0.4,0.1-0.6s0.5-0.7,1.1-1.4c0.3-0.3,0.5-0.8,0.6-1.4l0.6-2.9c0.2-0.8,0.3-1.3,0.5-1.5c0.1-0.2,0.4-0.4,0.8-0.5
			c0,0,0.2-0.1,0.4-0.3c0.4-0.4,0.7-0.6,0.9-0.6c0.5-0.1,0.8,0.3,1,1.2c0,0.1,0,0.4-0.1,0.8c-0.1,0.1-0.1,0.3-0.2,0.5l-0.7,3.1
			l1.2-0.1c0.5-0.1,0.8,0.1,0.9,0.5c0.1,0.3,0,0.5-0.2,0.9c-0.2,0.3-0.3,0.6-0.4,0.9C208.4,56.3,208.2,56.5,207.7,56.6L207.7,56.6z"
			/>
		<path class="st11" d="M211.1,59.2l0.9-5.2c0.1-0.6,0.2-1,0.3-1.2c0.1-0.2,0.3-0.4,0.7-0.6c0.4-0.2,0.8-0.5,1.1-0.8
			c0.3-0.3,0.5-0.4,0.7-0.5c0.4-0.1,0.6,0.2,0.7,0.8c0.1,0.3,0,0.7-0.2,1.4c-0.8,2.7-1.1,4.6-0.9,5.7c0.1,0.7,0.4,0.9,0.8,0.9
			c0.3-0.1,0.7-0.3,1-0.7c0.3-0.3,0.5-0.5,0.6-0.5c0.3-0.1,0.5,0.1,0.6,0.4c0,0.2-0.2,0.7-0.6,1.4c-0.3,0.4-0.5,0.7-0.7,0.9
			c-0.2,0.2-0.6,0.4-1.3,0.7c0,0-0.2,0.1-0.5,0.4l-0.6,0.4c-0.2,0.1-0.4,0.2-0.6,0.3c-0.5,0.1-0.9,0-1.3-0.4
			c-0.4-0.3-0.7-0.8-0.8-1.4C210.9,60.5,210.9,59.8,211.1,59.2z M214.6,49.9l-1.6,0.6l-0.3,0c-0.4,0.1-0.6-0.2-0.7-0.7
			c0-0.3,0-0.6,0.3-1c0.1-0.1,0.1-0.3,0.2-0.4l0.1-0.4c0.1-0.2,0.4-0.4,0.9-0.8c0.5-0.3,1-0.5,1.3-0.6c0.5-0.1,0.8,0.2,0.9,0.8
			c0,0.2,0,0.5-0.1,0.9c0,0.2-0.1,0.4-0.1,0.6C215.4,49.4,215.1,49.7,214.6,49.9z"/>
		<path class="st11" d="M222.6,49.9c0.1-0.4,0.3-0.8,0.6-1c0.6-0.5,1-0.7,1.2-0.7c0.3,0,0.8,0.3,1.6,0.9c0.7,0.6,1,1.2,1.1,1.8
			c0,0.1,0,0.8,0.1,1.9c0,1.2,0,1.8,0,2c-0.1,1.1-0.8,2.5-2.1,4.1c-0.3,0.4-0.9,0.9-1.9,1.5c-0.8,0.5-1.5,0.8-2,0.9
			c-0.7,0.1-1.3,0-1.7-0.2c0,0-0.3-0.4-0.9-1c-0.2-0.3-0.4-0.5-0.4-0.8c0-0.2,0-0.6,0-1.1c0-0.3,0-0.6,0-1c-0.1-0.7,0.1-1.6,0.8-2.8
			c0.6-1.2,1.4-2.4,2.4-3.5C221.9,50.4,222.3,50.1,222.6,49.9C222.6,50,222.6,50,222.6,49.9z M223.2,52.1c-0.5,0.8-0.8,1.8-1.1,3
			c-0.3,1.4-0.4,2.5-0.4,3.1c0.1,0.7,0.3,1.1,0.6,1c0.4,0,0.8-0.3,1.2-0.8c0.8-0.8,1.4-2,1.8-3.7C224.4,54,223.6,53.1,223.2,52.1z"
			/>
		<path class="st11" d="M232.4,54.8l2.2-3.5c0.6-1,1.2-1.7,1.6-2c0.1,0,0.2-0.2,0.4-0.5c0.4-0.4,0.8-0.7,1.4-0.7
			c0.8-0.1,1.3,0.7,1.4,2.1c0.1,0.7-0.1,2.5-0.5,5.2c-0.1,0.5-0.1,0.8-0.1,1c0,0.2,0.1,0.4,0.3,0.6s0.3,0.4,0.3,0.5
			c0,0.3-0.3,0.7-1.1,1.3s-1.3,0.9-1.8,0.9c-0.7,0.1-1.1-0.7-1.2-2.2c0-0.4,0-0.7,0.1-1.1l0.8-3.7c0.1-0.5,0.2-0.8,0.2-1
			c0-0.1,0-0.1-0.1-0.1c-0.2,0-1.3,1.8-3.2,5.2c-0.5,1-0.8,1.5-0.9,1.7c-0.1,0.1-0.2,0.3-0.3,0.5c-0.1,0.2-0.2,0.3-0.2,0.3
			c0,0-0.1,0.1-0.3,0.1c-0.2,0.1-0.4,0.2-0.8,0.5c-0.3,0.2-0.5,0.3-0.6,0.3c-0.1,0-0.3-0.1-0.5-0.3c-0.3-0.4-0.5-0.6-0.5-0.7
			c0-0.4,0.1-1.1,0.3-2.1c0-0.2,0.2-1.2,0.6-3c0.4-2,0.7-3.3,0.9-3.9c0.2-0.6,0.4-0.9,0.7-1c0,0,0.2-0.1,0.4-0.2
			c0.4-0.3,0.7-0.5,0.9-0.5c0.3,0,0.6,0.1,0.9,0.2s0.5,0.4,0.5,0.7c0,0.2-0.1,0.5-0.2,0.9c-0.2,0.4-0.4,1-0.7,1.9L232.4,54.8z"/>
		<path class="st11" d="M248.5,56.7l0-1.1c-1.1,1.6-2.5,2.7-4.2,3.2c-1.4,0.4-2.2,0.6-2.5,0.6s-0.6-0.2-0.9-0.7
			c-0.3-0.4-0.4-1-0.4-1.6c0-0.3,0.2-0.7,0.5-1.4c0.1-0.2,0.3-0.7,0.6-1.3c0.7-1.5,2.1-3,4.1-4.5c2-1.5,3.6-2.3,4.9-2.3
			c0.8,0,1.6,0.2,2.3,0.7c0.3,0.2,0.4,0.4,0.4,0.8c0,0.4-0.2,1.1-0.5,2.1c-0.9,2.7-1.3,4.9-1.3,6.5c0,0.3,0.1,0.6,0.3,1.1
			c0.1,0.1,0.1,0.2,0.1,0.3c0,0.2-0.1,0.4-0.3,0.6c-0.2,0.2-0.4,0.3-0.6,0.3c-0.1,0-0.3,0-0.5-0.1c-0.2-0.1-0.4-0.1-0.5-0.1
			c-0.1,0-0.2,0-0.3,0c-0.1,0-0.2,0-0.3,0C248.8,59.9,248.5,58.8,248.5,56.7z M250.5,49.5c-0.6,0-1.7,0.8-3.3,2.5
			c-1.9,2-2.8,3.5-2.8,4.6c0,0.2,0.1,0.3,0.3,0.3c0.3,0,0.8-0.3,1.5-0.9c0.7-0.6,1.4-1.2,2-1.9s1.2-1.6,1.8-2.6
			c0.6-1,0.9-1.6,0.9-1.9C250.8,49.5,250.7,49.5,250.5,49.5z"/>
		<path class="st11" d="M259.1,42.8l2.8-1.2c0.3-0.1,0.6-0.2,0.7-0.2c0.1,0,0.2,0.1,0.3,0.2c0.1,0.1,0.1,0.3,0.1,0.4
			c0,0.3-0.2,0.8-0.5,1.5c-0.3,0.7-1.3,3-3,6.7c-1.2,2.5-1.7,4.2-1.8,5.1c0,0.6,0.2,1,0.7,1c0.7,0,1.5-0.4,2.5-1.3
			c0.4-0.3,0.6-0.5,0.8-0.5c0.1,0,0.2,0.1,0.3,0.2c0.1,0.2,0.2,0.3,0.2,0.4c0,0.7-0.8,1.6-2.3,2.7c-0.5,0.4-1.2,0.8-1.9,1.1
			c-0.7,0.3-1.2,0.5-1.6,0.5c-0.2,0-0.3-0.1-0.5-0.4s-0.5-0.4-0.8-0.6c-0.4-0.2-0.6-0.3-0.8-0.5c-0.2-0.2-0.2-0.3-0.3-0.3l0.2-0.9
			c0-0.1,0-0.1,0-0.3c0-0.1,0-0.2,0-0.3c0,0,0.1-0.3,0.2-1c0.1-0.6,0.5-1.6,1-2.9l2.2-5.2c0.7-1.6,1-2.5,1-2.9l0-1.1
			C258.5,43.1,258.7,42.9,259.1,42.8z"/>
		<path class="st11" d="M269.3,60.3l2.8-1.5c0.3-0.1,0.5-0.2,0.7-0.2c0.3,0,0.4,0.2,0.4,0.5c-0.1,0.3-0.7,0.8-1.9,1.6
			c-0.1,0.1-0.2,0.2-0.2,0.3s0.1,0.2,0.2,0.2c0,0,0.1,0,0.2,0c0,0,0.2,0,0.5,0c2.3,0.1,5.1,0,8.4-0.4c3.3-0.4,5.8-0.8,7.2-1.2
			c1.7-0.5,2.6-1.1,2.7-1.8c0.2-1.2-1.5-2.1-5.1-2.7c-0.8-0.1-1.7-0.3-2.7-0.4c-0.5-0.1-0.8-0.1-0.9-0.1c-1-0.2-1.9-0.4-2.6-0.7
			c-0.4-0.2-0.8-0.6-1.3-1.2c-0.5-0.8-1-1.2-1.4-1.3c-0.6-0.1-1-0.2-1.1-0.4c-0.4-0.2-0.6-0.7-0.5-1.2c0.2-1.2,1.1-2.3,2.7-3.4
			s3.7-2.1,6.4-2.9c3.2-0.9,6.1-1.4,8.6-1.4c1.1,0,1.8,0,2.1,0.1c0.5,0.1,1,0.3,1.3,0.6c0.3,0.3,0.5,0.7,0.4,1.1
			c-0.1,0.4-0.4,0.9-1.1,1.4c-0.8,0.7-1.3,1.1-1.3,1.2l-0.7,0.7c-0.3,0.3-0.5,0.4-0.7,0.3c-0.1,0-0.3-0.1-0.4-0.3
			c-0.1-0.2-0.1-0.4-0.1-0.5l0.1-0.6c0.1-0.3-0.1-0.5-0.6-0.5c-0.8-0.1-3.2,0-7.1,0.4c-2.8,0.3-4.8,0.8-5.8,1.6
			c-0.6,0.4-0.9,0.9-1,1.3c-0.1,0.8,0.8,1.4,2.7,1.7l5.6,0.8c2.8,0.4,5,1,6.3,1.9c1.4,0.9,2,2,1.8,3.4c-0.1,0.9-0.6,1.7-1.5,2.3
			c-0.5,0.4-1.6,0.9-3.3,1.8c-0.2,0.1-0.6,0.3-1.3,0.8c-1,0.7-1.9,1.1-2.5,1.3c-0.6,0.2-2.3,0.5-5,1c-4.5,0.8-8.3,1.1-11.6,1
			c-1.6-0.1-2.6-0.1-3-0.2c-0.7-0.1-1-0.4-0.9-0.8c0-0.3,1-0.9,2.7-1.9c0.2-0.1,0.4-0.4,0.6-0.7C268.4,60.8,268.8,60.5,269.3,60.3z"
			/>
		<path class="st11" d="M303.8,54.6c0.4,0.1,0.7,0.3,1,0.7c0.3,0.4,0.4,0.8,0.3,1.1c-0.1,0.4-0.3,0.7-0.5,1
			c-0.2,0.3-0.5,0.4-0.6,0.4c-0.1,0-0.2-0.1-0.3-0.1c-0.3-0.1-0.5-0.2-0.6-0.3c-0.8-0.2-2.1,0.5-3.6,2c-1.2,1.1-1.9,2.1-2,2.8
			c-0.1,0.3,0,0.4,0.3,0.5c0.5,0.1,1.3,0.1,2.5-0.2c0.9-0.2,1.6-0.4,1.9-0.7c0.8-0.5,1.3-0.8,1.6-0.7c0.2,0.1,0.3,0.2,0.2,0.5
			c-0.1,0.4-0.4,0.9-0.9,1.4c-0.5,0.5-1.1,0.9-1.7,1.1c-1.8,0.8-3.2,1-4.2,0.7c-1-0.3-1.7-0.5-2-0.6c-0.3-0.2-0.6-0.4-0.8-0.7
			c-0.3-0.3-0.4-0.7-0.4-1c0-0.1,0-0.4,0.1-0.7c0.2-1,0.9-2.1,1.9-3.2c1-1.2,2.1-2,3.1-2.5c1-0.5,2-0.9,3-1.2
			C302.8,54.6,303.5,54.5,303.8,54.6z"/>
		<path class="st11" d="M304.5,62.9l3.2-4.2c0.4-0.5,0.7-0.8,0.9-0.9c0.2-0.1,0.5-0.2,0.9-0.2c0.5,0,0.9-0.1,1.3-0.2
			c0.4-0.1,0.7-0.2,0.8-0.1c0.4,0.1,0.5,0.4,0.3,1c-0.1,0.3-0.3,0.6-0.8,1.1c-2,2-3.1,3.6-3.4,4.7c-0.2,0.6-0.1,1,0.4,1.2
			c0.3,0.1,0.7,0,1.2-0.2c0.4-0.2,0.7-0.2,0.8-0.2c0.3,0.1,0.4,0.3,0.3,0.6c-0.1,0.2-0.5,0.6-1.1,1c-0.5,0.3-0.8,0.4-1.1,0.5
			c-0.3,0.1-0.8,0-1.5,0c0,0-0.3,0-0.6,0.1l-0.7,0.1c-0.2,0-0.4,0-0.6,0c-0.5-0.1-0.8-0.4-1-0.9c-0.2-0.5-0.2-1-0.1-1.6
			C303.8,64,304.1,63.4,304.5,62.9z M311.8,56.2l-1.7-0.2l-0.2-0.1c-0.4-0.1-0.5-0.4-0.3-1c0.1-0.3,0.3-0.5,0.7-0.7
			c0.1-0.1,0.2-0.2,0.3-0.3l0.3-0.3c0.1-0.1,0.5-0.2,1.1-0.3c0.6-0.1,1.1-0.1,1.4,0c0.5,0.1,0.6,0.5,0.5,1.1
			c-0.1,0.2-0.2,0.4-0.5,0.7c-0.1,0.2-0.3,0.3-0.4,0.5C312.8,56.2,312.4,56.3,311.8,56.2z"/>
		<path class="st11" d="M314.8,67.3c0.4,1,1,1.7,1.8,1.9c0.4,0.1,1,0.2,1.9,0.1c0.1,0,0.2,0,0.3,0c0.4,0.1,0.5,0.4,0.4,0.7
			c-0.1,0.3-0.5,0.6-1,0.7c-0.4,0.1-0.9,0.1-1.7,0c-0.7-0.1-1.3-0.1-1.6-0.3c-0.4-0.1-0.9-0.5-1.6-1c-0.3-0.2-0.6-0.4-0.9-0.6
			c-0.8-0.5-1.2-0.9-1.4-1.2c-0.2-0.6-0.2-1.3,0.2-2.2c0.4-1,1.2-2.1,2.6-3.3c1.3-1,2.9-1.8,5-2.2c1.2-0.2,2.2-0.3,2.9,0
			c1,0.3,1.3,1.1,0.8,2.4c-0.3,0.8-0.6,1.4-1.1,1.7c-0.1,0.1-0.3,0.3-0.6,0.6c-0.5,0.9-1.5,1.6-2.8,2.1
			C316.8,67.3,315.8,67.5,314.8,67.3z M320.1,61.9c-0.4-0.2-1-0.1-1.6,0.3c-0.6,0.3-1.2,0.8-1.8,1.4c-0.6,0.6-1,1.1-1.1,1.6
			c-0.1,0.2-0.1,0.4,0.1,0.4c0.3,0.1,0.8-0.1,1.6-0.5c1.7-0.8,2.8-1.7,3.1-2.6C320.4,62.3,320.3,62,320.1,61.9z"/>
		<path class="st11" d="M325.2,68.5l3.5-2.1c1-0.6,1.8-1,2.4-1.1c0.1,0,0.3-0.1,0.6-0.2c0.5-0.2,1-0.2,1.5,0
			c0.7,0.3,0.8,1.2,0.3,2.5c-0.3,0.7-1.2,2.2-2.8,4.4c-0.3,0.4-0.5,0.7-0.5,0.9c-0.1,0.2-0.1,0.4,0,0.6c0.1,0.3,0.1,0.5,0,0.6
			c-0.1,0.3-0.6,0.5-1.6,0.7s-1.6,0.2-2,0c-0.6-0.3-0.7-1.1-0.1-2.5c0.1-0.3,0.3-0.6,0.6-0.9l2.4-2.9c0.3-0.4,0.5-0.7,0.6-0.8
			c0-0.1,0-0.2,0-0.2c-0.2-0.1-2,1-5.2,3.2c-0.9,0.6-1.4,1-1.6,1.1c-0.2,0.1-0.3,0.2-0.5,0.3s-0.3,0.2-0.3,0.2c0,0-0.2,0-0.3,0
			c-0.2,0-0.5,0-0.9,0.1c-0.3,0.1-0.5,0.1-0.7,0c-0.1,0-0.2-0.2-0.3-0.5c-0.1-0.5-0.2-0.8-0.2-0.8c0.2-0.4,0.6-1,1.2-1.8
			c0.1-0.1,0.8-1,1.9-2.4c1.2-1.6,2.1-2.6,2.5-3.1c0.4-0.4,0.8-0.6,1.1-0.6c0,0,0.2,0,0.5,0c0.5-0.1,0.9-0.1,1-0.1
			c0.3,0.1,0.5,0.3,0.7,0.6c0.2,0.3,0.2,0.6,0.1,0.9c-0.1,0.2-0.3,0.4-0.6,0.7c-0.3,0.3-0.8,0.7-1.5,1.4L325.2,68.5z"/>
		<path class="st11" d="M343.1,69.5c0.3,0.2,0.6,0.5,0.8,0.9c0.2,0.5,0.2,0.8,0.1,1.1c-0.2,0.3-0.4,0.6-0.7,0.8
			c-0.3,0.2-0.5,0.3-0.7,0.2c-0.1,0-0.2-0.1-0.3-0.2c-0.2-0.2-0.4-0.3-0.6-0.4c-0.8-0.4-2.1,0-4,1.2c-1.4,0.9-2.2,1.7-2.6,2.3
			c-0.1,0.3-0.1,0.4,0.1,0.5c0.5,0.2,1.3,0.3,2.4,0.3c0.9,0,1.6-0.1,2-0.3c0.9-0.4,1.4-0.5,1.7-0.4c0.2,0.1,0.2,0.3,0.1,0.5
			c-0.2,0.4-0.6,0.8-1.2,1.2c-0.6,0.4-1.2,0.6-1.9,0.8c-1.9,0.4-3.4,0.3-4.3-0.1c-1-0.5-1.6-0.8-1.8-1c-0.3-0.2-0.5-0.5-0.7-0.9
			c-0.2-0.4-0.3-0.7-0.2-1.1c0-0.1,0.1-0.4,0.3-0.7c0.4-0.9,1.3-1.8,2.5-2.8s2.4-1.6,3.6-1.8c1.1-0.3,2.1-0.4,3.2-0.5
			C342.1,69.4,342.8,69.4,343.1,69.5z"/>
		<path class="st11" d="M344.9,80.6c0.2,1.1,0.7,1.8,1.4,2.2c0.4,0.2,1,0.3,1.9,0.4c0.1,0,0.2,0,0.3,0.1c0.3,0.2,0.4,0.4,0.2,0.7
			c-0.2,0.3-0.5,0.5-1.1,0.5c-0.4,0-0.9-0.1-1.7-0.2s-1.2-0.3-1.5-0.5c-0.4-0.2-0.8-0.6-1.4-1.3c-0.3-0.3-0.5-0.5-0.8-0.8
			c-0.7-0.6-1.1-1.1-1.1-1.5c-0.1-0.6,0.1-1.3,0.5-2.1c0.5-1,1.6-1.9,3.2-2.8c1.4-0.8,3.2-1.3,5.3-1.3c1.3,0,2.2,0.1,2.8,0.4
			c0.9,0.5,1,1.3,0.4,2.5c-0.4,0.8-0.9,1.3-1.3,1.5c-0.1,0.1-0.4,0.2-0.7,0.5c-0.7,0.8-1.7,1.3-3.1,1.6
			C346.9,80.9,345.8,80.9,344.9,80.6z M351,76.1c-0.4-0.2-1-0.2-1.6,0c-0.7,0.2-1.4,0.6-2.1,1.1c-0.7,0.5-1.1,0.9-1.4,1.4
			c-0.1,0.2-0.1,0.4,0,0.5c0.3,0.1,0.8,0,1.7-0.2c1.9-0.5,3-1.2,3.5-2C351.3,76.5,351.2,76.3,351,76.1z"/>
		<path class="st11" d="M369.8,89.6l-3.5,2.3c-0.8,0.5-1.3,1-1.5,1.2c-0.1,0.1-0.2,0.3-0.3,0.5s-0.2,0.3-0.2,0.4
			c-0.1,0.1-0.3,0.2-0.7,0.1l-3.4-0.6c-0.2-0.1-0.4-0.1-0.4-0.2c-0.3-0.2-0.3-0.4-0.1-0.7c0-0.1,0.2-0.2,0.4-0.3
			c0.4-0.2,1.2-0.8,2.5-1.6l4.6-3.2c-0.5-0.4-0.9-0.8-1.4-1.1c-0.2-0.1-0.7-0.5-1.6-1.1c0,0.4,0,0.6-0.1,0.7c-0.1,0.2-0.5,0.3-1,0.3
			s-1-0.1-1.2-0.2c-0.2-0.2-0.4-0.5-0.6-1c-0.4-1-0.9-1.7-1.3-2.1c-0.4-0.4-0.6-0.7-0.3-1.1c0.2-0.3,0.8-0.5,1.7-0.6
			c0.6-0.1,1-0.1,1.3-0.1c0.3,0,0.7,0.2,1.2,0.5c1.1,0.6,2.5,1.5,3.9,2.5c0.2,0.1,0.8,0.6,2,1.6c2.1-1.4,4.1-2.7,6-3.7
			c0.5-0.2,0.8-0.4,0.9-0.4c0.2,0,0.4,0,0.8,0.1l2.1,0.5c0.3,0.1,0.5,0.1,0.6,0.2c0.2,0.2,0.2,0.4,0,0.8c-0.1,0.2-0.5,0.4-1,0.5
			c-0.2,0-0.8,0.4-2,1l-5,3.2c1,0.9,1.7,1.6,2.3,2c1.7,1.3,3.2,2.1,4.4,2.4c0.3,0.1,0.6,0,1-0.3l4-3.2c0.9-0.7,1.7-1,2.4-0.9
			c0.2,0,0.4,0,0.6,0c0,0,0.2,0,0.5-0.1c0.7-0.1,1.2-0.1,1.4,0.1c0.3,0.3,0.4,0.6,0.1,1c-0.1,0.1-0.4,0.3-0.9,0.6
			c-0.4,0.2-2.4,1.8-5.8,4.8c-3.2,2.7-5,4.3-5.4,5c-0.3,0.4-0.3,0.7,0,0.9c0.3,0.3,1,0.3,2,0c0.7-0.2,1.1-0.2,1.3-0.1
			c0.3,0.2,0.3,0.5,0.1,0.8c-0.1,0.1-0.4,0.3-0.7,0.5c-0.4,0.2-0.8,0.4-1.3,0.7l-0.6,0.4c-0.2,0.1-0.4,0.2-0.8,0.1
			c-0.6-0.1-1.5-0.2-2.5-0.1c-0.5,0-1-0.1-1.4-0.4c-0.7-0.5-1-0.9-1-1.4c0-0.8,0.3-1.5,0.9-2.3c0.1-0.2,0.5-0.6,1.2-1.2
			c0.1-0.1,0.7-0.6,1.7-1.5c0.3-0.3,1-0.9,2.1-1.9c-3.2-1.2-5.4-2.3-6.5-3.1C370.9,90.5,370.4,90.2,369.8,89.6z"/>
		<path class="st11" d="M379.5,102.9l4.7-2.5c0.6-0.3,1-0.5,1.2-0.5s0.5,0,0.9,0.2c0.5,0.2,0.9,0.3,1.3,0.4c0.4,0,0.7,0.1,0.8,0.2
			c0.3,0.2,0.2,0.6-0.2,1c-0.2,0.2-0.6,0.4-1.2,0.7c-2.6,1.1-4.3,2-5.1,2.9c-0.4,0.5-0.5,0.9-0.1,1.2c0.2,0.2,0.6,0.3,1.2,0.4
			c0.4,0,0.7,0.1,0.8,0.2c0.2,0.2,0.2,0.4,0,0.7c-0.2,0.2-0.6,0.3-1.5,0.4c-0.5,0.1-0.9,0-1.2,0c-0.3-0.1-0.7-0.3-1.4-0.6
			c0,0-0.2-0.1-0.6-0.2l-0.7-0.2c-0.2-0.1-0.4-0.2-0.6-0.3c-0.4-0.3-0.5-0.7-0.5-1.3s0.2-1,0.6-1.4
			C378.4,103.6,378.9,103.2,379.5,102.9z M388.9,99.9l-1.4-0.9l-0.2-0.2c-0.3-0.3-0.3-0.6,0.1-1c0.2-0.2,0.5-0.3,0.9-0.4
			c0.2,0,0.3-0.1,0.4-0.1l0.4-0.2c0.2-0.1,0.6,0,1.2,0.2c0.6,0.2,1,0.4,1.3,0.6c0.4,0.3,0.4,0.7,0,1.2c-0.1,0.2-0.4,0.3-0.7,0.5
			c-0.2,0.1-0.4,0.2-0.6,0.3C389.9,100.2,389.4,100.2,388.9,99.9z"/>
		<path class="st11" d="M382.3,117.9l5.6-3.7c0.6-0.4,1.4-0.8,2.3-1.4c-2.4,0-4.2-0.3-5.5-1c-0.7-0.4-1.2-0.7-1.5-1
			c-0.2-0.2-0.2-0.5-0.2-0.9c0-0.1,0-0.2,0-0.4c0-0.2,0.1-0.4,0.3-0.6c1.7-1.8,4.1-2.6,7.2-2.4c3.3,0.2,5.4,0.7,6.2,1.5l1.2,1.5
			c0.8,0.8,1.1,1.3,0.8,1.6c-0.1,0.1-0.4,0.3-0.9,0.6c-0.5,0.3-1,0.6-1.5,0.9c-0.2,0.1-1.4,0.9-3.5,2.3c-1.8,1.2-3.2,2.1-4.2,2.6
			c-0.9,0.5-2.5,1.3-4.8,2.3c-0.7,0.3-1.3,0.4-1.7,0.3c-1.1-0.3-1.8-0.7-2.2-1.1c-0.1-0.1-0.5-0.6-0.9-1.4c-0.5-0.8-0.7-1.3-0.7-1.5
			c0-0.3,0.1-0.9,0.4-1.7c0.3-0.9,0.5-1.4,0.8-1.6c0.2-0.2,1-0.6,2.4-1.1c0.4-0.1,0.8-0.1,1,0.1c0.3,0.3,0.3,0.7,0,1.3
			c-1.4,2.7-1.9,4.3-1.3,4.8C381.6,118.2,381.9,118.2,382.3,117.9z M395.8,109.6c-0.3-0.2-0.8-0.4-1.6-0.6c-0.8-0.1-1.6-0.2-2.3-0.1
			c-0.9,0.1-1.8,0.3-2.8,0.6c-0.9,0.4-1.6,0.8-2.1,1.2c-0.1,0.1-0.1,0.2-0.1,0.2c0.2,0.2,0.8,0.4,1.7,0.5s1.8,0,2.8-0.1
			c0.9-0.1,1.8-0.3,2.6-0.6c0.9-0.3,1.4-0.5,1.6-0.7C395.9,109.9,395.9,109.8,395.8,109.6z"/>
		<path class="st11" d="M411.5,112.8l-12,4.7c3.6-0.1,5.7,0.1,6.2,0.7c0.4,0.5,0.4,1-0.2,1.5c-0.3,0.3-0.6,0.5-0.9,0.7l-4.5,3
			c-0.4,0.3-0.7,0.5-0.9,0.6c-0.2,0.2-0.3,0.3-0.3,0.5c0,0.1,0.1,0.3,0.2,0.6c0.1,0.1,0,0.3-0.1,0.4c-0.4,0.4-0.7,0.5-1,0.3
			c-0.7-0.3-1.2-0.5-1.6-0.6c-0.4-0.1-0.6-0.1-0.7-0.2c-0.3-0.3-0.4-0.7-0.4-1.2c0-0.5,0.2-1,0.7-1.5c0.3-0.3,0.8-0.6,1.4-1l4-2.2
			c0.1,0,0.2-0.1,0.3-0.2c0.1-0.1,0.1-0.2,0-0.2c-0.2-0.2-1.2-0.2-3.1-0.1c-1.9,0.2-3.2,0.4-4,0.7c-0.5,0.2-0.8,0.3-0.9,0.3
			c-0.1,0-0.3,0-0.5-0.1c-0.1-0.1-0.3-0.1-0.4-0.2c0,0-0.2-0.1-0.4-0.2c-0.5-0.1-0.7-0.2-0.8-0.3c-0.3-0.3-0.2-0.6,0.3-1
			c0.2-0.2,0.8-0.5,1.7-0.9c0.6-0.3,1.3-0.5,1.9-0.8c0.3-0.2,1-0.5,2-1.1c0.4-0.2,1-0.5,1.8-0.8l7.2-2.8c2.1-0.8,3.2-1.2,3.5-1.2
			c0.4,0.1,0.9,0.2,1.7,0.5s1.2,0.5,1.3,0.6c0.2,0.3,0.2,0.6-0.2,0.9C412.4,112.3,412.1,112.5,411.5,112.8z"/>
		<path class="st11" d="M403.3,133l3,1c0.3,0.1,0.5,0.2,0.6,0.4c0.2,0.2,0.1,0.5-0.1,0.6c-0.3,0.2-1.1,0.1-2.5-0.3
			c-0.2,0-0.3,0-0.4,0c-0.1,0.1-0.1,0.2,0,0.3c0,0,0.1,0.1,0.1,0.1c0,0,0.2,0.1,0.4,0.4c1.5,1.7,3.6,3.6,6.2,5.7
			c2.6,2.1,4.6,3.6,5.9,4.3c1.5,0.8,2.6,1,3.1,0.7c1-0.7,0.5-2.6-1.6-5.5c-0.5-0.7-1-1.4-1.6-2.2c-0.3-0.4-0.5-0.6-0.5-0.7
			c-0.6-0.9-1-1.6-1.3-2.3c-0.1-0.5-0.1-1,0-1.8c0.2-0.9,0.2-1.5,0-1.9c-0.3-0.5-0.5-0.9-0.5-1.1c-0.1-0.5,0.1-0.9,0.6-1.2
			c1-0.7,2.4-0.8,4.3-0.5s4.1,1.2,6.5,2.6c2.9,1.6,5.2,3.4,7,5.2c0.8,0.8,1.2,1.3,1.4,1.6c0.3,0.4,0.5,0.9,0.5,1.3
			c0,0.5-0.2,0.8-0.5,1c-0.3,0.2-0.9,0.3-1.8,0.2c-1.1-0.1-1.7-0.1-1.7-0.1l-1,0c-0.4,0-0.6-0.1-0.8-0.3c-0.1-0.1-0.1-0.3,0-0.5
			c0.1-0.2,0.2-0.4,0.3-0.5l0.5-0.3c0.3-0.2,0.3-0.4,0-0.8c-0.5-0.7-2.2-2.3-5.2-4.7c-2.2-1.8-3.9-2.8-5.2-3.1
			c-0.7-0.1-1.3-0.1-1.6,0.2c-0.7,0.5-0.5,1.5,0.7,3.1l3.3,4.6c1.7,2.3,2.7,4.3,3.1,5.9c0.4,1.6,0,2.8-1.2,3.6
			c-0.7,0.5-1.6,0.7-2.7,0.6c-0.6-0.1-1.8-0.5-3.6-1.1c-0.2-0.1-0.7-0.2-1.5-0.4c-1.2-0.3-2.1-0.6-2.7-0.9c-0.6-0.3-2-1.3-4.2-2.8
			c-3.7-2.6-6.6-5.2-8.8-7.6c-1.1-1.2-1.7-2-2-2.3c-0.4-0.6-0.4-0.9-0.1-1.2c0.2-0.2,1.3,0.1,3.2,0.7c0.2,0,0.5,0,1-0.1
			C402.3,132.7,402.7,132.8,403.3,133z"/>
		<path class="st11" d="M431.4,153.7c0.2,0.3,0.2,0.7,0.2,1.2c-0.1,0.5-0.3,0.8-0.6,1c-0.3,0.2-0.7,0.3-1,0.3
			c-0.4,0-0.6-0.1-0.7-0.2c-0.1-0.1-0.1-0.2-0.1-0.3c-0.1-0.3-0.2-0.5-0.3-0.6c-0.4-0.7-1.8-1.2-4-1.2c-1.6,0-2.8,0.1-3.5,0.5
			c-0.2,0.1-0.3,0.3-0.2,0.5c0.3,0.4,0.9,1,1.8,1.6c0.8,0.5,1.4,0.8,1.8,0.9c1,0.2,1.5,0.4,1.6,0.6c0.1,0.2,0,0.3-0.2,0.5
			c-0.4,0.2-1,0.3-1.7,0.3c-0.7,0-1.4-0.2-2-0.5c-1.8-0.8-3-1.6-3.5-2.5c-0.5-0.9-0.9-1.6-1-1.9c-0.1-0.3-0.1-0.7-0.1-1.1
			c0-0.4,0.2-0.8,0.4-1c0.1-0.1,0.3-0.2,0.6-0.4c0.9-0.5,2.1-0.8,3.6-0.9c1.6-0.1,2.9,0.1,4,0.5c1,0.4,2,0.8,3,1.4
			S431.3,153.4,431.4,153.7z"/>
		<path class="st11" d="M443.9,161.2l-12.8,1.3c3.5,0.8,5.4,1.6,5.8,2.3c0.3,0.6,0.1,1.1-0.6,1.4c-0.4,0.2-0.7,0.3-1.1,0.4l-5.1,1.6
			c-0.4,0.1-0.8,0.3-1,0.4c-0.2,0.1-0.4,0.2-0.4,0.4c0,0.1,0,0.3,0.1,0.6c0,0.2,0,0.3-0.2,0.4c-0.5,0.2-0.8,0.3-1,0.1
			c-0.6-0.5-1-0.9-1.4-1s-0.5-0.3-0.6-0.4c-0.2-0.3-0.2-0.8-0.1-1.3s0.5-0.9,1.1-1.2c0.4-0.2,0.9-0.4,1.6-0.5l4.4-1.1
			c0.1,0,0.2-0.1,0.3-0.1c0.1-0.1,0.1-0.1,0.1-0.2c-0.1-0.3-1.1-0.5-3-0.9c-1.9-0.3-3.2-0.5-4-0.4c-0.5,0.1-0.9,0.1-1,0.1
			c-0.1,0-0.3-0.1-0.4-0.3c-0.1-0.1-0.2-0.2-0.3-0.3c0,0-0.1-0.1-0.4-0.3c-0.4-0.2-0.7-0.4-0.7-0.5c-0.2-0.3,0-0.6,0.5-0.9
			c0.3-0.1,0.9-0.3,1.8-0.4c0.7-0.1,1.4-0.2,2-0.3c0.4-0.1,1.1-0.2,2.3-0.5c0.4-0.1,1.1-0.2,2-0.3l7.7-0.8c2.2-0.2,3.4-0.3,3.7-0.2
			c0.4,0.2,0.8,0.5,1.5,0.9s1,0.8,1.1,0.9c0.2,0.3,0,0.6-0.4,0.8C444.9,161.1,444.5,161.1,443.9,161.2z"/>
		<path class="st11" d="M440.1,172.4c0.5,0,0.8,0.1,1.2,0.3c0.6,0.4,0.9,0.7,1,0.9c0.1,0.3,0,0.8-0.5,1.8c-0.4,0.8-0.9,1.3-1.4,1.6
			c-0.1,0-0.7,0.2-1.8,0.6c-1.1,0.4-1.8,0.5-1.9,0.6c-1.1,0.2-2.6-0.1-4.6-0.9c-0.5-0.2-1.1-0.7-2-1.4c-0.7-0.6-1.2-1.2-1.5-1.7
			c-0.3-0.7-0.4-1.3-0.3-1.7c0,0,0.3-0.4,0.7-1.1c0.2-0.3,0.4-0.5,0.6-0.6c0.2-0.1,0.5-0.2,1.1-0.3c0.3-0.1,0.6-0.2,1-0.3
			c0.6-0.3,1.6-0.3,2.9,0c1.4,0.3,2.7,0.7,4.1,1.4C439.5,171.8,439.9,172.1,440.1,172.4C440.1,172.4,440.1,172.4,440.1,172.4z
			 M438.2,173.6c-0.9-0.2-2-0.3-3.2-0.2c-1.5,0.1-2.5,0.3-3,0.5c-0.7,0.3-1,0.6-0.8,0.9c0.1,0.3,0.5,0.7,1.1,1c1,0.5,2.3,0.8,4,0.7
			C436.7,175.2,437.3,174.3,438.2,173.6z"/>
		<path class="st11" d="M444.3,182.7c0.5,0,0.8,0.1,1.1,0.4c0.6,0.4,0.9,0.8,1,1c0.1,0.3-0.1,0.8-0.6,1.7c-0.4,0.8-0.9,1.3-1.5,1.5
			c-0.1,0-0.7,0.2-1.9,0.5c-1.1,0.3-1.8,0.5-1.9,0.5c-1.1,0.2-2.6-0.2-4.5-1.1c-0.5-0.2-1.1-0.7-1.9-1.5c-0.7-0.7-1.2-1.3-1.4-1.8
			c-0.3-0.7-0.3-1.3-0.2-1.7c0,0,0.3-0.4,0.8-1.1c0.2-0.3,0.4-0.5,0.7-0.6c0.2-0.1,0.5-0.2,1.1-0.3c0.3,0,0.6-0.1,1-0.2
			c0.6-0.3,1.6-0.2,2.9,0.1c1.3,0.3,2.7,0.9,4,1.6C443.7,182,444.1,182.3,444.3,182.7C444.3,182.6,444.3,182.6,444.3,182.7z
			 M442.3,183.7c-0.9-0.3-1.9-0.4-3.2-0.4c-1.5,0-2.5,0.1-3.1,0.3c-0.7,0.3-1,0.5-0.9,0.8c0.1,0.3,0.5,0.7,1,1c1,0.6,2.3,0.9,4,0.9
			C440.7,185.3,441.4,184.4,442.3,183.7z"/>
		<path class="st11" d="M452.9,190.5l2.1,2.2c0.3,0.3,0.4,0.5,0.4,0.5c0,0.1,0,0.2-0.1,0.4c-0.1,0.1-0.2,0.2-0.3,0.3
			c-0.3,0.1-0.8,0.1-1.6,0.1s-3.2-0.2-7.4-0.5c-2.8-0.2-4.6-0.2-5.4,0.1c-0.6,0.2-0.8,0.5-0.7,1c0.2,0.6,0.9,1.3,2.1,1.9
			c0.5,0.2,0.7,0.4,0.7,0.5c0,0.1,0,0.2-0.1,0.4c-0.1,0.2-0.2,0.3-0.3,0.3c-0.7,0.2-1.8-0.2-3.3-1.2c-0.6-0.4-1.1-0.8-1.7-1.4
			c-0.5-0.6-0.9-1-1-1.3c-0.1-0.2,0-0.4,0.1-0.6s0.2-0.6,0.3-1c0-0.4,0.1-0.7,0.2-0.9s0.2-0.3,0.2-0.4l0.9-0.2
			c0.1,0,0.1-0.1,0.2-0.1s0.2-0.1,0.2-0.1c0,0,0.3-0.1,1-0.2c0.6-0.1,1.7-0.1,3.1,0l5.6,0.3c1.7,0.1,2.7,0.1,3-0.1l1-0.4
			C452.4,190,452.6,190.2,452.9,190.5z"/>
	</g>
	<g>
		<g>
			<path class="st0" d="M237.5,10.6c-5.1-0.3-10.3-0.5-15.5-0.5s-10.4,0.2-15.5,0.5H237.5z"/>
			<path class="st0" d="M222,10.1c-5.2,0-10.4,0.2-15.5,0.5h31.1C232.4,10.3,227.2,10.1,222,10.1L222,10.1z"/>
		</g>
		<path class="st12" d="M-16.3,223.9"/>
		<g>
			<path d="M35.3,255.2l16.5-0.5l0.1,2.2l-16.5,0.5L35.3,255.2z"/>
			<path d="M35.5,261.8l16.4-1.4l0.2,2.2L40,272.3l12.9-1.1l0.2,2.1l-16.4,1.4l-0.2-2.2l12.1-9.7l-12.9,1.1L35.5,261.8z"/>
			<path d="M37.9,283.3l14.3-2.3l-0.9-5.4l1.9-0.3l2.1,12.9l-1.9,0.3l-0.9-5.4l-14.3,2.3L37.9,283.3z"/>
			<path d="M39.7,293.7l16-3.8l2.7,11.6l-1.9,0.4l-2.2-9.5l-4.9,1.2l2.1,8.9l-1.9,0.4l-2.1-8.9l-5.5,1.3l2.3,9.8l-1.9,0.4
				L39.7,293.7z"/>
			<path d="M52.1,314.7l1.8-0.6l2.2,6.6l-5.8,1.9c-1.1-0.8-2.1-1.6-2.9-2.6s-1.3-2-1.7-3.1c-0.5-1.5-0.6-3-0.4-4.5s0.9-2.7,1.9-3.8
				s2.3-1.8,3.9-2.3c1.5-0.5,3-0.6,4.6-0.4c1.5,0.2,2.8,0.8,3.8,1.8c1,1,1.8,2.3,2.3,3.8c0.4,1.1,0.5,2.2,0.4,3.2
				c-0.1,1-0.3,1.9-0.8,2.7c-0.5,0.7-1.2,1.4-2.2,2l-1.1-1.7c0.7-0.5,1.3-1,1.6-1.5c0.3-0.5,0.5-1.1,0.6-1.9c0.1-0.7,0-1.5-0.3-2.3
				c-0.3-0.9-0.7-1.7-1.2-2.3c-0.5-0.6-1.1-1-1.7-1.3c-0.6-0.3-1.2-0.4-1.9-0.5c-1.1-0.1-2.2,0.1-3.3,0.4c-1.4,0.5-2.5,1.1-3.3,1.9
				c-0.8,0.8-1.3,1.7-1.4,2.8c-0.2,1.1-0.1,2.1,0.3,3.1c0.3,0.9,0.7,1.7,1.4,2.5c0.6,0.7,1.2,1.3,1.7,1.6l2.9-0.9L52.1,314.7z"/>
			<path d="M49.6,327.2l15.2-6.4l2.8,6.7c0.6,1.4,0.9,2.4,0.9,3.3c0,0.8-0.2,1.6-0.7,2.3c-0.5,0.7-1.2,1.2-2,1.6
				c-1.1,0.5-2.1,0.5-3.2,0.1c-1-0.4-2-1.3-2.8-2.6c0,0.6-0.1,1.1-0.2,1.5c-0.3,0.8-0.7,1.7-1.3,2.5l-3,4.4l-1.1-2.5l2.3-3.3
				c0.7-1,1.2-1.7,1.5-2.3c0.3-0.6,0.5-1.1,0.6-1.4c0.1-0.4,0.1-0.7,0-1.1c0-0.2-0.2-0.6-0.4-1.1l-1-2.3l-6.7,2.8L49.6,327.2z
				 M58.9,325.6l1.8,4.3c0.4,0.9,0.8,1.6,1.2,2c0.4,0.4,0.9,0.7,1.4,0.8s1,0,1.5-0.2c0.7-0.3,1.2-0.8,1.4-1.5s0.1-1.6-0.3-2.8
				l-2-4.8L58.9,325.6z"/>
			<path d="M56.7,343.2l14.8-7.3l1,2l-14.8,7.3L56.7,343.2z"/>
			<path d="M61.6,352.7l12.7-7l-2.6-4.7l1.7-0.9l6.3,11.4l-1.7,0.9l-2.6-4.8l-12.7,7L61.6,352.7z"/>
			<path d="M69.3,365.8l5.8-3.8l4.5-10.5l1.4,2.2l-2.4,5.4c-0.5,1-0.9,2-1.4,2.9c1-0.1,2.1-0.1,3.4-0.1l5.8,0l1.4,2.1l-11.5-0.3
				l-5.8,3.8L69.3,365.8z"/>
			<path d="M93.6,384.8c0.6-0.5,1.3-0.8,2.1-0.7c0.8,0,1.4,0.4,2,0.9c0.5,0.6,0.8,1.3,0.7,2.1c0,0.8-0.4,1.4-0.9,2
				c-0.6,0.5-1.3,0.8-2.1,0.7c-0.8,0-1.4-0.4-2-1c-0.5-0.6-0.8-1.3-0.7-2.1C92.7,386,93,385.3,93.6,384.8z"/>
			<path d="M108,410.9l10.6-12.6l1.7,1.4l-9.4,11.1l6.2,5.2l-1.3,1.5L108,410.9z"/>
			<path d="M118.6,419.6l10-13.1l1.7,1.3l-10,13.1L118.6,419.6z"/>
			<path d="M123.9,423.6l9.4-13.5l9.1,6.3l-1.1,1.6l-7.3-5.1l-2.9,4.2l6.4,4.4l-1.1,1.6l-6.4-4.4l-4.3,6.2L123.9,423.6z"/>
			<path d="M136.1,431.9l8.4-14.2l10.3,6l-1,1.7l-8.4-4.9l-2.6,4.3l7.8,4.6l-1,1.7l-7.8-4.6l-2.8,4.8l8.7,5.1l-1,1.7L136.1,431.9z"
				/>
			<path d="M149.8,439.8l7.4-14.7l1.9,1l-6.5,13l7.3,3.6l-0.9,1.7L149.8,439.8z"/>
			<path d="M164.5,438.2c1-2.5,2.5-4.2,4.5-5.1c1.9-0.9,4-0.9,6.1,0c1.4,0.6,2.5,1.4,3.4,2.6s1.3,2.4,1.4,3.9
				c0.1,1.4-0.2,2.9-0.8,4.5c-0.6,1.5-1.5,2.8-2.6,3.8s-2.4,1.5-3.8,1.7c-1.4,0.2-2.8,0-4.1-0.6c-1.4-0.6-2.6-1.5-3.4-2.6
				c-0.8-1.2-1.3-2.5-1.4-3.9C163.7,440.9,164,439.5,164.5,438.2z M166.6,439c-0.8,1.8-0.9,3.5-0.3,4.9c0.6,1.5,1.6,2.5,3.1,3.1
				c1.5,0.6,3,0.6,4.4-0.1s2.5-2,3.3-3.9c0.5-1.2,0.7-2.4,0.7-3.5c0-1.1-0.4-2.1-1-2.9s-1.4-1.5-2.4-1.9c-1.4-0.6-2.9-0.6-4.3,0
				C168.7,435.3,167.5,436.7,166.6,439z"/>
			<path d="M179.5,452.7l4.9-15.7l2.1,0.7l4.4,14.9l3.9-12.3l2,0.6l-4.9,15.7l-2.1-0.7l-4.4-14.9l-3.9,12.3L179.5,452.7z"/>
			<path d="M205.1,453.2l0.4-1.9l6.8,1.5l-1.3,6c-1.2,0.6-2.4,1-3.7,1.2c-1.2,0.2-2.4,0.1-3.6-0.1c-1.6-0.4-2.9-1-4.1-2
				c-1.1-1-1.9-2.2-2.3-3.6c-0.4-1.4-0.4-2.9,0-4.5c0.3-1.6,1-3,2-4.2c1-1.2,2.1-2,3.5-2.4c1.4-0.4,2.9-0.4,4.5,0
				c1.2,0.3,2.2,0.7,3,1.3c0.9,0.6,1.5,1.3,1.9,2.1s0.6,1.8,0.6,2.9l-2,0.1c-0.1-0.9-0.2-1.6-0.5-2.1c-0.3-0.5-0.7-1-1.3-1.5
				c-0.6-0.4-1.3-0.7-2.1-0.9c-1-0.2-1.8-0.3-2.6-0.1c-0.8,0.1-1.4,0.4-2,0.8c-0.5,0.4-1,0.8-1.4,1.4c-0.6,0.9-1.1,1.9-1.3,3.1
				c-0.3,1.4-0.3,2.7-0.1,3.8c0.3,1.1,0.8,2,1.7,2.6c0.8,0.7,1.8,1.1,2.8,1.4c0.9,0.2,1.9,0.2,2.8,0.1c1-0.2,1.7-0.4,2.2-0.7l0.7-3
				L205.1,453.2z"/>
			<path d="M261.1,464.3l-1.2-16.4l2.2-0.2l1,14.5l8.1-0.6l0.1,1.9L261.1,464.3z"/>
			<path d="M274.7,463.2l-2.3-16.3l11.8-1.7l0.3,1.9l-9.6,1.4l0.7,5l9-1.3l0.3,1.9l-9,1.3l0.8,5.5l10-1.4l0.3,1.9L274.7,463.2z"/>
			<path d="M288.8,461.2l2.6-17.4l2.3-0.5l10.1,14.6l-2.4,0.5l-2.9-4.5l-6.7,1.5l-0.7,5.3L288.8,461.2z M292,453.5l5.5-1.2l-2.7-4.1
				c-0.8-1.2-1.4-2.3-1.9-3.1c0,1.1,0,2.2-0.2,3.3L292,453.5z"/>
			<path d="M306.4,457.2l-4.8-15.8l7-2.1c1.4-0.4,2.5-0.6,3.3-0.5c0.8,0.1,1.6,0.4,2.2,1s1.1,1.3,1.4,2.2c0.3,1.1,0.3,2.2-0.2,3.2
				c-0.5,1-1.5,1.8-2.9,2.5c0.6,0.1,1.1,0.2,1.5,0.4c0.8,0.4,1.6,0.9,2.4,1.6l4,3.5l-2.6,0.8l-3.1-2.6c-0.9-0.8-1.6-1.3-2.2-1.7
				c-0.5-0.4-1-0.6-1.4-0.7c-0.4-0.1-0.7-0.1-1.1-0.1c-0.3,0-0.6,0.1-1.2,0.3l-2.4,0.7l2.1,7L306.4,457.2z M305.8,447.7l4.5-1.4
				c1-0.3,1.7-0.6,2.1-1s0.8-0.8,0.9-1.3c0.1-0.5,0.1-1,0-1.5c-0.2-0.7-0.7-1.3-1.4-1.6c-0.7-0.3-1.6-0.3-2.8,0.1l-5,1.5
				L305.8,447.7z"/>
			<path d="M322.9,451.9l-6.1-15.3l2.1-0.8l12.8,8.8l-4.8-12l1.9-0.8l6.1,15.3l-2.1,0.8l-12.8-8.9l4.8,12L322.9,451.9z"/>
			<path d="M339.2,445.2l-6.9-14.9l2-0.9l6.9,14.9L339.2,445.2z"/>
			<path d="M345.1,442.5l-7.7-14.5l2-1.1l13.7,7.3l-6.1-11.4l1.8-1l7.7,14.5l-2,1.1l-13.7-7.4l6.1,11.4L345.1,442.5z"/>
			<path d="M363.5,424.5l-1-1.6l5.9-3.8l3.3,5.1c-0.4,1.3-1,2.4-1.7,3.4c-0.7,1-1.6,1.8-2.6,2.4c-1.4,0.9-2.8,1.4-4.3,1.5
				s-2.9-0.2-4.1-0.9c-1.3-0.7-2.4-1.8-3.2-3.1c-0.9-1.3-1.4-2.8-1.6-4.3c-0.2-1.5,0.1-2.9,0.7-4.2c0.7-1.2,1.7-2.3,3.1-3.2
				c1-0.6,2-1.1,3-1.3s1.9-0.2,2.8,0.1c0.8,0.3,1.7,0.8,2.5,1.6l-1.4,1.5c-0.7-0.6-1.3-1-1.8-1.2c-0.6-0.2-1.2-0.2-1.9-0.1
				c-0.7,0.1-1.4,0.4-2.1,0.9c-0.8,0.5-1.5,1.1-1.9,1.8s-0.7,1.3-0.8,2c-0.1,0.7-0.1,1.3,0,1.9c0.2,1.1,0.6,2.1,1.3,3.1
				c0.8,1.2,1.7,2.1,2.6,2.7s2,0.8,3,0.7c1.1-0.1,2.1-0.5,3-1.1c0.8-0.5,1.5-1.2,2-2c0.6-0.8,0.9-1.5,1.1-2.1l-1.7-2.6L363.5,424.5z
				"/>
			<path d="M385.9,405.7c-0.5-0.6-0.8-1.3-0.7-2.1c0-0.8,0.4-1.4,0.9-2c0.6-0.5,1.3-0.8,2.1-0.7c0.8,0,1.4,0.4,2,0.9
				s0.8,1.3,0.7,2.1c0,0.8-0.4,1.4-0.9,2c-0.6,0.5-1.3,0.8-2.1,0.7C387,406.6,386.4,406.2,385.9,405.7z"/>
			<path d="M407.5,396l-12.4-10.9l7.9-8.9l1.5,1.3l-6.4,7.3l3.8,3.3l6-6.8l1.4,1.3l-6,6.8l4.2,3.7l6.7-7.6l1.5,1.3L407.5,396z"/>
			<path d="M417,385.1l-3-10.3l-9.7-0.3l1.6-2.1l5.2,0.2c1.1,0,1.9,0.1,2.4,0.2c-0.3-0.7-0.5-1.4-0.7-2.2l-1.5-5.3l1.4-1.9l2.7,9.3
				l10.7,0.3l-1.6,2.1l-7.2-0.2c-0.4,0-0.8,0-1.3-0.1c0.3,0.7,0.4,1.1,0.5,1.4l2.1,6.8L417,385.1z"/>
			<path d="M429.1,357.9l1.6-1.5c1.3,1.3,2,2.8,2.1,4.3c0.2,1.5-0.2,3-1.2,4.4c-1,1.5-2,2.5-3.2,3.1c-1.2,0.5-2.5,0.7-4,0.4
				s-2.9-0.8-4.2-1.6c-1.4-0.9-2.5-2-3.2-3.2s-1-2.5-0.9-3.9c0.1-1.4,0.5-2.7,1.3-3.9c0.9-1.4,2-2.3,3.3-2.8
				c1.3-0.5,2.7-0.5,4.2-0.1l-0.7,2.1c-1.2-0.3-2.2-0.3-3.1,0c-0.9,0.3-1.6,0.9-2.2,1.9c-0.7,1.1-1,2.1-0.9,3.2c0.1,1,0.4,2,1.1,2.8
				c0.7,0.8,1.5,1.6,2.4,2.1c1.2,0.8,2.3,1.2,3.4,1.5s2.1,0.1,3-0.3c0.9-0.4,1.6-1.1,2.2-1.9c0.7-1,0.9-2.1,0.8-3.2
				C430.7,359.9,430.1,358.9,429.1,357.9z"/>
			<path d="M436.9,356.1l-14.5-7.8l5.6-10.5l1.7,0.9l-4.6,8.6l4.4,2.4l4.3-8l1.7,0.9l-4.3,8l4.9,2.6l4.8-8.9l1.7,0.9L436.9,356.1z"
				/>
			<path d="M444.2,342l-15-6.8l0.9-2l13.2,6l3.3-7.4l1.8,0.8L444.2,342z"/>
			<path d="M449.6,329.7l-15.4-5.8l0.8-2l13.6,5.1l2.9-7.6l1.8,0.7L449.6,329.7z"/>
			<path d="M454.3,316.9l-15.8-4.7l3.4-11.4l1.9,0.6l-2.8,9.3l4.8,1.4l2.6-8.7l1.9,0.6l-2.6,8.7l5.4,1.6l2.9-9.7l1.9,0.6
				L454.3,316.9z"/>
			<path d="M458.8,301.4l-16.1-3.5l0.5-2.2l14.5-5.7l-12.6-2.7l0.4-2l16.1,3.5l-0.5,2.2l-14.5,5.7l12.6,2.7L458.8,301.4z"/>
			<path d="M458.1,271.9l0.8-2.1c1.7,0.7,3,1.7,3.7,3s1.1,2.8,0.8,4.5c-0.2,1.8-0.8,3.1-1.6,4.2c-0.9,1-2,1.7-3.4,2.1
				s-2.9,0.5-4.5,0.3c-1.7-0.2-3.1-0.7-4.3-1.6s-2-1.9-2.5-3.2s-0.7-2.6-0.5-4.1c0.2-1.6,0.8-3,1.8-4c1-1,2.2-1.6,3.8-1.9l0.2,2.2
				c-1.2,0.2-2.2,0.7-2.8,1.3c-0.6,0.6-1,1.5-1.2,2.6c-0.2,1.3,0,2.3,0.5,3.3c0.5,0.9,1.2,1.6,2.2,2.1c1,0.5,2,0.8,3.1,0.9
				c1.4,0.2,2.6,0.1,3.7-0.1c1.1-0.3,1.9-0.8,2.6-1.6c0.6-0.8,1-1.7,1.1-2.7c0.2-1.2-0.1-2.3-0.6-3.2S459.4,272.4,458.1,271.9z"/>
			<path d="M464.3,267l-16.4-0.9l0.6-11.9l1.9,0.1l-0.5,9.7l5,0.3l0.5-9.1l1.9,0.1l-0.5,9.1l5.6,0.3l0.5-10.1l1.9,0.1L464.3,267z"/>
		</g>
	</g>
	<circle cx="387.9" cy="403.9" r="5.6"/>
	<circle cx="95.3" cy="387" r="5.6"/>
	<g>
		<g>
			<path class="st0" d="M237.1,378.6c-0.7,0-1.6,0-2.1-0.1c-0.3,0-0.3-0.1-0.3-0.1c0,0,0,0,0,0c0,0,0,0,0.1,0
				c0.1-0.1,0.1-0.3,0.1-0.5l0,0l-0.6-6.3c0,0,0,0,0,0c0,0,0,0,0,0c0,0,0,0,0,0l-3,6.3c-0.3,0.5-0.3,0.6-0.4,0.6
				c-0.1,0-0.1-0.1-0.4-0.5c-0.1-0.2-0.5-0.9-1.4-2.7c0,0,0-0.1,0-0.1c-0.1-0.2-1.5-3.2-1.6-3.5c0,0,0,0,0,0c0,0,0,0,0,0
				c0,0,0,0,0,0l-0.5,5.7l0,0.1c0,0.2,0,0.3,0,0.5c0,0.3,0.1,0.5,0.3,0.5c0.2,0,0.4,0,0.4,0c0.1,0,0.1,0,0.1,0c0,0,0,0-0.2,0
				c-0.3,0-0.7,0-0.9,0c-0.1,0-0.2,0-0.2,0c0,0-0.1,0-0.3,0c-0.2,0-0.5,0-0.7,0c-0.2,0-0.2,0-0.2,0c0,0,0,0,0.1,0c0.1,0,0.2,0,0.4,0
				c0.4-0.1,0.4-0.6,0.5-1l0-0.1l0.9-7.7c0-0.3,0.1-0.3,0.2-0.3c0,0,0.1,0.1,0.2,0.3l3.6,7.4c0,0,0,0,0,0c0,0,0,0,0,0c0,0,0,0,0,0
				l3.5-7.4c0.1-0.2,0.2-0.3,0.2-0.3c0,0,0.1,0,0.1,0.3l0.8,7.4c0,0.4,0.1,1.2,0.7,1.4C236.7,378.6,237,378.6,237.1,378.6
				c0.1-0.1,0.2-0.1,0.2,0C237.2,378.6,237.2,378.6,237.1,378.6"/>
			<path class="st0" d="M227,378.5c-0.2-0.1-0.4-0.2-0.4-0.3c-0.1,0.1-0.2,0.2-0.5,0.3c-0.3,0.1-0.6,0.1-0.8,0.1c0,0,0,0,0,0
				c0,0,0,0,0.2,0c0.3,0,0.9,0,1,0c0.1,0,0.7,0,1.2,0c0.1,0,0.2,0,0.2,0C227.5,378.6,227.2,378.6,227,378.5"/>
			<path class="st0" d="M236,378.4c-0.3-0.1-0.5-0.3-0.7-0.4c-0.1,0.1-0.2,0.3-0.3,0.4c-0.1,0-0.2,0.1-0.3,0.1c0,0,0,0,0,0
				c0,0,0.1,0.1,0.3,0.1c0.5,0,1.4,0.1,2.1,0.1c0.1,0,0.2,0,0.2,0C236.8,378.6,236.4,378.6,236,378.4"/>
			<path class="st0" d="M227.4,370.7c0,0-0.2-1.1-0.2-1.3c-0.1,0-0.1,0.1-0.1,0.3l-0.9,7.7c-0.1,0.5-0.1,1-0.5,1.1
				c-0.2,0-0.3,0-0.4,0c-0.1,0-0.1,0-0.1,0c0.1,0,0.5,0,0.8-0.1c0.3-0.1,0.4-0.2,0.5-0.3c0.2-2.1,0.7-7.1,0.7-7.1
				C227.2,370.9,227.3,370.8,227.4,370.7"/>
			<path class="st0" d="M237.1,378.5c-0.1,0-0.4,0-0.7-0.1c-0.5-0.2-0.6-0.9-0.6-1.4l-0.8-7.4c0-0.3-0.1-0.3-0.1-0.3l-0.2,1.3
				l0.8,7.4c0.1,0.1,0.3,0.2,0.7,0.4c0.4,0.2,0.8,0.2,1.2,0.2C237.2,378.6,237.2,378.5,237.1,378.5"/>
			<path class="st0" d="M226.5,378.1C226.5,378.1,226.5,378.1,226.5,378.1c0.1,0.1,0.3,0.3,0.4,0.3c0.2,0.1,0.5,0.1,0.8,0.1
				c0,0,0,0-0.1,0c-0.1,0-0.2,0-0.4,0c-0.2,0-0.3-0.2-0.3-0.5c0-0.2,0-0.4,0-0.6l0.5-5.7l-0.2-0.8
				C227.2,371.1,226.7,376,226.5,378.1"/>
			<path class="st0" d="M227.4,370.7c-0.2,0.1-0.2,0.2-0.2,0.3l0.2,0.8c0.1,0.3,1.5,3.3,1.6,3.5c0.1,0.1,1.1,2.2,1.4,2.8
				c0.2,0.4,0.3,0.6,0.4,0.6l0.1-0.8L227.4,370.7"/>
			<path class="st0" d="M227.4,369.7c-0.1-0.2-0.2-0.3-0.2-0.3c0,0,0,0,0,0c0,0.2,0.2,1.3,0.2,1.3l3.4,7.1c0.1,0,0.2-0.1,0.2-0.1
				l0-0.6L227.4,369.7"/>
			<path class="st0" d="M234.5,369.7l-3.5,7.4l0,0.6c0,0,3.3-7,3.3-7c0,0,0.1-0.1,0.2-0.1l0.2-1.3
				C234.7,369.4,234.6,369.5,234.5,369.7"/>
			<path class="st0" d="M231,377.7c0,0,0,0-0.2,0.1l-0.1,0.8c0.1,0,0.1-0.1,0.4-0.6l3-6.3l0.1-0.9C234.3,370.8,231,377.7,231,377.7"
				/>
			<path class="st0" d="M234.6,370.7c-0.1,0-0.2,0-0.2,0.1l-0.1,0.9l0.6,6.3c0,0.2,0,0.4,0,0.5c0,0-0.1,0-0.1,0.1
				c0.1,0,0.3,0,0.3-0.1c0.2-0.1,0.3-0.2,0.3-0.4L234.6,370.7"/>
			<path class="st0" d="M227.4,370.7c-0.2,0.1-0.2,0.2-0.2,0.3l0.2,0.8c0.1,0.3,1.5,3.3,1.6,3.5c0.1,0.1,1.1,2.2,1.4,2.8
				c0.2,0.4,0.3,0.6,0.4,0.6l0.1-0.8L227.4,370.7"/>
			<path class="st0" d="M227.4,369.7c-0.1-0.2-0.2-0.3-0.2-0.3c0,0,0,0,0,0c0,0.2,0.2,1.3,0.2,1.3l3.4,7.1c0.1,0,0.2-0.1,0.2-0.1
				l0-0.6L227.4,369.7"/>
			<path class="st0" d="M234.6,370.7c-0.1,0-0.2,0-0.2,0.1l-0.1,0.9l0.6,6.3c0,0,0,0.1,0,0.1h0.5L234.6,370.7"/>
			<path class="st0" d="M235.7,377.1l-0.8-7.4c0-0.3-0.1-0.3-0.1-0.3l-0.2,1.3l0.8,7.4h0.6C235.8,377.8,235.7,377.4,235.7,377.1"/>
			<path class="st0" d="M226.9,378c0-0.2,0-0.4,0-0.6l0.5-5.7l-0.2-0.8c0,0.1-0.5,5-0.7,7.1h0.4C226.9,378.1,226.9,378,226.9,378"/>
			<path class="st0" d="M226.2,377.4c0,0.3-0.1,0.5-0.1,0.7h0.4c0.2-2.1,0.7-6.9,0.7-7.1h-0.3L226.2,377.4"/>
			<path class="st0" d="M237.1,378.5c-0.1,0-0.4,0-0.7-0.1c-0.2-0.1-0.3-0.2-0.4-0.4h-0.6l0,0c0.1,0.1,0.3,0.2,0.7,0.4
				c0.4,0.2,0.8,0.2,1.2,0.1C237.2,378.6,237.2,378.5,237.1,378.5"/>
			<path class="st0" d="M227.7,378.5c-0.1,0-0.2,0-0.4,0c-0.1,0-0.3-0.2-0.3-0.4h-0.4c0,0,0,0,0,0c0,0,0,0,0,0
				c0.1,0.1,0.3,0.3,0.4,0.3c0.2,0.1,0.5,0.1,0.8,0.1C227.8,378.6,227.7,378.5,227.7,378.5"/>
			<path class="st0" d="M227.4,370.7c0,0-0.2-1.1-0.2-1.3c-0.1,0-0.1,0.1-0.1,0.3l-0.1,1.3h0.3c0,0,0,0,0,0
				C227.2,370.9,227.3,370.8,227.4,370.7"/>
			<path class="st0" d="M227,378.5c-0.2-0.1-0.4-0.2-0.4-0.3c-0.1,0.1-0.2,0.2-0.5,0.3c-0.3,0.1-0.6,0.1-0.8,0.1c0,0,0,0,0,0
				c0,0,0,0,0.2,0c0.3,0,0.9,0,1,0c0.1,0,0.7,0,1.2,0c0.1,0,0.2,0,0.2,0C227.5,378.6,227.2,378.6,227,378.5"/>
			<path class="st0" d="M236,378.4c-0.3-0.1-0.5-0.3-0.7-0.4c-0.1,0.1-0.2,0.3-0.3,0.4c-0.1,0-0.2,0.1-0.3,0.1c0,0,0,0,0,0
				c0,0,0.1,0.1,0.3,0.1c0.5,0,1.4,0.1,2.1,0.1c0.1,0,0.2,0,0.2,0C236.8,378.6,236.4,378.6,236,378.4"/>
			<path class="st0" d="M234.6,370.7c-0.1,0-0.2,0-0.2,0.1l-0.1,0.9l0,0h0.5L234.6,370.7"/>
			<path class="st0" d="M231.1,377.1l0,0.6c0,0,0.2-0.4,0.5-1l-0.2-0.2L231.1,377.1"/>
			<path class="st0" d="M234.6,370.7l0.2-1.3c-0.1,0-0.1,0.1-0.2,0.3l-0.4,0.9l0.2,0.2c0,0,0-0.1,0-0.1
				C234.4,370.7,234.5,370.7,234.6,370.7"/>
			<path class="st0" d="M231,377.7c0,0,0,0-0.2,0.1l-0.1,0.8c0.1,0,0.1-0.1,0.4-0.6l2.8-5.9l-0.2-0.2
				C232.9,373.8,231,377.7,231,377.7"/>
			<path class="st0" d="M234.3,370.7c0,0-0.2,0.4-0.5,1.1l0.2,0.2l0.2-0.4L234.3,370.7"/>
			<path class="st0" d="M235.7,377.1l-0.8-7.4c0-0.3-0.1-0.3-0.1-0.3l-0.2,1.3l0.8,7.4h0.6C235.8,377.8,235.7,377.4,235.7,377.1"/>
			<path class="st0" d="M226.9,378c0-0.2,0-0.4,0-0.6l0.5-5.7l-0.2-0.8c0,0.1-0.5,5-0.7,7.1h0.4C226.9,378.1,226.9,378,226.9,378"/>
			<path class="st0" d="M227.4,370.7c0,0-0.2-1.1-0.2-1.3c-0.1,0-0.1,0.1-0.1,0.3l-0.9,7.7c-0.1,0.5-0.1,1-0.5,1.1
				c-0.2,0-0.3,0-0.4,0c-0.1,0-0.1,0-0.1,0c0.1,0,0.5,0,0.8-0.1c0.3-0.1,0.4-0.2,0.5-0.3c0.2-2.1,0.7-7.1,0.7-7.1
				C227.2,370.9,227.3,370.8,227.4,370.7"/>
			<path class="st0" d="M227.4,370.7c-0.2,0.1-0.2,0.2-0.2,0.3l0.2,0.8c0.1,0.3,1.5,3.3,1.6,3.5c0.1,0.1,1.1,2.2,1.4,2.8
				c0.2,0.4,0.3,0.6,0.4,0.6l0.1-0.8L227.4,370.7"/>
			<path class="st0" d="M227.4,369.7c-0.1-0.2-0.2-0.3-0.2-0.3c0,0,0,0,0,0c0,0.2,0.2,1.3,0.2,1.3l3.4,7.1c0.1,0,0.2-0.1,0.2-0.1
				l0-0.6L227.4,369.7"/>
			<path class="st0" d="M234.3,370.7c0,0-3.3,7-3.3,7l0.3,0l2.9-6.1L234.3,370.7"/>
			<path class="st0" d="M234.5,369.7l-3.5,7.4l0,0.6c0,0,3.3-7,3.3-7c0,0,0.1-0.1,0.2-0.1l0.2-1.3
				C234.7,369.4,234.6,369.5,234.5,369.7"/>
			<path class="st0" d="M234.6,370.7c-0.1,0-0.2,0-0.2,0.1l-0.1,0.9l0.6,6.3c0,0.2,0,0.4,0,0.5c0,0-0.1,0-0.1,0.1
				c0.1,0,0.3,0,0.3-0.1c0.2-0.1,0.3-0.2,0.3-0.4L234.6,370.7"/>
		</g>
		<g>
			<path class="st0" d="M250.1,378.6c-0.7,0-1.6,0-2.1-0.1c-0.3,0-0.3-0.1-0.3-0.1c0,0,0,0,0,0c0,0,0,0,0.1,0
				c0.1-0.1,0.1-0.3,0.1-0.5l0,0l-0.6-6.3c0,0,0,0,0,0c0,0,0,0,0,0c0,0,0,0,0,0l-3,6.3c-0.3,0.5-0.3,0.6-0.4,0.6
				c-0.1,0-0.1-0.1-0.4-0.5c-0.1-0.2-0.5-0.9-1.4-2.7c0,0,0-0.1,0-0.1c-0.1-0.2-1.5-3.2-1.6-3.5c0,0,0,0,0,0c0,0,0,0,0,0
				c0,0,0,0,0,0l-0.5,5.7l0,0.1c0,0.2,0,0.3,0,0.5c0,0.3,0.1,0.5,0.3,0.5c0.2,0,0.4,0,0.4,0c0.1,0,0.1,0,0.1,0c0,0,0,0-0.2,0
				c-0.3,0-0.7,0-0.9,0c-0.1,0-0.2,0-0.2,0c0,0-0.1,0-0.3,0c-0.2,0-0.5,0-0.7,0c-0.2,0-0.2,0-0.2,0c0,0,0,0,0.1,0c0.1,0,0.2,0,0.4,0
				c0.4-0.1,0.4-0.6,0.5-1l0-0.1l0.9-7.7c0-0.3,0.1-0.3,0.2-0.3c0,0,0.1,0.1,0.2,0.3l3.6,7.4c0,0,0,0,0,0c0,0,0,0,0,0c0,0,0,0,0,0
				l3.5-7.4c0.1-0.2,0.2-0.3,0.2-0.3c0,0,0.1,0,0.1,0.3l0.8,7.4c0,0.4,0.1,1.2,0.7,1.4C249.7,378.6,250,378.6,250.1,378.6
				c0.1-0.1,0.2-0.1,0.2,0C250.2,378.6,250.2,378.6,250.1,378.6"/>
			<path class="st0" d="M240,378.5c-0.2-0.1-0.4-0.2-0.4-0.3c-0.1,0.1-0.2,0.2-0.5,0.3c-0.3,0.1-0.6,0.1-0.8,0.1c0,0,0,0,0,0
				c0,0,0,0,0.2,0c0.3,0,0.9,0,1,0c0.1,0,0.7,0,1.2,0c0.1,0,0.2,0,0.2,0C240.5,378.6,240.2,378.6,240,378.5"/>
			<path class="st0" d="M249,378.4c-0.3-0.1-0.5-0.3-0.7-0.4c-0.1,0.1-0.2,0.3-0.3,0.4c-0.1,0-0.2,0.1-0.3,0.1c0,0,0,0,0,0
				c0,0,0.1,0.1,0.3,0.1c0.5,0,1.4,0.1,2.1,0.1c0.1,0,0.2,0,0.2,0C249.8,378.6,249.4,378.6,249,378.4"/>
			<path class="st0" d="M240.4,370.7c0,0-0.2-1.1-0.2-1.3c-0.1,0-0.1,0.1-0.1,0.3l-0.9,7.7c-0.1,0.5-0.1,1-0.5,1.1
				c-0.2,0-0.3,0-0.4,0c-0.1,0-0.1,0-0.1,0c0.1,0,0.5,0,0.8-0.1c0.3-0.1,0.4-0.2,0.5-0.3c0.2-2.1,0.7-7.1,0.7-7.1
				C240.2,370.9,240.3,370.8,240.4,370.7"/>
			<path class="st0" d="M250.1,378.5c-0.1,0-0.4,0-0.7-0.1c-0.5-0.2-0.6-0.9-0.6-1.4l-0.8-7.4c0-0.3-0.1-0.3-0.1-0.3l-0.2,1.3
				l0.8,7.4c0.1,0.1,0.3,0.2,0.7,0.4c0.4,0.2,0.8,0.2,1.2,0.2C250.2,378.6,250.2,378.5,250.1,378.5"/>
			<path class="st0" d="M239.5,378.1C239.5,378.1,239.5,378.1,239.5,378.1c0.1,0.1,0.3,0.3,0.4,0.3c0.2,0.1,0.5,0.1,0.8,0.1
				c0,0,0,0-0.1,0c-0.1,0-0.2,0-0.4,0c-0.2,0-0.3-0.2-0.3-0.5c0-0.2,0-0.4,0-0.6l0.5-5.7l-0.2-0.8
				C240.2,371.1,239.7,376,239.5,378.1"/>
			<path class="st0" d="M240.4,370.7c-0.2,0.1-0.2,0.2-0.2,0.3l0.2,0.8c0.1,0.3,1.5,3.3,1.6,3.5c0.1,0.1,1.1,2.2,1.4,2.8
				c0.2,0.4,0.3,0.6,0.4,0.6l0.1-0.8L240.4,370.7"/>
			<path class="st0" d="M240.4,369.7c-0.1-0.2-0.2-0.3-0.2-0.3c0,0,0,0,0,0c0,0.2,0.2,1.3,0.2,1.3l3.4,7.1c0.1,0,0.2-0.1,0.2-0.1
				l0-0.6L240.4,369.7"/>
			<path class="st0" d="M247.5,369.7l-3.5,7.4l0,0.6c0,0,3.3-7,3.3-7c0,0,0.1-0.1,0.2-0.1l0.2-1.3
				C247.7,369.4,247.6,369.5,247.5,369.7"/>
			<path class="st0" d="M244,377.7c0,0,0,0-0.2,0.1l-0.1,0.8c0.1,0,0.1-0.1,0.4-0.6l3-6.3l0.1-0.9C247.3,370.8,244,377.7,244,377.7"
				/>
			<path class="st0" d="M247.6,370.7c-0.1,0-0.2,0-0.2,0.1l-0.1,0.9l0.6,6.3c0,0.2,0,0.4,0,0.5c0,0-0.1,0-0.1,0.1
				c0.1,0,0.3,0,0.3-0.1c0.2-0.1,0.3-0.2,0.3-0.4L247.6,370.7"/>
			<path class="st0" d="M240.4,370.7c-0.2,0.1-0.2,0.2-0.2,0.3l0.2,0.8c0.1,0.3,1.5,3.3,1.6,3.5c0.1,0.1,1.1,2.2,1.4,2.8
				c0.2,0.4,0.3,0.6,0.4,0.6l0.1-0.8L240.4,370.7"/>
			<path class="st0" d="M240.4,369.7c-0.1-0.2-0.2-0.3-0.2-0.3c0,0,0,0,0,0c0,0.2,0.2,1.3,0.2,1.3l3.4,7.1c0.1,0,0.2-0.1,0.2-0.1
				l0-0.6L240.4,369.7"/>
			<path class="st0" d="M247.6,370.7c-0.1,0-0.2,0-0.2,0.1l-0.1,0.9l0.6,6.3c0,0,0,0.1,0,0.1h0.5L247.6,370.7"/>
			<path class="st0" d="M248.7,377.1l-0.8-7.4c0-0.3-0.1-0.3-0.1-0.3l-0.2,1.3l0.8,7.4h0.6C248.8,377.8,248.7,377.4,248.7,377.1"/>
			<path class="st0" d="M239.9,378c0-0.2,0-0.4,0-0.6l0.5-5.7l-0.2-0.8c0,0.1-0.5,5-0.7,7.1h0.4C239.9,378.1,239.9,378,239.9,378"/>
			<path class="st0" d="M239.2,377.4c0,0.3-0.1,0.5-0.1,0.7h0.4c0.2-2.1,0.7-6.9,0.7-7.1h-0.3L239.2,377.4"/>
			<path class="st0" d="M250.1,378.5c-0.1,0-0.4,0-0.7-0.1c-0.2-0.1-0.3-0.2-0.4-0.4h-0.6l0,0c0.1,0.1,0.3,0.2,0.7,0.4
				c0.4,0.2,0.8,0.2,1.2,0.1C250.2,378.6,250.2,378.5,250.1,378.5"/>
			<path class="st0" d="M240.7,378.5c-0.1,0-0.2,0-0.4,0c-0.1,0-0.3-0.2-0.3-0.4h-0.4c0,0,0,0,0,0c0,0,0,0,0,0
				c0.1,0.1,0.3,0.3,0.4,0.3c0.2,0.1,0.5,0.1,0.8,0.1C240.8,378.6,240.7,378.5,240.7,378.5"/>
			<path class="st0" d="M240.4,370.7c0,0-0.2-1.1-0.2-1.3c-0.1,0-0.1,0.1-0.1,0.3l-0.1,1.3h0.3c0,0,0,0,0,0
				C240.2,370.9,240.3,370.8,240.4,370.7"/>
			<path class="st0" d="M240,378.5c-0.2-0.1-0.4-0.2-0.4-0.3c-0.1,0.1-0.2,0.2-0.5,0.3c-0.3,0.1-0.6,0.1-0.8,0.1c0,0,0,0,0,0
				c0,0,0,0,0.2,0c0.3,0,0.9,0,1,0c0.1,0,0.7,0,1.2,0c0.1,0,0.2,0,0.2,0C240.5,378.6,240.2,378.6,240,378.5"/>
			<path class="st0" d="M249,378.4c-0.3-0.1-0.5-0.3-0.7-0.4c-0.1,0.1-0.2,0.3-0.3,0.4c-0.1,0-0.2,0.1-0.3,0.1c0,0,0,0,0,0
				c0,0,0.1,0.1,0.3,0.1c0.5,0,1.4,0.1,2.1,0.1c0.1,0,0.2,0,0.2,0C249.8,378.6,249.4,378.6,249,378.4"/>
			<path class="st0" d="M247.6,370.7c-0.1,0-0.2,0-0.2,0.1l-0.1,0.9l0,0h0.5L247.6,370.7"/>
			<path class="st0" d="M244.1,377.1l0,0.6c0,0,0.2-0.4,0.5-1l-0.2-0.2L244.1,377.1"/>
			<path class="st0" d="M247.6,370.7l0.2-1.3c-0.1,0-0.1,0.1-0.2,0.3l-0.4,0.9l0.2,0.2c0,0,0-0.1,0-0.1
				C247.4,370.7,247.5,370.7,247.6,370.7"/>
			<path class="st0" d="M244,377.7c0,0,0,0-0.2,0.1l-0.1,0.8c0.1,0,0.1-0.1,0.4-0.6l2.8-5.9l-0.2-0.2
				C245.9,373.8,244,377.7,244,377.7"/>
			<path class="st0" d="M247.3,370.7c0,0-0.2,0.4-0.5,1.1l0.2,0.2l0.2-0.4L247.3,370.7"/>
			<path class="st0" d="M248.7,377.1l-0.8-7.4c0-0.3-0.1-0.3-0.1-0.3l-0.2,1.3l0.8,7.4h0.6C248.8,377.8,248.7,377.4,248.7,377.1"/>
			<path class="st0" d="M239.9,378c0-0.2,0-0.4,0-0.6l0.5-5.7l-0.2-0.8c0,0.1-0.5,5-0.7,7.1h0.4C239.9,378.1,239.9,378,239.9,378"/>
			<path class="st0" d="M240.4,370.7c0,0-0.2-1.1-0.2-1.3c-0.1,0-0.1,0.1-0.1,0.3l-0.9,7.7c-0.1,0.5-0.1,1-0.5,1.1
				c-0.2,0-0.3,0-0.4,0c-0.1,0-0.1,0-0.1,0c0.1,0,0.5,0,0.8-0.1c0.3-0.1,0.4-0.2,0.5-0.3c0.2-2.1,0.7-7.1,0.7-7.1
				C240.2,370.9,240.3,370.8,240.4,370.7"/>
			<path class="st0" d="M240.4,370.7c-0.2,0.1-0.2,0.2-0.2,0.3l0.2,0.8c0.1,0.3,1.5,3.3,1.6,3.5c0.1,0.1,1.1,2.2,1.4,2.8
				c0.2,0.4,0.3,0.6,0.4,0.6l0.1-0.8L240.4,370.7"/>
			<path class="st0" d="M240.4,369.7c-0.1-0.2-0.2-0.3-0.2-0.3c0,0,0,0,0,0c0,0.2,0.2,1.3,0.2,1.3l3.4,7.1c0.1,0,0.2-0.1,0.2-0.1
				l0-0.6L240.4,369.7"/>
			<path class="st0" d="M247.3,370.7c0,0-3.3,7-3.3,7l0.3,0l2.9-6.1L247.3,370.7"/>
			<path class="st0" d="M247.5,369.7l-3.5,7.4l0,0.6c0,0,3.3-7,3.3-7c0,0,0.1-0.1,0.2-0.1l0.2-1.3
				C247.7,369.4,247.6,369.5,247.5,369.7"/>
			<path class="st0" d="M247.6,370.7c-0.1,0-0.2,0-0.2,0.1l-0.1,0.9l0.6,6.3c0,0.2,0,0.4,0,0.5c0,0-0.1,0-0.1,0.1
				c0.1,0,0.3,0,0.3-0.1c0.2-0.1,0.3-0.2,0.3-0.4L247.6,370.7"/>
		</g>
		<g>
			<path class="st0" d="M254.7,378.6c-0.4,0-1,0-1.2,0c-0.1,0-0.1,0-0.2,0c0,0-0.1,0-0.2,0c-0.3,0-0.7,0-1,0c-0.2,0-0.2,0-0.2,0
				c0,0,0,0,0.1,0c0.1,0,0.3,0,0.4,0c0.3-0.1,0.3-0.5,0.3-0.8c0.1-0.5,0.1-1.4,0.1-2.6V373c0-1.9,0-2.2,0-2.6c0-0.4-0.1-0.7-0.5-0.8
				c-0.1,0-0.2,0-0.3,0c-0.1,0-0.1,0-0.1,0c0,0,0,0,0.2,0c0.4,0,0.9,0,1.2,0c0.1,0,0.1,0,0.2,0c0,0,0.1,0,0.2,0c0.3,0,0.7,0,1,0
				c0.1,0,0.2,0,0.2,0c0,0,0,0-0.1,0c-0.1,0-0.2,0-0.3,0c-0.3,0.1-0.4,0.4-0.4,0.8c0,0.4,0,0.7,0,2.6v2.1c0,1.2,0,2.1,0.1,2.6
				c0,0.3,0.1,0.7,0.5,0.8c0.2,0,0.4,0,0.5,0c0.1,0,0.1,0,0.1,0C254.9,378.6,254.9,378.6,254.7,378.6"/>
			<path class="st0" d="M254.5,369.6c-0.4,0-1.1,0-1.2,0s-0.8,0-1.4,0c-0.1,0-0.2,0-0.2,0c0.4,0,0.7,0,1,0.2
				c0.3,0.1,0.4,0.3,0.6,0.4c0.1-0.1,0.3-0.3,0.5-0.4c0.3-0.2,0.4-0.2,0.9-0.2C254.6,369.6,254.6,369.6,254.5,369.6"/>
			<path class="st0" d="M253.8,378.4c-0.3-0.1-0.4-0.3-0.5-0.4c-0.1,0.1-0.3,0.3-0.5,0.4c-0.3,0.2-0.4,0.2-0.9,0.2c0,0,0.1,0,0.2,0
				c0.4,0,1.1,0,1.2,0s0.8,0,1.4,0c0.2,0,0.2,0,0.3,0C254.3,378.6,254.1,378.6,253.8,378.4"/>
			<path class="st0" d="M254.8,378.5c-0.1,0-0.3,0-0.5,0c-0.3,0-0.4-0.2-0.4-0.5c0-0.1,0-0.2,0-0.3c-0.1-0.5-0.1-1.5-0.1-2.6V373
				c0-1.9,0-2.2,0-2.6c0-0.1,0-0.2,0-0.3c0-0.3,0.2-0.4,0.4-0.5c0.1,0,0.2,0,0.3,0c0.1,0,0.1,0,0.1,0c0,0,0,0,0,0
				c-0.4,0-0.6,0-0.9,0.2c-0.2,0.1-0.4,0.3-0.5,0.4v7.9v0c0.1,0.1,0.3,0.2,0.5,0.4c0.3,0.1,0.5,0.1,1.1,0.1c0,0,0,0,0,0
				C254.9,378.6,254.9,378.5,254.8,378.5"/>
			<path class="st0" d="M252.7,369.8c-0.3-0.1-0.5-0.2-1-0.2c0,0,0,0,0,0c0,0,0,0,0.2,0c0.2,0,0.3,0,0.3,0c0.3,0,0.4,0.2,0.5,0.5
				c0,0.1,0,0.2,0,0.3c0,0.4,0,0.7,0,2.6v2.1c0,1.2,0,2.1-0.1,2.6c0,0.1,0,0.2,0,0.3c0,0.2-0.1,0.4-0.3,0.5c-0.1,0-0.3,0-0.4,0
				c-0.1,0-0.1,0-0.1,0c0,0,0,0,0,0c0.4,0,0.6,0,0.9-0.2c0.2-0.1,0.4-0.3,0.5-0.4v0v-7.9C253.2,370,253,369.9,252.7,369.8"/>
			<path class="st0" d="M253.8,377.8c-0.1-0.5-0.1-1.5-0.1-2.6V373c0-1.9,0-2.2,0-2.6c0-0.1,0-0.2,0-0.3c0-0.2,0.1-0.3,0.2-0.4
				l-0.1-0.1c-0.1,0-0.1,0.1-0.2,0.1c-0.2,0.1-0.4,0.3-0.5,0.4v7.7L253.8,377.8C253.9,377.8,253.9,377.8,253.8,377.8"/>
			<path class="st0" d="M253.3,370.2h-0.6c0,0.1,0,0.2,0,0.3c0,0.4,0,0.7,0,2.6v2.1c0,1.2,0,2.1-0.1,2.6c0,0,0,0,0,0.1h0.6V370.2"/>
			<path class="st0" d="M254.2,369.7c0.1,0,0.2,0,0.3,0c0.1,0,0.1,0,0.1,0c0,0,0,0,0,0c-0.3,0-0.5,0-0.7,0.1l0.1,0.1
				C254.1,369.7,254.1,369.7,254.2,369.7"/>
			<path class="st0" d="M254.8,378.5c-0.1,0-0.3,0-0.5,0c-0.3,0-0.4-0.2-0.4-0.5c0-0.1,0-0.1,0-0.2h-0.6v0.2v0
				c0.1,0.1,0.3,0.2,0.5,0.4c0.3,0.1,0.5,0.1,1.1,0.1c0,0,0,0,0,0C254.9,378.6,254.9,378.5,254.8,378.5"/>
			<path class="st0" d="M254.5,369.6c-0.4,0-1.1,0-1.2,0s-0.8,0-1.4,0c-0.1,0-0.2,0-0.2,0c0.4,0,0.7,0,1,0.2
				c0.3,0.1,0.4,0.3,0.6,0.4c0.1-0.1,0.3-0.3,0.5-0.4c0.3-0.2,0.4-0.2,0.9-0.2C254.6,369.6,254.6,369.6,254.5,369.6"/>
			<path class="st0" d="M253.8,378.4c-0.3-0.1-0.4-0.3-0.5-0.4c-0.1,0.1-0.3,0.3-0.5,0.4c-0.3,0.2-0.4,0.2-0.9,0.2c0,0,0.1,0,0.2,0
				c0.4,0,1.1,0,1.2,0s0.8,0,1.4,0c0.2,0,0.2,0,0.3,0C254.3,378.6,254.1,378.6,253.8,378.4"/>
			<path class="st0" d="M253.3,370.1c-0.1-0.1-0.3-0.2-0.6-0.4c-0.3-0.1-0.5-0.2-1-0.2c0,0,0,0,0,0c0,0,0,0,0.2,0c0.2,0,0.3,0,0.3,0
				c0.3,0,0.4,0.2,0.5,0.5c0,0,0,0,0,0L253.3,370.1L253.3,370.1"/>
			<path class="st0" d="M254.8,378.5c-0.1,0-0.3,0-0.5,0c-0.3,0-0.4-0.2-0.4-0.5c0-0.1,0-0.2,0-0.3c-0.1-0.5-0.1-1.5-0.1-2.6V373
				c0-1.9,0-2.2,0-2.6c0-0.1,0-0.2,0-0.3c0-0.3,0.2-0.4,0.4-0.5c0.1,0,0.2,0,0.3,0c0.1,0,0.1,0,0.1,0c0,0,0,0,0,0
				c-0.4,0-0.6,0-0.9,0.2c-0.2,0.1-0.4,0.3-0.5,0.4v7.9v0c0.1,0.1,0.3,0.2,0.5,0.4c0.3,0.1,0.5,0.1,1.1,0.1c0,0,0,0,0,0
				C254.9,378.6,254.9,378.5,254.8,378.5"/>
			<path class="st0" d="M252.7,369.8c-0.3-0.1-0.5-0.2-1-0.2c0,0,0,0,0,0c0,0,0,0,0.2,0c0.2,0,0.3,0,0.3,0c0.3,0,0.4,0.2,0.5,0.5
				c0,0.1,0,0.2,0,0.3c0,0.4,0,0.7,0,2.6v2.1c0,1.2,0,2.1-0.1,2.6c0,0.1,0,0.2,0,0.3c0,0.2-0.1,0.4-0.3,0.5c-0.1,0-0.3,0-0.4,0
				c-0.1,0-0.1,0-0.1,0c0,0,0,0,0,0c0.4,0,0.6,0,0.9-0.2c0.2-0.1,0.4-0.3,0.5-0.4v0v-7.9C253.2,370,253,369.9,252.7,369.8"/>
		</g>
		<g>
			<path class="st0" d="M263.7,378.6c-0.7,0-1.5,0-1.9,0c-0.3,0-0.4-0.1-0.4-0.1c0,0,0,0,0.1,0c0,0,0,0,0,0c0.2-0.1,0.1-0.3,0.1-0.4
				c-0.7-1.2-1.4-2.5-2.1-3.6c0,0,0,0,0,0s0,0,0,0l-1.9,3.2c-0.1,0.2-0.3,0.5-0.2,0.7c0,0.1,0.1,0.1,0.2,0.1c0.1,0,0.2,0,0.3,0
				c0.1,0,0.1,0,0.1,0c0,0,0,0-0.2,0c-0.3,0-0.7,0-0.9,0c-0.1,0-0.2,0-0.2,0c0,0-0.1,0-0.3,0c-0.2,0-0.5,0-0.7,0c-0.2,0-0.2,0-0.2,0
				c0,0,0,0,0.1,0c0.1,0,0.3,0,0.3,0c0.4-0.1,0.8-0.6,1.1-1.1l2.2-3.4c0,0,0,0,0,0l-1.9-3.2c-0.3-0.5-0.6-1-1-1.1
				c-0.2,0-0.3,0-0.4,0c-0.1,0-0.1,0-0.1,0c0,0,0,0,0.2,0c0.2,0,0.6,0,0.9,0c0.2,0,0.3,0,0.4,0c0,0,0.1,0,0.3,0c0.3,0,0.7,0,1,0
				c0.1,0,0.2,0,0.2,0c0,0,0,0-0.1,0c-0.1,0-0.2,0-0.3,0c-0.1,0-0.2,0-0.2,0.1c-0.1,0.1,0,0.4,0.1,0.6c0.6,1.1,1.1,2,1.6,2.9
				c0,0,0,0,0,0c0,0,0,0,0,0c0,0,0,0,0,0c0.4-0.5,1.6-2.6,1.8-2.8c0.1-0.2,0.2-0.5,0.1-0.6c0-0.1-0.1-0.1-0.2-0.1
				c-0.1,0-0.3,0-0.3,0c-0.1,0-0.1,0-0.1,0c0,0,0,0,0.2,0c0.3,0,0.7,0,1,0c0.1,0,0.2,0,0.3,0c0,0,0.1,0,0.2,0c0.2,0,0.4,0,0.6,0
				c0.2,0,0.2,0,0.2,0c0,0,0,0-0.1,0c-0.1,0-0.2,0-0.3,0c-0.3,0-0.7,0.5-1,1l0,0.1l-1.9,2.9c0,0,0,0,0,0c0.1,0.1,0.2,0.4,0.5,0.8
				c0.7,1.2,1.9,3.1,2.1,3.4c0,0,0.1,0.1,0.1,0.1c0.2,0.2,0.3,0.4,0.6,0.5C263.5,378.5,263.6,378.6,263.7,378.6
				c0.1-0.1,0.2-0.1,0.2,0C263.9,378.6,263.8,378.6,263.7,378.6"/>
			<path class="st0" d="M256.8,369.8c0.3,0.1,0.5,0.3,0.7,0.4c0.1-0.1,0.2-0.3,0.4-0.4c0.2-0.1,0.4-0.1,0.8-0.1c0,0,0,0-0.2,0
				c-0.4,0-1.2,0-1.3,0c-0.1,0-1,0-1.3,0c-0.1,0-0.2,0-0.2,0C256.2,369.6,256.5,369.6,256.8,369.8"/>
			<path class="st0" d="M261.8,369.7c0.1,0.1,0.2,0.3,0.3,0.4c0.1-0.1,0.3-0.2,0.5-0.3c0.3-0.2,0.4-0.2,0.9-0.2c0,0-0.1,0-0.2,0
				c-0.3,0-0.7,0-0.8,0c-0.1,0-0.8,0-1.3,0c-0.1,0-0.2,0-0.2,0c0,0,0,0,0,0C261.4,369.6,261.7,369.6,261.8,369.7"/>
			<path class="st0" d="M257.2,378.5c-0.2-0.1-0.2-0.3-0.3-0.4c-0.2,0.1-0.3,0.2-0.6,0.4c-0.3,0.1-0.5,0.1-0.9,0.1c0,0,0,0,0,0
				c0,0,0,0,0.2,0c0.3,0,0.9,0,1,0c0.1,0,0.7,0,1.1,0c0.1,0,0.2,0,0.2,0C257.7,378.6,257.4,378.6,257.2,378.5"/>
			<path class="st0" d="M259.4,374.1l-0.2-0.1l-2.2,3.4c-0.3,0.5-0.7,1-1.1,1.1c-0.1,0-0.3,0-0.3,0c-0.1,0-0.1,0-0.1,0
				c0.3,0,0.6,0,0.9-0.1c0.3-0.1,0.5-0.3,0.6-0.4L259.4,374.1"/>
			<path class="st0" d="M259.5,374.5l-0.1-0.4l-2.4,4c0,0.1,0.1,0.2,0.3,0.4c0.2,0.1,0.5,0.1,0.7,0.1c0,0,0,0,0,0c0,0,0,0-0.1,0
				s-0.2,0-0.3,0c-0.4-0.1-0.2-0.5,0-0.8L259.5,374.5"/>
			<path class="st0" d="M257.5,370.1c-0.1-0.1-0.4-0.3-0.7-0.4c-0.3-0.1-0.7-0.2-1.1-0.2c0,0,0,0,0,0c0,0,0,0,0.1,0
				c0.1,0,0.3,0,0.4,0c0.4,0.1,0.7,0.6,1,1.1l1.9,3.2l0.2,0.1l0.1,0.4c0.7,1.2,1.4,2.4,2.1,3.6c0.1,0.2,0,0.3-0.1,0.4
				c0,0-0.1,0-0.1,0.1c0.1,0,0.2,0,0.3-0.1c0.2-0.1,0.4-0.3,0.4-0.4c0,0,0,0,0,0L257.5,370.1"/>
			<path class="st0" d="M261.8,369.7c-0.2-0.1-0.4-0.1-0.8-0.1c0,0,0,0,0.1,0c0.1,0,0.2,0,0.3,0c0.4,0,0.3,0.4,0.1,0.8
				c-0.1,0.3-1.4,2.3-1.8,2.8l0.1,0.3l2.2-3.5C262,370,262,369.9,261.8,369.7"/>
			<path class="st0" d="M263.5,369.6c-0.4,0-0.6,0-0.9,0.2c-0.2,0.1-0.4,0.2-0.5,0.3c0,0,0,0,0,0l-2.2,3.5l0.2,0.1l1.9-2.9
				c0.3-0.5,0.7-1.1,1-1.1c0.1,0,0.2,0,0.3,0C263.5,369.6,263.5,369.6,263.5,369.6C263.5,369.6,263.5,369.6,263.5,369.6"/>
			<path class="st0" d="M262.8,378.4c-0.2-0.1-0.6-0.3-0.7-0.4c0,0.1-0.2,0.3-0.4,0.4c-0.1,0.1-0.2,0.1-0.3,0.1c0,0,0,0,0,0
				c0,0,0,0.1,0.4,0.1c0.5,0,1.3,0,1.9,0c0.1,0,0.2,0,0.2,0C263.5,378.6,263.2,378.6,262.8,378.4"/>
			<path class="st0" d="M263.7,378.5c-0.1,0-0.2,0-0.4,0c-0.4-0.1-0.5-0.4-0.7-0.6c-0.3-0.3-2.3-3.8-2.5-4.2l-0.2-0.1l-0.1-0.3
				c-0.6-1-1.1-1.9-1.6-2.9c-0.1-0.1-0.4-0.7,0-0.7c0.1,0,0.2,0,0.3,0s0.1,0,0.1,0c0,0,0,0,0,0c-0.4,0-0.6,0-0.8,0.1
				c-0.2,0.1-0.3,0.3-0.4,0.4l4.7,7.9c0.1,0.1,0.5,0.3,0.7,0.4c0.3,0.1,0.6,0.2,1,0.1c0,0,0,0,0,0
				C263.9,378.6,263.8,378.5,263.7,378.5"/>
			<path class="st0" d="M259.2,374l-2.2,3.4c-0.1,0.1-0.2,0.2-0.2,0.4l0.3,0.2l2.3-3.8L259.2,374"/>
			<path class="st0" d="M257.6,377.7l1.9-3.2l-0.1-0.4l-2.3,3.7l0.3,0.2C257.5,377.9,257.5,377.8,257.6,377.7"/>
			<path class="st0" d="M262.1,370.1C262.1,370.1,262.1,370.1,262.1,370.1l-2.2,3.5l0.2,0.1l1.9-2.9c0.2-0.3,0.4-0.6,0.6-0.8h-0.3
				C262.3,370,262.2,370,262.1,370.1"/>
			<path class="st0" d="M261.7,370.1c0,0.1-0.1,0.2-0.1,0.3c-0.1,0.3-1.4,2.3-1.8,2.8l0.1,0.3l2.2-3.5L261.7,370.1"/>
			<path class="st0" d="M257.5,370.2l-0.5,0.2c0.1,0.1,0.2,0.3,0.3,0.4l1.9,3.2l0.2,0.1l0.1,0.4c0.7,1.2,1.4,2.4,2,3.5l0.5-0.2
				L257.5,370.2"/>
			<path class="st0" d="M262.7,377.9c-0.3-0.3-2.3-3.8-2.5-4.2l-0.2-0.1l-0.1-0.3c-0.6-1-1.1-1.9-1.6-2.9c0-0.1-0.2-0.4-0.2-0.5
				l-0.2-0.1c-0.2,0.1-0.2,0.3-0.3,0.4l4.6,7.9h0.7C262.7,378,262.7,377.9,262.7,377.9"/>
			<path class="st0" d="M257.9,378.5c-0.1,0-0.2,0-0.3,0c-0.3-0.1-0.2-0.3-0.1-0.5l-0.3-0.2l-0.2,0.3c0,0.1,0.1,0.2,0.3,0.4
				c0.2,0.1,0.5,0.1,0.7,0.1c0,0,0,0,0,0C258,378.6,257.9,378.5,257.9,378.5"/>
			<path class="st0" d="M256.8,369.8c0.3,0.1,0.5,0.3,0.7,0.4c0.1-0.1,0.2-0.3,0.4-0.4c0.2-0.1,0.4-0.1,0.8-0.1c0,0,0,0-0.2,0
				c-0.4,0-1.2,0-1.3,0c-0.1,0-1,0-1.3,0c-0.1,0-0.2,0-0.2,0C256.2,369.6,256.5,369.6,256.8,369.8"/>
			<path class="st0" d="M261.8,369.7c0.1,0.1,0.2,0.3,0.3,0.4c0.1-0.1,0.3-0.2,0.5-0.3c0.3-0.2,0.4-0.2,0.9-0.2c0,0-0.1,0-0.2,0
				c-0.3,0-0.7,0-0.8,0c-0.1,0-0.8,0-1.3,0c-0.1,0-0.2,0-0.2,0c0,0,0,0,0,0C261.4,369.6,261.7,369.6,261.8,369.7"/>
			<path class="st0" d="M263.5,369.6c-0.4,0-0.6,0-0.9,0.2c-0.1,0.1-0.2,0.1-0.3,0.2h0.3c0.1-0.2,0.3-0.3,0.4-0.3c0.1,0,0.2,0,0.3,0
				C263.5,369.6,263.5,369.6,263.5,369.6C263.5,369.6,263.5,369.6,263.5,369.6"/>
			<path class="st0" d="M257.5,370.1c-0.1-0.1-0.4-0.3-0.7-0.4c-0.3-0.1-0.7-0.2-1.1-0.2c0,0,0,0,0,0c0,0,0,0,0.1,0
				c0.1,0,0.3,0,0.4,0c0.3,0.1,0.5,0.3,0.7,0.7L257.5,370.1L257.5,370.1"/>
			<path class="st0" d="M263.7,378.5c-0.1,0-0.2,0-0.4,0c-0.3-0.1-0.5-0.3-0.6-0.5h-0.7l0,0.1c0.1,0.1,0.5,0.3,0.7,0.4
				c0.3,0.1,0.6,0.2,1,0.1c0,0,0,0,0,0C263.9,378.6,263.8,378.5,263.7,378.5"/>
			<path class="st0" d="M258.2,369.7c0.1,0,0.2,0,0.3,0s0.1,0,0.1,0c0,0,0,0,0,0c-0.4,0-0.6,0-0.8,0.1c0,0,0,0,0,0l0.2,0.1
				C258.1,369.7,258.1,369.7,258.2,369.7"/>
			<path class="st0" d="M257.2,378.5c-0.2-0.1-0.2-0.3-0.3-0.4c-0.2,0.1-0.3,0.2-0.6,0.4c-0.3,0.1-0.5,0.1-0.9,0.1c0,0,0,0,0,0
				c0,0,0,0,0.2,0c0.3,0,0.9,0,1,0c0.1,0,0.7,0,1.1,0c0.1,0,0.2,0,0.2,0C257.7,378.6,257.4,378.6,257.2,378.5"/>
			<path class="st0" d="M262.1,370.1c-0.1-0.1-0.2-0.2-0.3-0.4c-0.2-0.1-0.4-0.1-0.8-0.1c0,0,0,0,0.1,0c0.1,0,0.2,0,0.3,0
				c0.3,0,0.3,0.2,0.2,0.4L262.1,370.1L262.1,370.1"/>
			<polygon class="st0" points="259.4,374.1 259.2,374 258.8,374.6 259,374.8 			"/>
			<path class="st0" d="M259.8,373.2l0.1,0.3l0.5-0.7l-0.2-0.2C260,372.9,259.9,373.1,259.8,373.2"/>
			<path class="st0" d="M262.8,378.4c-0.2-0.1-0.6-0.3-0.7-0.4c0,0.1-0.2,0.3-0.4,0.4c-0.1,0.1-0.2,0.1-0.3,0.1c0,0,0,0,0,0
				c0,0,0,0.1,0.4,0.1c0.5,0,1.3,0,1.9,0c0.1,0,0.2,0,0.2,0C263.5,378.6,263.2,378.6,262.8,378.4"/>
			<path class="st0" d="M259.5,374.5l-0.1-0.4l-2.4,4c0,0.1,0.1,0.2,0.3,0.4c0.2,0.1,0.5,0.1,0.7,0.1c0,0,0,0,0,0c0,0,0,0-0.1,0
				s-0.2,0-0.3,0c-0.4-0.1-0.2-0.5,0-0.8L259.5,374.5"/>
			<path class="st0" d="M263.5,369.6c-0.4,0-0.6,0-0.9,0.2c-0.2,0.1-0.4,0.2-0.5,0.3c0,0,0,0,0,0l-2.2,3.5l0.2,0.1l1.9-2.9
				c0.3-0.5,0.7-1.1,1-1.1c0.1,0,0.2,0,0.3,0C263.5,369.6,263.5,369.6,263.5,369.6C263.5,369.6,263.5,369.6,263.5,369.6"/>
			<path class="st0" d="M257.5,370.1c-0.1-0.1-0.4-0.3-0.7-0.4c-0.3-0.1-0.7-0.2-1.1-0.2c0,0,0,0,0,0c0,0,0,0,0.1,0
				c0.1,0,0.3,0,0.4,0c0.4,0.1,0.7,0.6,1,1.1l1.9,3.2l0.2,0.1l0.1,0.4c0.7,1.2,1.4,2.4,2.1,3.6c0.1,0.2,0,0.3-0.1,0.4
				c0,0-0.1,0-0.1,0.1c0.1,0,0.2,0,0.3-0.1c0.2-0.1,0.4-0.3,0.4-0.4c0,0,0,0,0,0L257.5,370.1"/>
			<path class="st0" d="M263.7,378.5c-0.1,0-0.2,0-0.4,0c-0.4-0.1-0.5-0.4-0.7-0.6c-0.3-0.3-2.3-3.8-2.5-4.2l-0.2-0.1l-0.1-0.3
				c-0.6-1-1.1-1.9-1.6-2.9c-0.1-0.1-0.4-0.7,0-0.7c0.1,0,0.2,0,0.3,0s0.1,0,0.1,0c0,0,0,0,0,0c-0.4,0-0.6,0-0.8,0.1
				c-0.2,0.1-0.3,0.3-0.4,0.4l4.7,7.9c0.1,0.1,0.5,0.3,0.7,0.4c0.3,0.1,0.6,0.2,1,0.1c0,0,0,0,0,0
				C263.9,378.6,263.8,378.5,263.7,378.5"/>
			<path class="st0" d="M259.4,374.1l-0.2-0.1l-2.2,3.4c-0.3,0.5-0.7,1-1.1,1.1c-0.1,0-0.3,0-0.3,0c-0.1,0-0.1,0-0.1,0
				c0.3,0,0.6,0,0.9-0.1c0.3-0.1,0.5-0.3,0.6-0.4L259.4,374.1"/>
			<path class="st0" d="M261.8,369.7c-0.2-0.1-0.4-0.1-0.8-0.1c0,0,0,0,0.1,0c0.1,0,0.2,0,0.3,0c0.4,0,0.3,0.4,0.1,0.8
				c-0.1,0.3-1.4,2.3-1.8,2.8l0.1,0.3l2.2-3.5C262,370,262,369.9,261.8,369.7"/>
		</g>
	</g>
	<g>
		<path class="st1" d="M50.4,207.9c-20.5,0-37.2,6.5-37.2,14.5s16.6,14.5,37.2,14.5s37.2-6.5,37.2-14.5S70.9,207.9,50.4,207.9
			L50.4,207.9z"/>
	</g>
	<g>
		<path class="st1" d="M450.1,208.9c-20.8,0-37.7,6-37.7,13.4s16.9,13.4,37.7,13.4s37.7-6,37.7-13.4S470.9,208.9,450.1,208.9
			L450.1,208.9z"/>
	</g>
	<ellipse class="st13" cx="50.3" cy="221.5" rx="32.1" ry="9.7"/>
	<ellipse class="st13" cx="449.8" cy="222" rx="32.1" ry="9.7"/>
</g>
<g id="Layer_2">
	<g>
		<path class="st14" d="M245.3,350.6c-0.2-0.2-5.1-5.1-6.1-9.2c-1-4-5.9-60.7-6.1-63.1l0-0.5h27.2l-0.1,0.6c-0.2,2.4-6,58.1-8,63.1
			c-2,5-5.9,9-6.1,9.2l-0.4,0.4L245.3,350.6z"/>
		<path d="M259.7,278.3c0,0-6,58-8,63s-6,9-6,9s-5-5-6-9s-6.1-63-6.1-63H259.7 M260.8,277.3h-1.1h-26.1h-1.1l0.1,1.1
			c0.2,2.4,5.1,59.1,6.1,63.2c1.1,4.2,6.1,9.3,6.3,9.5l0.7,0.7l0.7-0.7c0.2-0.2,4.2-4.2,6.2-9.3c2-5.1,7.8-60.9,8.1-63.3
			L260.8,277.3L260.8,277.3z"/>
	</g>
	<line class="st15" x1="236.2" y1="296.3" x2="259.2" y2="279.3"/>
	<line class="st15" x1="236.2" y1="296.3" x2="254.2" y2="314.3"/>
	<line class="st15" x1="234.2" y1="279.3" x2="257.2" y2="297.3"/>
	<line class="st15" x1="238.2" y1="313.3" x2="257.2" y2="297.3"/>
	<line class="st15" x1="238.2" y1="313.3" x2="253.2" y2="328.3"/>
	<line class="st15" x1="254.2" y1="314.3" x2="239.2" y2="328.3"/>
	<line class="st15" x1="234.2" y1="279.3" x2="259.2" y2="279.3"/>
	<g>
		<path class="st16" d="M240.9,348.6c0,0,2.2,2.8,3.3,3.3c1.1,0.5,1.4,1.2,2.2,1.1c0.8-0.1,1.7-0.5,2.2-1.1c0.5-0.6,1.5-2.8,1.1-3.3
			s-0.8-1.1-2.2-1.1c-1.4,0-4.4-2.2-4.4-2.2s-2-1.6-2.2-2.2c-0.3-0.6-1.1-2.2,0-3.3c1.1-1.1,2.1-1.2,3.3-1.2c1.1,0,1.8,0.8,2.9,1.9
			c1.1,1.1,1.6,1.5,2.7,2.6c1.1,1.1,3.3,0,3.3,0s2.2-1.1,3.3-2.2c1.1-1.1,1.1-3.3,1.1-4.4c0-1.1-1.1-1.1-2.2-1.1s-2.2,0-3.3,1.1
			c-1.1,1.1-2.2,3.3-3.3,3.3c-1.1,0-1.8-0.4-2.9-1.5c-1.1-1.1-0.6-2.1-0.6-2.1s0-1.2,1.1-2.3c1.1-1.1,2.4-0.7,2.4-0.7s1.1,0,3.3-1.1
			c2.2-1.1,2.2-1.1,3.3-2.2c1.1-1.1,1.1-2.2,1.1-2.2s0.1-2.4,0-3.3c-0.1-0.9-0.6-1.9-1.1-2.2c-0.5-0.3-0.6-0.3-2.2,0s-2,0.3-3.3,1.1
			c-1.4,0.8-2.5,2.1-3.3,3.3c-0.8,1.1-1.1,2.5-1.1,3.3s1.2,1.3,1.5,2.4c0,1.3-1.1,2.4-1.1,1.6c0,0-0.1-1.9-0.5-2.9
			c-0.4-1-0.2-0.6-1.1-1.1c-0.9-0.5-1.4-0.4-2.2,0c-1.3,0.5-3-1.5-2.6-2.2c0-0.7,0.7-1.5,0.4-2.1c0,0-0.4-1-1.1-2.2
			c-0.7-1.2-2.1-2.9-3.3-3.3c-1.3-0.4-3.3,0-3.3,0s-1.3,0.3-2.2,1.1c-1,0.8-1.1,2.2-1.1,2.2s-0.2,0.5,0,1.1c0.2,0.6,1.1,1.1,1.1,1.1
			s0.7,0.2,2.2,0.2c1.5,0,1.3-0.3,2.3-0.2c0.9,0.1,0.9,0.3,1.1,1.1c0.2,0.8,0.4,0.9,1.1,1.1c0.7,0.2,0.8-0.1,1.1,0
			c0.3,0.1,1.5,1.3,1.5,1.3s0.2,1.1-0.3,1.9c-0.5,0.8-1.1,1.1-1.1,1.1s-1.7,0.1-2.2,0s-0.5-0.4-1.1-1.1c-0.6-0.7,0-0.2-1.1-1.1
			s-2.2-1.1-2.2-1.1s-1.5-0.1-2.2,0c-0.7,0.1-1.5,0.4-2.2,1.1c-0.8,0.7-1.1,2.2-1.1,2.2s-0.1,0.8,0,1.1c0.1,0.3,0.7,1,1.1,1.1
			c0.4,0.1,1.4,0.4,2.2,0c1.8-1.2,0.2-0.2,0,0c0.8-0.5,1.3-1.2,2.2-1.1c0.9,0.1,1.5,0.2,2.2,0c0.7-0.2,3.1-0.5,3.9-0.4
			s1.1,0.8,1.7,1.5c0.6,0.7,1.2,1,1.1,2.2s-0.4,2.1-0.9,2.4c-0.5,0.2-1.7,0.1-2.2,0.2c-0.6,0.1-1.8-0.3-2.4-0.4
			c-0.6-0.2-1.6-0.9-2.2-1.1s-2.7-0.3-3.3,0s-0.6,0.4-1.1,1.1s-1,1.6-1.1,2.2c-0.1,0.5-0.2,1.7,0,2.2c0.2,0.5,2.2,1.1,2.2,1.1
			s0.3,0.2,1.1,0c0.8-0.2,0,0,0,0s2.2-0.5,3.3-1.1c1.1-0.5,1-0.3,2.2-1.1c1.1-1.1,0.4-0.3,1.1-1.1c0.6-0.8,0.6-0.8,0.6-0.8
			s1.4-0.4,1.9-0.2c0.5,0.2,0.4,0.8,0.4,0.8s0.4,1.8,0.6,2.3c0.2,0.5,0.1,1.2-0.2,2.2c-0.2,1-0.2,1.7,0,2.2S240.9,348.6,240.9,348.6
			z"/>
		<path class="st17" d="M239.7,335.7c-0.1-0.2,0.2,0.4,1.2,1c1.1,0.7,1.8,0.9,1.8,0.9l2.2,0.6l-1.7,0.2l-2.9,1.2l-0.4,0.8l-0.7-1
			l1.2-1.6l0.1-1.1C240.5,336.8,239.6,336.1,239.7,335.7z"/>
	</g>
	<path class="st18" d="M235.7,308.1l-1.6,1.6l-0.5,1.5l0.1,1.8l0.9,1.4l1.4,0.8l1.7,0.2l1.4-0.5l1.6-1.3l1.7-1.6l1.8-1.5l1.7-1.4
		l0.8-1.1l0.2-1.2l-0.7-1.4l-1.1-1.2l-0.6-0.9l-1.7-0.4l-1.9,0.7c0,0-1.3,0.8-1.3,0.8c0,0.1-1.5,1.4-1.5,1.4L235.7,308.1z"/>
	<polygon class="st18" points="247.6,306.9 248.7,306.9 249.8,306.9 251.6,306.8 253.1,306 254.5,304.9 255.7,304.1 256.8,303 
		257.6,302.3 258.7,301.3 259.2,300 259.3,298.7 259.3,297.4 258.6,296.6 257.4,295.7 255.9,295.5 254.5,295.6 253,295.9 
		251.6,296.7 250.5,297.8 248.3,299.5 247.3,300.3 246,301.5 245.2,302.4 244.9,303.4 244.9,304 246.2,305.6 246.9,306.5 	"/>
	<radialGradient id="SVGID_1_" cx="247.8627" cy="228.7641" r="43.1373" gradientUnits="userSpaceOnUse">
		<stop  offset="2.564103e-02" style="stop-color:#E95829"/>
		<stop  offset="0.7549" style="stop-color:#E95829"/>
		<stop  offset="0.8333" style="stop-color:#E95829"/>
		<stop  offset="0.9361" style="stop-color:#DC442E"/>
		<stop  offset="1" style="stop-color:#D33532"/>
	</radialGradient>
	<path class="st19" d="M221.4,265.9l-2.5-1.8l-3.7-3.3l-3.5-3l-3-3.2l-2.8-2.8l-3.1-4.5l-2-3.5l-1.1-3.8l-1-4.5l-0.6-5.3v-4.7v-3.3
		v-4.2l0.7-2.8l0.4-1.3l1-2.6l1.3-2.8l1.6-2.6l1.7-3.1l2-3.3l2.3-3.8l1.5-1.5l2.3-2.9l1.3-1.3l2.1-2.2l1.5-1.7l2.7-3.4l1.9-1.9
		l0.9-1.1l0.5-1.1c0,0,0.3-1.4,0.4-1.5c0-0.1,0.2-2.1,0.2-2.1v-1.8v-0.9V172c0,0,1.2,1.3,1.1,1.4c0,0.1,0.8,0.9,0.8,0.9l0.5,1
		l0.5,1.1l0.6,1.1l0.7,1.8l0.7,2.3l0.1,1.6v2.2v2.6l0.3,1.2l0.4,0.6l0.8,0.2l0.8-0.3l0.4-0.8l2.2-3.1l1.1-1.3l1.8-2.4l1.3-1.7l1-1.6
		l1.1-2.3l1.4-2.6l1.6-3.9l0.9-2.6l1.3-4l0.9-3.4l1.2-4.1l0.5-2.5l0.2-0.6l0.1-0.5l1.3,3.7l0.8,2.2l0.8,1.9l1.3,2.5l1.1,2.1l1.5,2.1
		l0.9,1.4l1.4,1.4l0.9,1.4c0,0,1.1,1.3,1.1,1.3s1.5,1.7,1.5,1.7l1.2,1.7l1.5,2l1.3,1.6l2.2,2.1l2.6,2.3l2.2,2.2l3.6,3.9l3,2.8l3,3.1
		l2.8,3l2.6,3.3l1.9,2.5l1,2.2c0,0,1.2,2.3,1.2,2.5s1.4,2.5,1.4,2.5l1.6,2.8l0.7,2.9l0.6,3l0.7,3.3l0.5,4.6l0.1,2.1v2l-0.4,2.4
		l-0.5,2.2l-0.9,2.4c0,0-0.9,2.4-0.9,2.5s-1.9,3.5-1.9,3.5l-1.8,3l-1.5,2.3l-2.9,3.6l-2.3,2.4l-3.6,3.3l-3.5,2.6l-2.9,2.2l-3.2,1.9
		l-3,1.3l-3.1,1.2l-2.9,1.2l-3.8,0.6h-12.7l-11.2-0.1l-2.2-0.8l-4.5-1.5l-2.2-1l-2.1-1.1L221.4,265.9z"/>
	<g>
		<path class="st20" d="M233.2,277.5c-1.9,0-3.4-1.5-3.4-3.4s1.5-3.4,3.4-3.4h27.5c1.9,0,3.4,1.5,3.4,3.4s-1.5,3.4-3.4,3.4H233.2z"
			/>
		<path d="M260.7,271.2c1.6,0,2.9,1.3,2.9,2.9c0,1.6-1.3,2.9-2.9,2.9h-27.5c-1.6,0-2.9-1.3-2.9-2.9c0-1.6,1.3-2.9,2.9-2.9H260.7
			 M260.7,270.2h-27.5c-2.1,0-3.9,1.7-3.9,3.9s1.7,3.9,3.9,3.9h27.5c2.1,0,3.9-1.7,3.9-3.9S262.8,270.2,260.7,270.2L260.7,270.2z"/>
	</g>
	<polygon class="st18" points="237.2,297.9 236.3,298.6 234.5,298.8 233.5,298.5 231.8,298 230.9,297.6 229.5,297.1 228.7,296.5 
		227.3,295.4 227.2,294.7 227.4,293.8 227.7,293.2 228.5,292.7 229.2,292.2 229.7,291.3 230.3,290.7 230.6,290.4 231.1,289.9 
		231.4,289.6 231.9,289.4 232.4,289 233.3,289 234.1,289 234.6,289.3 235.1,289.7 235.7,290.5 236.1,291.2 236.6,291.9 237,292.4 
		237.2,293 237.5,294.1 237.5,295 237.5,296 237.5,296.8 237.5,297.4 	"/>
	<path class="st18" d="M231.1,289.9l-0.2-1.6l-0.7-1.2l-1.1-1.1v-0.9l-0.2-0.8l-0.3-0.8l-0.3-0.6l-0.4-0.6l-1.1-0.2l-1,0.4l-0.7,0.4
		l-0.3,0.3l-1.1,0.3l-0.7-0.1l-2.2,0l-0.5-0.1l-0.5-0.2c0,0-0.3,0-0.5,0.1c-0.1,0-0.2,0.1-0.2,0.1c0,0.1-0.2,0.8-0.2,0.8v0.6
		l0.3,1.2l0.4,0.6l0.3,0.9l0.3,0.3l0.1,0.6l0.2,0.8c0,0,0.2,0.3,0.2,0.4s0.2,0.9,0.3,0.9s0.4,0.5,0.4,0.5l0.3,0.3l0.3,0.4l0.7,0.6
		l0.5,0.3l0.4,0.3l0.8,0.5l0.8,0.4l0.7,0.2h0.5h0.7l0.5-0.3l0.8-0.6l0.7-0.5l0.1-0.4l0.5-0.8l0.8-0.5l0.6-0.3L231.1,289.9z"/>
	<path class="st18" d="M218.8,282.9l-0.2-1l0.1-1.2l-0.1-1.3l0.1-1v-1.1l0.1-0.8l0.2-1v-1l0.4-0.9c0,0,0.2-0.5,0.3-0.6
		s0.8-1.1,0.8-1.1l0.5-0.5h0.8l1.1,0.6c0,0,0.1,0.3,0.3,0.4s1.1,0.4,1.1,0.4s0.4,0,0.5,0s0.8,0,0.8,0l0.6,0l1-0.1l0.3,0.2l0.3,0.9
		l0.2,0.8v1.1v0.9v0.8l-0.3,0.8l-0.3,0.8l-0.1,0.8v0.8v0.8l0.3,0.5l0.1,0.5l-1,0.2l-0.9,0.3l-0.7,0.2l-0.9,0.5l-0.8,0.1l-0.7,0
		l-1.2-0.1l-1.2,0l-0.9-0.1L218.8,282.9z"/>
	<path class="st18" d="M220.5,270.8v-1.2v-0.6l0.3-0.9l0.3-1l0.3-1l0.5-0.8l0.4-1l0.4-1.2l0.7-1.1c0,0,0.3-1.1,0.3-1.3
		s0.7-1.2,0.7-1.2l0.5-0.8l0.4-0.3h1l0.9,0.4c0,0,0.4,0.6,0.6,0.7s0.5,0.5,0.5,0.5l0.8,0.3l0.5,0.3l0.5,0.4l0.8,0.4l0.5,0.3l0.4,0.1
		l0.5,1v0.8l-0.2,0.7l-0.5,0.8l-0.3,0.7l-0.8,0.5l-0.1,0.4l-0.4,0.8c0,0-0.1,0.9,0,1.1s-0.5,0.7-0.5,0.7l-0.2,0.8l-0.8,0.8
		c0,0,0.1,0.5-0.1,0.7s-0.7,0.8-0.7,0.8l-1,0.3l-0.5,0.1h-1.4l-1.1-0.2l-0.9-0.6l-1.1-0.6H221L220.5,270.8z"/>
	<path class="st18" d="M226,257.8l0.5-1.2l0.4-1.4l0.5-1.1l1.3-1.6l0.7-1.5V250l0.5-1.3l0.4-1.7l0.2-2.8v-1.5l-0.5-1.2l-0.7-1
		l-1.3-2l-1.1-1.1l-1.2-0.7l-1.2-0.8l-1.9-0.4l0.2-0.8l0.9-0.8l0.8-0.7l1.3-1.5l0.6-1.4v-1.2v-1.8l-0.5-1.3l-0.6-1.1l-1.4-1.5
		l-0.7-0.9l-0.9-1.1l-0.4-0.7l-0.5-0.6l1.3-1.2l1-0.7l2.2-1.4l1.4-1.3l1-1.2l0.8-1.1l0.4-1.7l-0.1-2.4l-0.1-2.5l-0.3-1.8l-0.2-0.9
		l1.6,1.2l0.9,0.9l1,0.5l0.6,0.1l1.1,0.1h1.2h2l1.1-0.3l1.4-0.5l1-0.5l1.3-0.9l1.3-1l1-0.8l0.8-0.9l1.1-0.8l0.8-0.8l0.9,1.8l0.9,1.8
		l1.1,1.3l1.1,0.9l1.7,1.3l1.2,0.6l2.2,0.3l1.8-0.2l1.9-0.6l1.2-0.4l0.9-0.3v2.1l0.3,2.1l1.1,2.1l1.4,1.9l1.9,1.3l2,0.9l1.8,0.5
		l1.7,0.6l-1.1,1.8l-1.1,1.8l-0.8,1.5l-0.9,1.8l-0.3,2.7l0.1,2.2l0.6,1.3l1.1,1.8c0,0,0.4,0.7,0.5,0.8s0.9,1.3,0.9,1.3l-2.1,0.4
		l-1.8,0.3l-1.6,1l-1.2,0.8l-1.1,1.1l-1,1.8l-1,1.6l-0.2,1.9l-0.3,1.3l0,2.3l-0.1,1.3l0.1,1l0.2,1.2l0.1,0.8l-1.5-1.1l-0.8-0.8
		l-1.3-0.4l-1.3-0.5l-2.7,0l-1.9-0.1l-2,0.2l-2.1,0.3l-1.9,0.2c0,0-0.9,0.5-1,0.5s-0.8,0.3-0.8,0.3l-1.3,0.6l-0.5,0.5l-1.7,1.2
		c0,0-1.8,1.1-1.9,1.2s-1.2,1.2-1.3,1.3s-1.7,1.9-1.7,1.9l-0.6,0.4l-1.1,1l-0.6,0.7l-0.7,0.6l-0.6,1v0.9l-2.2-1.3l-1.1-0.7l-1.2-0.8
		l-0.7-1.1l-0.9-0.5L226,257.8z"/>
	<polygon class="st17" points="242.7,224.2 241.4,225.6 240.7,226.9 240.2,228.9 240.4,230.7 241.3,231.5 242.1,232.3 242.7,232.8 
		243.5,233.6 244.2,234.2 244.9,234.6 246,234.6 247,234.6 247.7,234.1 248.6,233.4 249.1,232.7 249.6,232.2 249.9,231.7 
		250.5,231.2 250.8,230.3 251.3,229.6 251.6,228.7 251.6,227.8 251.6,226.9 251.3,226.3 250.9,225.5 250.3,224.8 249.7,224.2 
		249.3,223.7 248.7,223.2 248.2,223.2 247.1,223 245,223 244.2,223 243.4,223.7 	"/>
	<path class="st17" d="M104.8,226.8"/>
	<path class="st21" d="M211.1,211.8c0,0,0.3,0.8,0.5,1c0.2,0.2,0.6,1.4,0.6,1.4v1.1v1.1l0.3,0.8l0.9,0.6h0.3l2.4,2.1l5.3,0.5
		L216,220l-1.9,0.5l-1.3,1.5v2.2l0.6,1.1"/>
	<path class="st21" d="M109.8,217.9"/>
	<path class="st21" d="M117,217.5"/>
	<polyline class="st21" points="206.2,220.7 207.6,221 208.7,220.7 209.9,220 211.6,218.9 213.7,217.8 214.2,217 215.3,216 
		216.7,215.2 217.7,214 218.3,212.8 218.3,211.3 	"/>
	<path class="st21" d="M222.5,235.7c0,0-2,0.2-2.1,0.2c-0.1,0-1.6,0-1.6,0h-1.6l-1.3-0.2l-1.2-0.3l-1.2-0.3l-1-0.9l-0.4-1.2l0.3-1.3
		l0.5-0.9l-0.1-0.8l-0.6-0.9"/>
	<path class="st21" d="M208.5,231.2l0.2,0.9c0,0,0.5,0.8,0.5,0.9c0,0.1,0.4,0.8,0.5,0.9s0.7,1,0.7,1l1,0.6l0.8,0.3h1.1l0.9-0.1
		l0.5-0.2"/>
	<polyline class="st21" points="209.4,241 209,240.2 208.9,239.3 209.1,238.5 209.5,237.7 209.9,237 210.4,236.5 210.9,236 
		211.4,235.6 	"/>
	<polyline class="st21" points="222,208.7 223.2,208.1 223.6,207 223.8,205.8 223.8,204.3 223.8,203.3 224.5,202.4 224.9,202.2 
		225.7,202.4 226.4,202.8 227.1,203.2 228.2,204.1 228.5,204.2 228.8,204.4 	"/>
	<path class="st21" d="M220.1,197.4c0,0,1.9,1.5,1.9,1.4s1.4,0.6,1.4,0.6l0.9,0.6l0.8,0.6l0.8,0.9l1.3,1.7l-0.4-1v-0.8
		c0,0,0-1.2,0-1.3s0.2-1,0.2-1l0.9-0.9l1.3-0.9l1.4-1.2"/>
	<polyline class="st21" points="219.3,203.4 220.8,203.4 221.6,203.1 222.2,202.5 223,202 223.3,201.7 224.3,201.4 225.2,201.6 
		226.3,202.4 	"/>
	<path class="st21" d="M246.7,200.7l0.4-2.4l0.4-1.8l0.3-1.8v-1.2l-1.6,0.2L245,193c0,0-0.8-0.9-0.9-0.9s-1-1.6-1-1.6l-0.8-1.6"/>
	<polyline class="st21" points="254.9,190 253.6,190 252.6,190.2 250.9,191 249.8,191.8 248.7,192.7 247.8,193.5 247.6,192.8 
		247.6,191.7 247.8,190.7 248.7,188.8 249.5,187.6 	"/>
	<polyline class="st21" points="255.3,194.3 254.6,194.8 253.9,195.2 253.2,195.2 252.5,194.5 251.7,194 250.6,193.8 249.7,193.8 
		248.6,193.8 247.8,193.9 	"/>
	<path class="st21" d="M261.5,197.2l0.2,0.7l0.5,0.8c0,0,0.2,0.5,0.3,0.6s0.8,0.4,0.8,0.4l0.6,0.6c0,0,0.5,0.3,0.6,0.4
		s0.8,0.6,0.8,0.6l0.4,0.9v0.8l-0.8,1l-0.8,0.8l-0.8,0.7l-0.8,0.7l-0.8,0.9"/>
	<path class="st21" d="M269.1,195.6l-1.1,0.6l-0.6,0.3c0,0-0.8,0.8-0.8,0.8s-0.4,0.8-0.4,0.9s-0.3,0.9-0.3,0.9v0.8v0.8v1.4"/>
	<path class="st21" d="M273.3,200.2l-1.2-0.3h-1h-0.9l-0.8,0.3l-1,0.3c0,0-0.5,0.2-0.6,0.3s-0.7,0.4-0.7,0.5s-0.5,0.5-0.5,0.5
		l-0.9,0.7"/>
	<path class="st21" d="M273,207h-1.1c0,0-0.4-0.3-0.6-0.3s-0.7-0.6-0.7-0.6l-0.5-0.8l-0.5-0.3c0,0-0.6-0.6-0.8-0.6s-1.4-0.4-1.4-0.4
		h-1.2L265,204"/>
	<path class="st21" d="M280.1,207.8l-0.6,2c0,0-0.4,2-0.4,2.1s-0.3,0.8-0.4,1.1s-0.5,1.6-0.5,1.6l-0.9,1.5l-0.8,1.2l-1.4,0.4
		c0,0-0.8,0.5-1,0.6s-0.8,0.5-0.8,0.5l-1.6,0"/>
	<path class="st21" d="M272.2,211.2l0.8,0.8l0.8,0.8c0,0,0.9,0.5,1,0.6s0.5,0.4,0.7,0.6s1,1.1,1,1.1l0.5,0.6v0.8"/>
	<path class="st21" d="M284.9,218.7c-0.2,0-1.5-0.8-1.5-0.8s-0.6-0.6-0.7-0.7s-0.8-0.6-1-0.7s-0.8-0.3-0.9-0.4s-1.1-0.3-1.1-0.3
		h-0.8l-1,0.3l-0.8,0.2"/>
	<path class="st21" d="M283.5,223.5l-1.8-0.4l-0.6-1.2l-0.3-1c0,0-0.3-0.8-0.3-0.9s-0.3-0.9-0.3-0.9l-1.2-0.8l-0.9-0.2h-1.2
		l-1.7-0.3"/>
	<path class="st21" d="M278.4,245.8c0,0-1.1-1.2-1.2-1.3s-0.4-0.9-0.4-0.9v-1l0.5-0.8c0,0,0.1-0.6,0.1-0.9s0-1.1,0-1.1l-0.3-0.9
		l-0.8-0.5l-1.2-0.3l-1.8-0.6l-2.5-2"/>
	<path class="st21" d="M283,238.5c-0.1,0.1-0.8,0.8-0.8,0.8l-0.7,0.5l-0.9,0.2l-1-0.3l-0.8-0.2l-0.8-0.3l-0.8-0.3"/>
	<path class="st21" d="M283,231.5l-0.2,1.1c0,0,0.1,0.5,0,0.7s-0.4,1-0.5,1.1s-0.4,0.6-0.4,0.6l-0.7,0.7c0,0-1.1,0.6-1.2,0.7
		s-1.4,0.8-1.4,0.8l-0.8,0.6l-0.9,0.2l-0.8,0.4l-0.8,0.1"/>
	<path class="st21" d="M276.1,229.9l0.5,1v0.8c0,0,0,1.1,0,1.3s-0.5,1.2-0.5,1.2s0,1,0,1.2s0.2,1.1,0.2,1.1l0.2,0.9l0.1,0.7
		l-0.5,0.3"/>
	<polyline class="st21" points="260.5,252.1 261.2,253.1 261.7,253.9 262.7,255.3 263.5,256 264.5,256.6 265.5,256.6 266.1,256 
		266.1,255 266.1,253.5 265.8,252.1 265.8,251.2 266.1,249.9 266.4,249 267.1,248.5 	"/>
	<polyline class="st21" points="259.9,264 261,263.2 261.9,262.3 262.7,261.2 263.5,260 263.8,259 263.8,257.7 263.5,256 
		263.9,256.7 264.6,257.6 265.7,258 267.3,258 268.5,257.8 269.6,257.5 270.3,256.9 271.2,256.3 272.3,255.5 	"/>
	<path class="st21" d="M268.3,261.5c-0.2,0-2.1-0.7-2.1-0.7l-0.7-0.8l-0.6-1.1l-0.6-1.9"/>
</g>
</svg>
