<svg xmlns="http://www.w3.org/2000/svg" viewBox="0 0 355.73 532.98"><defs><style>.cls-1{fill:#fbb03b;stroke:#fbb03b;}.cls-1,.cls-10,.cls-11,.cls-14,.cls-15,.cls-18,.cls-19,.cls-2,.cls-21,.cls-22,.cls-23,.cls-24,.cls-3,.cls-4,.cls-5,.cls-6,.cls-7,.cls-8,.cls-9{stroke-miterlimit:10;}.cls-2{fill:#dd9536;stroke:#e29837;}.cls-3{fill:#bc7d31;stroke:#bc7d31;}.cls-4{fill:#665a52;stroke:#665a52;}.cls-10,.cls-11,.cls-4,.cls-5,.cls-6,.cls-7,.cls-8,.cls-9{stroke-width:0.5px;}.cls-5{fill:#c19285;stroke:#bf9182;}.cls-23,.cls-24,.cls-6{stroke:#000;}.cls-7{fill:#dbdbdb;stroke:#dbdbdb;}.cls-8{fill:#dda58c;stroke:#dda58c;}.cls-19,.cls-9{fill:#fff;stroke:#fff;}.cls-10{fill:#918174;stroke:#918174;}.cls-11{fill:#7f7267;stroke:#7f7267;}.cls-12{fill:#f2f1cc;}.cls-13{fill:#645a5b;}.cls-14{fill:#f2b394;stroke:#f2b394;}.cls-14,.cls-15{stroke-width:0.25px;}.cls-15,.cls-16{fill:#dddbbf;}.cls-15{stroke:#dddbbf;}.cls-17{fill:#5e4d43;}.cls-18{fill:#22b573;stroke:#f2f2f2;}.cls-20,.cls-22{fill:#413839;}.cls-21{fill:#ffbf99;stroke:#ffbf99;}.cls-22{stroke:#413839;}.cls-23{opacity:0.06;}</style></defs><title>about</title><g id="Layer_2" data-name="Layer 2"><path class="cls-1" d="M541,272l89,14c-.16-4.67-.86-43.72,31-70,26.46-21.83,56.88-19.58,63-19a75.45,75.45,0,0,1,58,121l-68,66a158.42,158.42,0,0,0-37,131l79-5c-4-24.68.83-41.33,5-51,4.88-11.32,10.72-17.34,36-46,12.54-14.22,22.43-25.58,28-32,7.89-7.48,54.17-52.78,51-119-3.19-66.56-55-126.88-129-146-15.17-3.46-65-12.78-116,14C550.58,172.23,541.54,265.22,541,272Z" transform="translate(-520.92 -111.09)"/><path class="cls-2" d="M540.5,271.5l-19,7c1.86-18.69,8.91-62.08,43-99a159.08,159.08,0,0,1,36-29,185,185,0,0,0-60,121Z" transform="translate(-520.92 -111.09)"/><path class="cls-3" d="M523.5,278.5l88,12,17-4-88-14Z" transform="translate(-520.92 -111.09)"/><path class="cls-3" d="M681.5,204.5c6.08.24,59,3.11,79,41,8.16,15.44,7.85,31,7,39-6.18,58.3-77.9,64.49-102,127-19.63,50.9,5.39,105.32,9,105s-7.74-40.89,12-87c16.71-39,49.71-68,52-70,17.25-14.89,37.7-27.05,51-55,2.54-5.33,4.89-10.26,6.36-17.43,5.2-25.4-5.41-55.45-27.36-73.57C744.87,194,710.73,190.49,681.5,204.5Z" transform="translate(-520.92 -111.09)"/><path class="cls-3" d="M503.5,150.5" transform="translate(-520.92 -111.09)"/><ellipse class="cls-1" cx="197.08" cy="477.41" rx="44.5" ry="44"/><path class="cls-3" d="M712.67,632.5a77.46,77.46,0,0,1-26.17-6c-9.61-4.08-25.63-10.88-33-28-5.73-13.32-5.62-31.46,5-46,14.4-19.71,38.12-19.08,40-19a155.14,155.14,0,0,1,39,14c-24.54-9.29-51.94,4.61-59,29S687.07,627.13,712.67,632.5Z" transform="translate(-520.92 -111.09)"/></g><g id="Layer_9" data-name="Layer 9"><path class="cls-4" d="M572.5,575.5l22,8v-9.25a46.43,46.43,0,0,0-8-.75,47.5,47.5,0,0,0-14,2" transform="translate(-520.92 -111.09)"/></g><g id="Layer_8" data-name="Layer 8"><path class="cls-5" d="M597.5,574.5a2.59,2.59,0,0,0-2-1c-2.16.23-3.17,5.26-3.42,7.47-.23,2-.54,4.71,1,7.31a9.28,9.28,0,0,0,6,4.26l40.64,8.6a1.62,1.62,0,0,0,1.94-1.36l1.32-9.61q-.54-.92-1.14-1.77c-9.64-13.73-30.32-15.18-42.42-14.9" transform="translate(-520.92 -111.09)"/><path class="cls-6" d="M642.5,588.5c-.77,1.2-.52,1.87-1,5-.76,5-2,7.23-1,8s2.3-.62,3,0c1.06,1-1.69,4.44-2,8-.23,2.67.84,6.32,6,11a70,70,0,0,0,5-11,70.84,70.84,0,0,0,4-22l-9-2A7.62,7.62,0,0,0,642.5,588.5Z" transform="translate(-520.92 -111.09)"/><path class="cls-7" d="M637.33,588.71c-1.09,1-.64,2.73-.83,5.79a29.63,29.63,0,0,1-1,6,4.18,4.18,0,0,1,1,0c1.26.16,1.74.84,3,1a4.18,4.18,0,0,0,1,0,19.5,19.5,0,0,1,0-3c.19-2.53.75-3.63,1-6a20.08,20.08,0,0,0,0-4C639.11,587.8,638,588.16,637.33,588.71Z" transform="translate(-520.92 -111.09)"/></g><g id="Layer_7" data-name="Layer 7"><path class="cls-8" d="M616.5,579.5c-4.12,2-3.43,9.42-6,26-1.35,8.72-2.94,15.69-4,20a10.84,10.84,0,0,0,15,0,125.44,125.44,0,0,0,8-20,124.15,124.15,0,0,0,3.93-17.28C622.93,578.19,618.44,578.58,616.5,579.5Z" transform="translate(-520.92 -111.09)"/><path class="cls-8" d="M543.5,568.5" transform="translate(-520.92 -111.09)"/><path class="cls-6" d="M606.5,625.5a10.65,10.65,0,0,1-4,5c-3,1.87-5.43.88-8,2-2.24,1-4.76,3.63-6,11a66.07,66.07,0,0,0,30-4l3-14a27.92,27.92,0,0,1-9,1A27.47,27.47,0,0,1,606.5,625.5Z" transform="translate(-520.92 -111.09)"/><path class="cls-9" d="M606.5,625.5l.87-3.72c2.19.32,4.57.58,7.13.72a79.55,79.55,0,0,0,8.45,0c-.4.82-.79,1.63-1.18,2.45a14,14,0,0,1-15.27.53Z" transform="translate(-520.92 -111.09)"/><path class="cls-6" d="M607.5,624.5" transform="translate(-520.92 -111.09)"/><path class="cls-9" d="M614.5,632.5" transform="translate(-520.92 -111.09)"/></g><g id="Layer_6" data-name="Layer 6"><path class="cls-10" d="M601.5,509.5a78.22,78.22,0,0,0-9,21c-.51,1.94-.92,3.69-1.27,5.29-1.12,5.27-1.65,9.15-1.73,9.71-.55,3.78-4.2,11.58-17.18,28.91a.44.44,0,0,0,.47.69,44,44,0,0,1,17.71-1.6c9.58,1.15,11,5.14,29,11,8,2.62,23.52,7.65,30,1,.73-.75,1.79-2.1,3-10,1.55-10.13,1.5-17.72,1-37-.08-2.88-.13-5.47,0-9a119.76,119.76,0,0,1,2.13-18.41Z" transform="translate(-520.92 -111.09)"/><path class="cls-11" d="M609.5,510.5c-1.85,2.75-8.87,13.34-10.85,20.6-.08.32-.64,2.35-1.25,5-1.14,5-1.73,8.73-1.82,9.27-.61,3.62-3.88,11-15,27.15-.26.38.34.69.34.69a1.09,1.09,0,0,0,.62.25c7,.77,13,1,13,1,3.6.14,2.94,1.38,14,6,4.17,1.74,7.52,2.92,9.31,3.54,6.81,2.35,10.77,3.05,18.69,4.46,3.5.62,5.31.57,6,0,3.31-2.76-3.77-10.16-2-22,.66-4.44,3.06-12.73,4-16,.15-.53.58-2,1-4a56.73,56.73,0,0,0,1-7s.34-3.66,1-10a124.86,124.86,0,0,1,3-17s-.09.41-.48,2.3Z" transform="translate(-520.92 -111.09)"/><path class="cls-4" d="M582.27,573.34" transform="translate(-520.92 -111.09)"/></g><g id="Layer_5" data-name="Layer 5"><path class="cls-12" d="M612,421c-3.48,5.33-1.41,7.12-7,20,0,0-3.58,8.25-2,13l1,3c2.67,6.84,3,8,3,8,1.61,5.56,0,10.56-1,14-1.78,6.3-3.64,15.56-5,30l10,5,4.55,2.28L619,518c2.17,1.08,11,.47,36-5a142.82,142.82,0,0,0,4-14c.41-1.75,1.57-8.37,3-18,1.74-11.78,1.41-20.79,1-32-.45-12.35-.68-18.66-3-24a43.84,43.84,0,0,0-15-18C640.38,407.1,620.49,408,612,421Z" transform="translate(-520.92 -111.09)"/><path class="cls-13" d="M616.07,428.62c1.86-.91,4.25-3.1,6.55-2.42,2.06.61,3.71,2.92,5.77,3.77a11.58,11.58,0,0,0,9.28-.43c.44-.2.06-.84-.38-.65a10.93,10.93,0,0,1-10.34-.54c-1.47-.86-3.44-3.2-5.21-3.44-2.24-.3-4.06,2.09-6,3.06-.43.21-.05.86.38.65Z" transform="translate(-520.92 -111.09)"/><path class="cls-14" d="M617,423a9.35,9.35,0,0,0,5,2c2.94.2,5-1.3,12-6,2.75-1.85,4.92-3.29,6-4l-2.59-4.4A12.7,12.7,0,0,0,631,412c-2.55,1.36-4,3.41-6,3-1-.21-1.13-.83-2-1-1.2-.23-3.07.56-6,5a2.5,2.5,0,0,1,0,4Z" transform="translate(-520.92 -111.09)"/><path class="cls-15" d="M573,404" transform="translate(-520.92 -111.09)"/><path class="cls-16" d="M620.5,426.51a177.86,177.86,0,0,1-3.16,42.39c-2.31,12.35-4.87,24.63-4.38,37.26,0,.48.77.48.75,0-.54-13.83,2.62-27.25,5-40.77a169.45,169.45,0,0,0,2.51-38.88c0-.48-.78-.49-.75,0Z" transform="translate(-520.92 -111.09)"/><path class="cls-16" d="M612.84,508.17a43.84,43.84,0,0,1-.28,5.84c0,.48.7.48.75,0a43.84,43.84,0,0,0,.28-5.84.38.38,0,0,0-.75,0Z" transform="translate(-520.92 -111.09)"/><path class="cls-13" d="M601.42,505.13c4.72,1.11,9.08,3.05,13.91,3.81a141.64,141.64,0,0,0,14.84,1.26,54.12,54.12,0,0,0,27.09-5.11c.43-.2,0-.85-.38-.65-9.59,4.44-18,5.49-28.51,4.91a111.09,111.09,0,0,1-14.67-1.45c-4.16-.79-8-2.53-12.08-3.49-.47-.11-.67.61-.2.72Z" transform="translate(-520.92 -111.09)"/><path class="cls-13" d="M623.62,444.78q9.06.39,18.13.19a.38.38,0,0,0,0-.75q-9.07.19-18.13-.19c-.48,0-.48.73,0,.75Z" transform="translate(-520.92 -111.09)"/><path class="cls-13" d="M627.24,449.22q7.26.43,14.51.26a.38.38,0,0,0,0-.75q-7.26.18-14.51-.26c-.48,0-.48.72,0,.75Z" transform="translate(-520.92 -111.09)"/><path class="cls-13" d="M633.1,446l.4,1.62c.11.47.83.27.72-.2l-.4-1.62c-.11-.46-.84-.27-.72.2Z" transform="translate(-520.92 -111.09)"/><path class="cls-13" d="M634.76,445.63a3.34,3.34,0,0,0,.29,1.81c.19.44.84.06.65-.38a2.6,2.6,0,0,1-.19-1.43c0-.48-.7-.48-.75,0Z" transform="translate(-520.92 -111.09)"/><path class="cls-13" d="M634.73,447.22l-.09,0c.48.08.68-.64.2-.72a.69.69,0,0,0-.84.49.38.38,0,0,0,.73.2Z" transform="translate(-520.92 -111.09)"/><path class="cls-13" d="M636.5,448a.38.38,0,0,0,0-.75.38.38,0,0,0,0,.75Z" transform="translate(-520.92 -111.09)"/><path class="cls-13" d="M638.62,445.38a1.13,1.13,0,0,0-1.68,1.36c0,.12.67.83.6.87-.42.22,0,.87.38.64a.81.81,0,0,0,.28-1.13c-.13-.23-.36-.36-.5-.58-.27-.41.16-.75.54-.51s.78-.38.38-.65Z" transform="translate(-520.92 -111.09)"/><path class="cls-13" d="M630.32,445.93a2.62,2.62,0,0,1,.56,1.95c0,.48.7.47.75,0a3.34,3.34,0,0,0-.78-2.48c-.31-.38-.84.16-.53.53Z" transform="translate(-520.92 -111.09)"/><path class="cls-13" d="M639.38,448a.38.38,0,0,0,0-.75.38.38,0,0,0,0,.75Z" transform="translate(-520.92 -111.09)"/><path class="cls-17" d="M634.84,429.34c-3,11.55-6,23.06-11.84,33.57-.93,1.69,1.66,3.21,2.59,1.51,5.92-10.73,9.11-22.48,12.14-34.29a1.5,1.5,0,0,0-2.89-.79Z" transform="translate(-520.92 -111.09)"/><path class="cls-17" d="M610.08,430.12A66.48,66.48,0,0,0,618,464.27c.92,1.71,3.51.19,2.59-1.51a63.52,63.52,0,0,1-7.53-32.64c.07-1.93-2.93-1.93-3,0Z" transform="translate(-520.92 -111.09)"/><rect class="cls-18" x="615.5" y="463.5" width="10" height="15" rx="1.92" ry="1.92" transform="translate(-486.49 -153.3) rotate(4.01)"/><rect class="cls-19" x="617.5" y="467.5" width="3" height="3" transform="translate(-486.64 -153.2) rotate(4.01)"/><path class="cls-16" d="M636.62,435.13v8.37a.38.38,0,0,0,.75,0v-8.37a.38.38,0,0,0-.75,0Z" transform="translate(-520.92 -111.09)"/><path class="cls-16" d="M635.69,465c-.32,14.69-2.68,29.17-5.13,43.63-.08.48.64.68.72.2,2.46-14.53,4.84-29.07,5.16-43.83a.38.38,0,0,0-.75,0Z" transform="translate(-520.92 -111.09)"/><path class="cls-16" d="M640.69,465c-.32,14.78-2.64,29.35-5.05,43.91-.08.47.64.68.72.2,2.42-14.62,4.76-29.26,5.08-44.11a.38.38,0,0,0-.75,0Z" transform="translate(-520.92 -111.09)"/><path class="cls-16" d="M645.69,466c-.32,14.12-2.64,28-5.05,41.91-.08.47.64.68.72.2,2.42-14,4.76-27.92,5.08-42.11a.38.38,0,0,0-.75,0Z" transform="translate(-520.92 -111.09)"/><path class="cls-16" d="M610.5,504.5a.75.75,0,0,0,0-1.5.75.75,0,0,0,0,1.5Z" transform="translate(-520.92 -111.09)"/><path class="cls-16" d="M611.75,494a.75.75,0,0,0,0-1.5.75.75,0,0,0,0,1.5Z" transform="translate(-520.92 -111.09)"/><path class="cls-16" d="M614.25,481.25a.75.75,0,0,0,0-1.5.75.75,0,0,0,0,1.5Z" transform="translate(-520.92 -111.09)"/><path class="cls-16" d="M618.25,455.5a.75.75,0,0,0,0-1.5.75.75,0,0,0,0,1.5Z" transform="translate(-520.92 -111.09)"/><path class="cls-16" d="M618.25,435.75a.75.75,0,0,0,0-1.5.75.75,0,0,0,0,1.5Z" transform="translate(-520.92 -111.09)"/></g><g id="Layer_4" data-name="Layer 4"><path class="cls-20" d="M590,422.11c.91,2.63,2.72,5.48,5.75,5.68,1.93.13,1.92-2.87,0-3-1.45-.1-2.45-2.31-2.85-3.48-.63-1.81-3.53-1-2.9.8Z" transform="translate(-520.92 -111.09)"/><path class="cls-20" d="M606.16,421.27l6.33-.51c1.92-.15,1.93-3.15,0-3l-6.33.51c-1.91.15-1.93,3.15,0,3Z" transform="translate(-520.92 -111.09)"/><path class="cls-20" d="M589,425.82c1.59,1.5,3.42,2.93,5.67,3a1.44,1.44,0,0,0,1.29-.75c1.29-3,.11-6.6-1.23-9.43-.71-1.49-2.65-.56-2.8.75a15.5,15.5,0,0,0,0,3.79,1.52,1.52,0,0,0,2.26,1.29c2.11-1.35,6.69-5.9,3.53-8.44-2.72-2.18-5.36,1.33-4.9,4,.52,2.94,4.3,4.78,5.48,1.23a3.86,3.86,0,0,0-.74-3.64c-1.12-1.54-2.73-2.26-3.53-4.16a21.67,21.67,0,0,1-1.23-6.22l-2.8.76q2.82,4.8,5.3,9.77c.86,1.72,3.45.21,2.59-1.52q-2.49-5-5.29-9.76c-.71-1.21-2.95-.78-2.8.75.3,3,.71,6.37,2.12,9.12a5.92,5.92,0,0,0,1.73,2.09,16.82,16.82,0,0,0,1.47,1,7.18,7.18,0,0,1-2.44,2.43l2.25,1.3a15.5,15.5,0,0,1,0-3.79l-2.79.76c.4.84,1.85,4.17,1.36,5.2-.17.37-2.07-1.39-2.38-1.68-1.4-1.32-3.53.79-2.12,2.12Z" transform="translate(-520.92 -111.09)"/><path class="cls-20" d="M605.85,422.11a6.11,6.11,0,0,0,2.82.35c1.18,0,2.36-.06,3.53-.16,1-.08,2-1.26,1.29-2.25l-.13-.18a1.55,1.55,0,0,0-2.05-.54,1.51,1.51,0,0,0-.54,2.05l.13.18,1.3-2.26c-1,.08-1.91.14-2.86.15H608l-.66,0c-.59-.05-.59,0,0,.09-1.71-.9-3.23,1.69-1.52,2.59Z" transform="translate(-520.92 -111.09)"/><path class="cls-21" d="M641.5,444.5c-.54.25-.58.65-2,3a14.87,14.87,0,0,1-2,3c-2.14,1.28-5.07-4.21-13-8,0,0-1.42-.68-9.74-6.26a2.14,2.14,0,0,1-.8-.93,2,2,0,0,1-.07-1.22,25.14,25.14,0,0,0,1.61-4.59c.62-2.49.54-3.73,1-6a25.63,25.63,0,0,1,2-6.05,1.89,1.89,0,0,0-.86-2.14,1.85,1.85,0,0,0-2.29.29l-2.9,5.9a4.27,4.27,0,0,1-3,1c-1.64-.15-2.72-1.46-4-3a16.58,16.58,0,0,1-2-3,90.67,90.67,0,0,1-4-9,1.58,1.58,0,0,0-3,1l3,8a12.64,12.64,0,0,0-3,3c-.56.89-.55,1.43-1,4-.21,1.18-.53,2.9-1,5a6.78,6.78,0,0,0,0,5c1.77,3.9,9.4,7.41,9.92,7.94l.1.08a1.16,1.16,0,0,0,1,0c1.16-.42,8.24,7.68,14,12h0c8.38,6,20,15.4,26,16a4.62,4.62,0,0,0,2-.18c1.71-.57,2.38-2,5-7.82,0,0,.61-1.33,3.15-7.62.9-2.21,1.09-2.73.85-3.38-.76-2-4.3-.71-9-3C644.25,445.92,642.93,443.85,641.5,444.5Z" transform="translate(-520.92 -111.09)"/><path class="cls-20" d="M598.42,413.94c-3.38-2.46-4.08-6.67-4.18-10.58,0-1.92-3-1.93-3,0,.13,5.11,1.35,10,5.66,13.17,1.57,1.14,3.06-1.46,1.52-2.59Z" transform="translate(-520.92 -111.09)"/></g><g id="Layer_3" data-name="Layer 3"><path class="cls-22" d="M711.5,300.5" transform="translate(-520.92 -111.09)"/><path class="cls-21" d="M595.29,373.57a1.45,1.45,0,0,0,0,.3,46.44,46.44,0,0,1-.79,7.76c-1.43,7.55-6.11,10.85-4.92,16a9.28,9.28,0,0,0,1.48,3.23,1.5,1.5,0,0,1,.27.84c0,1.77.73,2.55,1.11,6.21.35,3.39,3.69,6.29,5.08,7.5,6.37,5.54,16.56,3,26.36.55,5.58-1.4,9-4.36,12.79-7.48a1.55,1.55,0,0,0,.5-.84c3.23-15.28.21-22.82-3.61-26.87-4-4.27-8.56-4.16-12.23-9-4.43-5.8-4-13.59-2.68-19.72a1.53,1.53,0,0,0-2-1.74,33.41,33.41,0,0,0-12.31,7.48A32.44,32.44,0,0,0,595.29,373.57Z" transform="translate(-520.92 -111.09)"/><path class="cls-22" d="M596.5,341.5" transform="translate(-520.92 -111.09)"/><path class="cls-22" d="M614.9,350.67a1.83,1.83,0,0,1,2.41,2c-2.61,12.28,0,18.06,2.89,21.07,4.19,4.29,9.27,3.06,13.2,8.68,2.79,4,4.28,10.37,1.9,15.17-1.84,3.71-4.51,3.47-5.45,7.39-.69,2.84-.12,6.48.27,9.13.55,3.77,1,3.49.91,5.1-.24,4.73-3.45,5.5-4.16,10.08a12.08,12.08,0,0,0,2.79,9.51c1.14,1.31,2.31,1.94,4.63,3.21,3.43,1.87,7.77,4.23,13.14,3.73a12,12,0,0,0,5.4-1.62c.87-.53,3.65-2.23,4.24-5.12.48-2.4-1.07-3.07-.79-5.9a10.66,10.66,0,0,1,2.56-5.38c2.76-3.68,4.4-3,6-5.65,2.53-4.08.87-9.27.69-9.8a66.21,66.21,0,0,0-3.29-6.3,40.21,40.21,0,0,1-2-3.62c-.88-3,.4-6,2.62-11.15l1.35-3.09,1.34-3.09a19.77,19.77,0,0,0,1.85-6.31,15.74,15.74,0,0,0-1.36-7.65,24.48,24.48,0,0,1-1.29-2.68,17,17,0,0,1-1-4.29c-.32-2.64-3.58-11.61-11.69-18.36-2.75-2.29-8.73-7.27-17.64-7.74a26.35,26.35,0,0,0-10,1.45,2,2,0,0,1-1.12,0,16.16,16.16,0,0,0-9.72.18c-4.54,1.63-8.28,5.73-9.9,8.35a16.32,16.32,0,0,1-3.22,4.11,31.67,31.67,0,0,1-2.45,2,14.41,14.41,0,0,0-2.5,2.15c-2.28,2.66-4.35,7.22-3.38,15.62a1.86,1.86,0,0,0,3,1.19,29.35,29.35,0,0,0,8.85-10.5c1.46-3,2-5.73,4.75-8.37A15.88,15.88,0,0,1,614.9,350.67Z" transform="translate(-520.92 -111.09)"/><path class="cls-22" d="M597,362.13c-.11,0-.43.53-1.08,1.65-.45.77-1.09,1.66-1.09,1.66a64.79,64.79,0,0,0-6.09,7.25,20,20,0,0,0-2.45,5.09,16.43,16.43,0,0,0-.84,5.34c.13,3.87,2.12,4.85,2.92,7.76,1.85,6.73-6.4,11.15-4.27,16.66a13.77,13.77,0,0,1,1.46,5.45,17.13,17.13,0,0,1-.29,3c-.45,4.53,3.11,9.82,5.1,9.54.83-.12,1.82-1.28,2.57-5.78l3.28-2.69a10.1,10.1,0,0,1-4.59-4.47c-.59-1.23-.74-2.32-.37-10.1.19-3.78.26-5.69.44-6.52.73-3.41,2.21-6.36,2.76-12.34a40.29,40.29,0,0,0,.12-4.5s0-.84,0-1.86a20.58,20.58,0,0,1,1.78-6.1C598.18,366.82,597.5,362.22,597,362.13Z" transform="translate(-520.92 -111.09)"/><path class="cls-22" d="M591.5,373.5" transform="translate(-520.92 -111.09)"/><path class="cls-12" d="M642,441c-.53-1.08-1.38-2-2-3-.16-.26-.29-.48-.5-.5-.7-.06-.92,2.27-1.51,4.25a1.88,1.88,0,0,0,1.19,2.31,74.69,74.69,0,0,1,10.32,4.44c5.25,2.74,6.26,6.14,9,5.5,2.32-.54,3.39-3.62,3.52-4,1.42-4.24-1.6-8.73-1-9,.22-.1.75.45,1,1a2.68,2.68,0,0,1,0,2c-.88,2-7,1.27-9,1C651.44,444.79,643.32,443.71,642,441Z" transform="translate(-520.92 -111.09)"/><path class="cls-13" d="M638.09,441.76a79.21,79.21,0,0,0,12.47,4.31c2.42.7,4.74,1.17,6.8,2.66a29.72,29.72,0,0,0,4.17,3c.43.22.81-.43.38-.64-3-1.51-4.7-3.87-8-4.9-5.17-1.64-10.55-2.77-15.48-5.13-.43-.2-.82.44-.38.65Z" transform="translate(-520.92 -111.09)"/><path class="cls-21" d="M626.5,418.5" transform="translate(-520.92 -111.09)"/><path class="cls-21" d="M621.5,417.5" transform="translate(-520.92 -111.09)"/><path class="cls-20" d="M639.67,436.85l-.91,1.91h2.59l-.53-.88a1.51,1.51,0,0,0-2.05-.54,3.44,3.44,0,0,0-1.42,1.83c-.5,1.22,1.17,2.36,2.2,1.69a3.07,3.07,0,0,0,1.41-1.52l-2.74-1.16c-.74,3.73-1.22,6.17,3.22,6.95a27.88,27.88,0,0,0,6.52,0,8,8,0,0,0,2.62-.39c.87-.37,1.49-1.24,2.36-1.58l-1.46-2.5-1.07.44c-1.88-.26-2.7,2.63-.79,2.9a4.25,4.25,0,0,0,4-1.22c1-1,0-3.07-1.46-2.51a15,15,0,0,0-1.88,1.07,8.45,8.45,0,0,1-4.28.89,22.57,22.57,0,0,1-3.39,0c-2.36-.27-1.84-1.48-1.48-3.3.31-1.56-2-2.79-2.74-1.16l-.33.45,2.2,1.69,0,0-2-.54.53.89a1.52,1.52,0,0,0,2.59,0l.91-1.91c.83-1.74-1.76-3.26-2.59-1.52Z" transform="translate(-520.92 -111.09)"/><path class="cls-20" d="M640.51,439.15a2.08,2.08,0,0,0,.48,3.21,6.42,6.42,0,0,0,3.17.43,1.51,1.51,0,0,0,.4-3,2.78,2.78,0,0,0-1.94.24,1.5,1.5,0,1,0,1.51,2.59.54.54,0,0,1-.37.07l.4-2.95-1.28,0h-.42l-.11,0c.65.3.74.82.28,1.55a1.54,1.54,0,0,0,0-2.12,1.52,1.52,0,0,0-2.12,0Z" transform="translate(-520.92 -111.09)"/><path class="cls-20" d="M642.08,445.49c2.48.86,5,.36,7.53,0,1.9-.27,4-.24,4.23-2.59.16-1.93-2.84-1.92-3,0l0,.35.43-1.06c-.36.42-2.76.46-3.51.56a10,10,0,0,1-4.86-.15c-1.83-.64-2.62,2.25-.8,2.89Z" transform="translate(-520.92 -111.09)"/><path class="cls-20" d="M644.81,446.18c1.57-.08,3.15-.12,4.72-.24,1.34-.1,2-.79,3.17-1.32,1.75-.81.23-3.4-1.52-2.59-.46.21-.83.66-1.3.84a4.69,4.69,0,0,1-1.4.13l-3.67.18c-1.93.1-1.94,3.1,0,3Z" transform="translate(-520.92 -111.09)"/><path class="cls-20" d="M650.56,445.56a1.5,1.5,0,0,0,0-3,1.5,1.5,0,0,0,0,3Z" transform="translate(-520.92 -111.09)"/><path class="cls-20" d="M644.56,446.28c1.69,0,3.47.26,5.06-.42,1.41-.59,3.13-.85,4.12-2.12,1.18-1.5-.93-3.64-2.12-2.12-.64.81-2.19,1.14-3.16,1.49a11.08,11.08,0,0,1-3.9.17c-1.93,0-1.93,3,0,3Z" transform="translate(-520.92 -111.09)"/><path class="cls-20" d="M644.42,446.18c2.23.7,5.18,1,7.25-.29s2.82-3.56,3.41-5.72a1.5,1.5,0,0,0-2.89-.8c-.37,1.36-.77,3.09-2,3.93s-3.53.43-4.94,0c-1.85-.59-2.64,2.31-.8,2.9Z" transform="translate(-520.92 -111.09)"/></g><g id="Layer_10" data-name="Layer 10"><path class="cls-23" d="M651.5,465.5l-6,49.5,10-2.5a188.62,188.62,0,0,0,7-62l-2,4h-4Z" transform="translate(-520.92 -111.09)"/><path class="cls-24" d="M503.5,376.5" transform="translate(-520.92 -111.09)"/><path class="cls-10" d="M601.5,383.5" transform="translate(-520.92 -111.09)"/><path class="cls-10" d="M601.5,379.5" transform="translate(-520.92 -111.09)"/></g></svg>