<svg xmlns="http://www.w3.org/2000/svg" viewBox="0 0 635.81 605.19"><defs><style>.cls-1{fill:#fcf59d;}.cls-2{fill:#868789;}.cls-3{fill:#b1b2b6;}.cls-17,.cls-4{fill:#ffffec;}.cls-5{fill:#359b93;}.cls-6{fill:#5bbcb0;}.cls-7{fill:#f7ab89;}.cls-8{fill:#3c2418;}.cls-9{fill:#dd9883;}.cls-10{fill:#f2e7b8;}.cls-11{fill:#eb9769;}.cls-12{fill:none;}.cls-13{fill:#d3caa5;}.cls-14{fill:#deca74;}.cls-15{fill:#77e59c;}.cls-16{fill:#f7ef5e;}.cls-17{stroke:#999;stroke-miterlimit:10;}.cls-18{fill:#f1fff5;}.cls-19{font-size:12px;font-family:MyriadPro-Regular, Myriad Pro;}.cls-20{letter-spacing:-0.01em;}.cls-21{letter-spacing:-0.01em;}.cls-22{fill:#1f9a4f;}.cls-23{fill:#40cc72;}.cls-24{fill:#fff;}.cls-25{fill:#15562a;}</style></defs><title>contact</title><g id="Layer_2" data-name="Layer 2"><polygon class="cls-1" points="8.58 481.19 218.58 605.19 598.58 378.19 384.64 256.76 8.58 481.19"/><path class="cls-2" d="M1196.9,629.67,1197,647l116,70a26,26,0,0,0,20,0l246-146,2-3V544.67Z" transform="translate(-1086.42 -183.81)"/><path class="cls-3" d="M1199,632l114,68a26.34,26.34,0,0,0,26-3c15.81-9.11,231.29-133.27,238-141a15.63,15.63,0,0,0,4-9,12,12,0,0,0-1-5c0-.67-3-3.33-3-4l-111-66a37.48,37.48,0,0,0-27,1L1200,616a13.8,13.8,0,0,0-3,7A14,14,0,0,0,1199,632Z" transform="translate(-1086.42 -183.81)"/><path class="cls-4" d="M1201,618l241-143a23.37,23.37,0,0,1,10-3,23.61,23.61,0,0,1,13,3l110,65a9.47,9.47,0,0,1,2,5c.3,3.86-2.07,7.73-6,10L1337,695a43,43,0,0,1-26,0l-110-65a10.2,10.2,0,0,1-2-7A9.9,9.9,0,0,1,1201,618Z" transform="translate(-1086.42 -183.81)"/><g id="Layer_6" data-name="Layer 6"><polygon class="cls-5" points="140.58 428.19 259.58 498.19 463.58 377.19 345.58 306.19 138.58 427.19 140.58 428.19"/></g><polygon class="cls-6" points="242.69 366.34 258.58 498.19 370.73 432.26 345.58 306.19 242.69 366.34"/><path class="cls-3" d="M1472,501.69l42.58,25.41a2,2,0,0,0,2,0l.64-.39c.54-.47,1.15-1.16,1-1.84a1.17,1.17,0,0,0-.28-.53c-1.17-1.28-19.32-11.42-25.46-15.63L1474,498a2,2,0,0,0-2,0l-.07,0A2.15,2.15,0,0,0,1472,501.69Z" transform="translate(-1086.42 -183.81)"/><path class="cls-7" d="M1387.83,468c-14.24.39-28.21-7.53-34.68-19-3.64-6.45-3.85-12.15-4.15-20-.2-5.61-1.6-38,14.5-44,7.48-2.8,15.29.72,24.33,5C1401.3,396.38,1388.63,468,1387.83,468Z" transform="translate(-1086.42 -183.81)"/><path class="cls-8" d="M1426,387a64.62,64.62,0,0,1,2,20c-.46,8.06-7.92,9.59-9.88,4.88Z" transform="translate(-1086.42 -183.81)"/><path class="cls-7" d="M1421.69,420.46,1420,429l-5,5c0,2.2.07,16.14-11,26a33.17,33.17,0,0,1-18,8q3.23-33,6.46-66-4-7.62-2.46-9,3.07-2.75,28,19Z" transform="translate(-1086.42 -183.81)"/><path class="cls-8" d="M1392,362a56,56,0,0,0-21,1,59.16,59.16,0,0,0-24,12,12.59,12.59,0,0,0-1,10c2.08,6.07,8.18,7.74,8.65,7.86A60.22,60.22,0,0,1,1371,391a63.68,63.68,0,0,1,35,12,21.16,21.16,0,0,0-4,10,21.86,21.86,0,0,0,4,15c-1-7,3.12-13.32,9-15,4.5-1.29,10.47-4.26,10-10a55.78,55.78,0,0,1,1-16,41.48,41.48,0,0,0-12-16C1405.62,364.23,1396.9,362.76,1392,362Z" transform="translate(-1086.42 -183.81)"/><path class="cls-8" d="M1420,428l7.85-19.66-9.73,3.54A23.62,23.62,0,0,1,1420,417,24,24,0,0,1,1420,428Z" transform="translate(-1086.42 -183.81)"/><path class="cls-7" d="M1428,512c3.27,3.84,8.28,9.5,14,15a45.2,45.2,0,0,0,7,5,13.11,13.11,0,0,0,8,2c2.44-.24,4.72-1.26,8-4a45.54,45.54,0,0,0,12-16,48,48,0,0,0,4-19q-.49-12-1-24a12.14,12.14,0,0,1-4-9,11.27,11.27,0,0,1,2-6,17,17,0,0,0,9-15c.33-1.67.67-3.33,1-5a8.66,8.66,0,0,1,17,0,45.17,45.17,0,0,1-11,33,142.53,142.53,0,0,1-2,46,72,72,0,0,1-13,24,47.5,47.5,0,0,1-13,10,42,42,0,0,1-23-1c-15.47-5.24-22.47-18-24-21l.85-1.13A52.86,52.86,0,0,0,1424,520,53.56,53.56,0,0,0,1428,512Z" transform="translate(-1086.42 -183.81)"/><path class="cls-9" d="M1358.12,510c-.23.7-4.51,13-14,15a21.55,21.55,0,0,1-7.12,0,23.23,23.23,0,0,1-9-4,34.79,34.79,0,0,1-7-6,54.24,54.24,0,0,1-8-11,58.55,58.55,0,0,1-5-13,66.51,66.51,0,0,1-1.88-22,12.11,12.11,0,0,0,4-9,11.27,11.27,0,0,0-2-6,17,17,0,0,1-9-15c-.33-1.67-.67-3.33-1-5a8.66,8.66,0,0,0-17,0,45.17,45.17,0,0,0,11,33c.39,3.86,1,9.37,1.88,16,.33,2.47.59,4.4,1,7a141.89,141.89,0,0,0,5,23,60,60,0,0,0,3,8,40.09,40.09,0,0,0,8,12,36.55,36.55,0,0,0,10,7c2.68,1.27,13.92,6.59,27,2a34.94,34.94,0,0,0,19.12-17l-.85-1.13a52.86,52.86,0,0,1-4.15-5.87A53.56,53.56,0,0,1,1358.12,510Z" transform="translate(-1086.42 -183.81)"/><path class="cls-10" d="M1404,471a14.77,14.77,0,0,1,6,5q3,4.35,6,9,4.27,6.63,8,13c10,17,14.65,16.63,15,23,.47,8.49-6.63,18.53-13,18-4-.33-6.84-4.84-8-7,.55,9.28.9,19,1,29,.15,14.4-.24,28.09-1,41l-6,4h-11l-52-28a129.82,129.82,0,0,1,0-27c.62-6,1.45-9.89,2-13,1.58-8.91,2.83-22.07,1-40a43.55,43.55,0,0,1,3-9,61.69,61.69,0,0,1,4-7c2.25-3.62,3.41-5.46,5-7,.85-.82,2.24-1.87,5-4q2-1.56,4-3c4.44.17,9.12.49,14,1C1389.75,469.29,1400,469.18,1404,471Z" transform="translate(-1086.42 -183.81)"/><path class="cls-7" d="M1403,478c.71,7.27-13.32,18-24,14-6.14-2.28-11.94-9.68-10-16,2.12-6.93,12.2-8.19,17-8C1393.27,468.29,1402.45,472.46,1403,478Z" transform="translate(-1086.42 -183.81)"/><path class="cls-11" d="M1376.83,466.93,1377,474a12.39,12.39,0,0,0,8,4,12.75,12.75,0,0,0,10-4v-8a28.27,28.27,0,0,1-18.17.93Z" transform="translate(-1086.42 -183.81)"/><line class="cls-12" x1="352.58" y1="337.19" x2="348.58" y2="367.19"/><line class="cls-12" x1="103.58" y1="217.19" x2="102.58" y2="216.19"/><path class="cls-13" d="M1352,498c-1,0,.72,7.49-4,16-2.51,4.53-5.82,7.67-5,12a9,9,0,0,0,3,5,8.66,8.66,0,0,0,5.89,1.75A86.06,86.06,0,0,0,1354,517C1354.39,507.4,1353.13,498,1352,498Z" transform="translate(-1086.42 -183.81)"/><path class="cls-10" d="M1400.74,471.64a85.66,85.66,0,0,1-16.6,23,1.5,1.5,0,0,0,2.12,2.12,87.81,87.81,0,0,0,17.07-23.61c.86-1.72-1.73-3.24-2.59-1.51Z" transform="translate(-1086.42 -183.81)"/><path class="cls-10" d="M1401.76,474.77c-5.12,5.61-8.88,12.24-13.51,18.23-1.06,1.39,1.17,2.95,2.36,1.82,5.07-4.81,10.73-9.4,15.21-14.78.75-.9.35-2.65-1.06-2.56-3.72.25-5.59,7.44-6.8,10.26l2.75.36c-.75-1.89,1.08-5.18,1.5-7.11a25.71,25.71,0,0,0,.58-5.53,1.51,1.51,0,0,0-2.79-.76,10.94,10.94,0,0,0-1.39,5.79c.05,1.93,3.05,1.93,3,0a8,8,0,0,1,1-4.27l-2.8-.76a28.34,28.34,0,0,1-1.54,8.5c-.56,1.78-1.15,3.14-.44,4.94.41,1,2.18,1.68,2.74.36.46-1.06,3.22-8.71,4.21-8.78l-1.07-2.56c-4.47,5.38-10.13,10-15.2,14.78l2.36,1.82c4.46-5.8,8.08-12.21,13-17.63,1.3-1.42-.82-3.55-2.12-2.12Z" transform="translate(-1086.42 -183.81)"/><path class="cls-10" d="M1369.75,471c-.12,9.35.52,18.76,5.64,26.85,1,1.63,3.63.13,2.59-1.51-4.85-7.67-5.35-16.5-5.23-25.34a1.5,1.5,0,0,0-3,0Z" transform="translate(-1086.42 -183.81)"/><path class="cls-10" d="M1367.59,474a92.54,92.54,0,0,0,4.8,22.61c.63,1.81,3.53,1,2.89-.8a88.91,88.91,0,0,1-4.69-21.81c-.16-1.91-3.16-1.92-3,0Z" transform="translate(-1086.42 -183.81)"/><path class="cls-10" d="M1385.32,495.67a17.65,17.65,0,0,1,3.6,9.33c.15,1.92,3.16,1.93,3,0a20.52,20.52,0,0,0-4-10.85c-1.14-1.53-3.75,0-2.59,1.52Z" transform="translate(-1086.42 -183.81)"/><path class="cls-10" d="M1384.49,496c2.93,1.43,4.71,6.58,5.68,9.46.16.45.88.26.73-.2a33.22,33.22,0,0,0-2.56-5.79c-.88-1.57-1.8-3.3-3.48-4.12-.43-.21-.81.43-.37.65Z" transform="translate(-1086.42 -183.81)"/><path class="cls-10" d="M1381.64,497.16c1.92.59,4.33,1.18,5.73,2.72,1.14,1.26,1.68,3,2.67,4.38,1.12,1.55,3.72.05,2.59-1.52-1.25-1.73-1.93-3.87-3.52-5.37-1.76-1.65-4.42-2.41-6.67-3.1-1.85-.57-2.64,2.32-.8,2.89Z" transform="translate(-1086.42 -183.81)"/><path class="cls-10" d="M1385.46,495.86c4.29,2.81,6.4,7.54,8.41,12.07.78,1.76,3.36.23,2.59-1.52-2.25-5.07-4.71-10-9.49-13.14-1.62-1.06-3.12,1.54-1.51,2.59Z" transform="translate(-1086.42 -183.81)"/><path class="cls-14" d="M1374.56,489.86c1,1.26,2.92,1.69,4.37,2.16a17.92,17.92,0,0,0,7.15,1c.47,0,.48-.79,0-.75a16.49,16.49,0,0,1-5.8-.59c-1.4-.39-4.16-1-5.07-2.16-.29-.38-.94,0-.65.37Z" transform="translate(-1086.42 -183.81)"/><path class="cls-14" d="M1365.65,474.83c-.68,6.6-1.07,13.34,3.35,18.77.31.38.83-.16.53-.53-4.28-5.26-3.79-11.9-3.13-18.24,0-.48-.7-.48-.75,0Z" transform="translate(-1086.42 -183.81)"/><path class="cls-14" d="M1369.71,493.6a4.42,4.42,0,0,1,3.78-3.07.38.38,0,0,0,0-.75,4.11,4.11,0,0,0-2.81,1.22,4.41,4.41,0,0,0-1.69,2.4c-.09.47.63.67.72.2Z" transform="translate(-1086.42 -183.81)"/><path class="cls-14" d="M1387.4,493.88c2.88.95,4.51,3.48,5.64,6.14.18.44.83.06.64-.38-1.21-2.86-3-5.47-6.08-6.49-.46-.15-.65.58-.2.73Z" transform="translate(-1086.42 -183.81)"/><path class="cls-14" d="M1393.48,500.16c3.42-2.86,5.91-4.42,8-8.56a32.26,32.26,0,0,0,3.34-12.76c0-.49-.72-.48-.75,0a31,31,0,0,1-3.93,13.66c-1.85,3.23-4.47,4.84-7.21,7.13-.37.31.16.83.53.53Z" transform="translate(-1086.42 -183.81)"/><path class="cls-14" d="M1401.27,470.72a6.78,6.78,0,0,1,2.48,4.26c.08.47.8.27.72-.2a7.38,7.38,0,0,0-2.67-4.59c-.37-.3-.9.22-.53.53Z" transform="translate(-1086.42 -183.81)"/><path class="cls-14" d="M1368.49,472.87c.08-1,1.57-2,2.32-2.55a22.21,22.21,0,0,1,2.64-1.73c.42-.23,0-.88-.38-.64a22.54,22.54,0,0,0-3.46,2.37c-.83.69-1.78,1.4-1.87,2.55,0,.48.71.48.75,0Z" transform="translate(-1086.42 -183.81)"/><path class="cls-14" d="M1378.51,497.67c1.28,14.28-2.24,28.22-3.57,42.36-1.32,13.92-1.51,28-2.1,42,0,.49.73.49.75,0,.59-14,.79-28,2.1-42,1.32-14.15,4.86-28.07,3.57-42.36,0-.47-.79-.48-.75,0Z" transform="translate(-1086.42 -183.81)"/><path class="cls-14" d="M1374.5,514a.38.38,0,0,0,0-.75.38.38,0,0,0,0,.75Z" transform="translate(-1086.42 -183.81)"/><path class="cls-14" d="M1373.17,526.38a.38.38,0,0,0,0-.75.38.38,0,0,0,0,.75Z" transform="translate(-1086.42 -183.81)"/><path class="cls-14" d="M1371.5,537.54a.38.38,0,0,0,0-.75.38.38,0,0,0,0,.75Z" transform="translate(-1086.42 -183.81)"/><path class="cls-14" d="M1370.33,552.38a.38.38,0,0,0,0-.75.38.38,0,0,0,0,.75Z" transform="translate(-1086.42 -183.81)"/><path class="cls-14" d="M1369,566.38a.38.38,0,0,0,0-.75.38.38,0,0,0,0,.75Z" transform="translate(-1086.42 -183.81)"/><path class="cls-14" d="M1366.5,579a.38.38,0,0,0,0-.75.38.38,0,0,0,0,.75Z" transform="translate(-1086.42 -183.81)"/><path class="cls-14" d="M1384.25,516.27c4.16,2.48,10.55,2.41,15.25,2.36a.38.38,0,0,0,0-.75c-4.62,0-10.79.17-14.87-2.26a.38.38,0,0,0-.38.65Z" transform="translate(-1086.42 -183.81)"/><path class="cls-14" d="M1384.05,515.53a17.09,17.09,0,0,0-.29,4.34c0,.48.78.49.75,0a16,16,0,0,1,.26-4.14c.09-.47-.63-.67-.72-.2Z" transform="translate(-1086.42 -183.81)"/><path class="cls-14" d="M1384,520.63a32,32,0,0,0,15.37,2.09c.47-.05.48-.8,0-.75a31.78,31.78,0,0,1-15.17-2.06c-.45-.18-.65.54-.2.72Z" transform="translate(-1086.42 -183.81)"/><path class="cls-14" d="M1399.5,518.25a17.41,17.41,0,0,1-.23,3.53c-.07.47.65.67.73.2a19.44,19.44,0,0,0,.25-3.73c0-.48-.77-.48-.75,0Z" transform="translate(-1086.42 -183.81)"/><path class="cls-15" d="M1195,310c.09,5.52-5.47,11-10,10-2.66-.61-4.63-3.4-5-6-.86-6,6.57-12.45,11-11C1193.61,303.85,1195,307.36,1195,310Z" transform="translate(-1086.42 -183.81)"/><path class="cls-15" d="M1195,341c.09,5.52-5.47,11-10,10-2.66-.61-4.63-3.4-5-6-.86-6,6.57-12.45,11-11C1193.61,334.85,1195,338.36,1195,341Z" transform="translate(-1086.42 -183.81)"/><path class="cls-15" d="M1195,372c.09,5.52-5.47,11-10,10-2.66-.61-4.63-3.4-5-6-.86-6,6.57-12.45,11-11C1193.61,365.85,1195,369.36,1195,372Z" transform="translate(-1086.42 -183.81)"/><path class="cls-16" d="M1159,393c.09,5.52-5.47,11-10,10-2.66-.61-4.63-3.4-5-6-.86-6,6.57-12.45,11-11C1157.61,386.85,1159,390.36,1159,393Z" transform="translate(-1086.42 -183.81)"/><path class="cls-16" d="M1159,422c.09,5.52-5.47,11-10,10-2.66-.61-4.63-3.4-5-6-.86-6,6.57-12.45,11-11C1157.61,415.85,1159,419.36,1159,422Z" transform="translate(-1086.42 -183.81)"/><path class="cls-16" d="M1569.93,312c-.09,5.52,5.48,11,10,10,2.66-.61,4.63-3.4,5-6,.86-6-6.57-12.45-11-11C1571.32,305.85,1570,309.36,1569.93,312Z" transform="translate(-1086.42 -183.81)"/><path class="cls-16" d="M1569.93,339c-.09,5.52,5.48,11,10,10,2.66-.61,4.63-3.4,5-6,.86-6-6.57-12.45-11-11C1571.32,332.85,1570,336.36,1569.93,339Z" transform="translate(-1086.42 -183.81)"/><path class="cls-15" d="M1658.93,601c-.09,5.52,5.48,11,10,10,2.66-.61,4.63-3.4,5-6,.86-6-6.57-12.45-11-11C1660.32,594.85,1659,598.36,1658.93,601Z" transform="translate(-1086.42 -183.81)"/><path class="cls-15" d="M1600.93,439c-.09,5.52,5.48,11,10,10,2.66-.61,4.63-3.4,5-6,.86-6-6.57-12.45-11-11C1602.32,432.85,1601,436.36,1600.93,439Z" transform="translate(-1086.42 -183.81)"/><path class="cls-16" d="M1141,616c.09,5.52-5.47,11-10,10-2.66-.61-4.63-3.4-5-6-.86-6,6.57-12.45,11-11C1139.61,609.85,1141,613.36,1141,616Z" transform="translate(-1086.42 -183.81)"/><circle class="cls-17" cx="183.08" cy="469.69" r="11"/><path class="cls-13" d="M1402,606q2.51-42,5-84l11,10c.57,9.89.93,20.23,1,31,.09,13.68-.29,26.7-1,39l-6,4Z" transform="translate(-1086.42 -183.81)"/><polygon class="cls-18" points="335.58 46.19 445.58 104.19 361.58 101.19 335.58 46.19"/><polygon class="cls-18" points="368.58 115.19 445.58 107.19 433.58 172.19 323.39 118.98 331.58 52.19 362.58 115.19 368.58 115.19"/><text class="cls-19" transform="translate(504.08 248.19)"><tspan class="cls-20">L</tspan><tspan x="5.5" y="0">o</tspan><tspan class="cls-21" x="12.08" y="0">r</tspan><tspan x="15.89" y="0">em ipsum</tspan></text></g><g id="Layer_5" data-name="Layer 5"><path class="cls-22" d="M1218,279v87c-1.51,3.58.06,10.12,3,12,3.35,2.15,12.88,2.77,16,0,11.33-6.33,17.67-16.67,29-23l17,36,6,2,4-2,19-63,34-20a44,44,0,0,0,17-25q3.49-46.5,7-93a17.8,17.8,0,0,0-7-5,18.52,18.52,0,0,0-13,0c-39.82,25.21-63.89,38.08-79.41,44.8-9.24,4-19.24,10.43-38.59,24.2a36.05,36.05,0,0,0-9,9C1218.61,269.37,1217.4,275.66,1218,279Z" transform="translate(-1086.42 -183.81)"/><path class="cls-23" d="M1554,296v87a11,11,0,0,1-4,11,11.16,11.16,0,0,1-14-1c-11.33-6.33-18.67-14.67-30-21l-17,36-6,2-4-2-19-63-34-20a44,44,0,0,1-17-25V209c.47-1.17-.93-2.67,3-5,3.4-2,9.69-.06,11,0,62.38,36.75,107.71,60.39,117,67a36.05,36.05,0,0,1,9,9C1553.39,286.37,1554.6,292.66,1554,296Z" transform="translate(-1086.42 -183.81)"/><path class="cls-23" d="M1722,452v87a11,11,0,0,1-4,11,11.16,11.16,0,0,1-14-1c-11.33-6.33-18.67-14.67-30-21l-17,36-6,2-4-2-19-63-34-20a44,44,0,0,1-17-25V365c.47-1.17-.93-2.67,3-5,3.4-2,9.69-.06,11,0,62.38,36.75,107.71,60.39,117,67a36.05,36.05,0,0,1,9,9C1721.39,442.37,1722.6,448.66,1722,452Z" transform="translate(-1086.42 -183.81)"/><path class="cls-22" d="M1087,497v87c-1.51,3.58.06,10.12,3,12,3.35,2.15,12.88,2.77,16,0,11.33-6.33,17.67-16.67,29-23l17,36,6,2,4-2,19-63,34-20a44,44,0,0,0,17-25V410a14.38,14.38,0,0,0-14-9c-62.38,36.75-107.71,64.39-117,71a36.05,36.05,0,0,0-9,9C1087.61,487.37,1086.4,493.66,1087,497Z" transform="translate(-1086.42 -183.81)"/><path class="cls-23" d="M1225,280v87a9,9,0,0,0,15,8l34-19,17,36,6,2,4-2,19-63,34-20a44,44,0,0,0,17-25V193a9.1,9.1,0,0,0-3-5,9.32,9.32,0,0,0-7-2c-64.72,35.47-111.7,62.38-121,69a35.23,35.23,0,0,0-15,25Z" transform="translate(-1086.42 -183.81)"/><path class="cls-22" d="M1550.9,298v87a9,9,0,0,1-15,8l-34-19-17,36-6,2-4-2-19-63-34-20a44,44,0,0,1-17-25V211a9.17,9.17,0,0,1,3-5,9.32,9.32,0,0,1,7-2c64.73,35.47,111.71,62.38,121,69a35.23,35.23,0,0,1,15,25Z" transform="translate(-1086.42 -183.81)"/><path class="cls-22" d="M1719,454v87a9,9,0,0,1-15,8l-34-19-17,36-6,2-4-2-19-63-34-20a44,44,0,0,1-17-25V367a9.1,9.1,0,0,1,3-5,9.32,9.32,0,0,1,7-2c64.72,35.47,111.7,62.38,121,69a35.23,35.23,0,0,1,15,25Z" transform="translate(-1086.42 -183.81)"/><path class="cls-23" d="M1095,498v87a9,9,0,0,0,15,8l34-19,17,36,6,2,4-2,19-63,34-20a44,44,0,0,0,17-25V411a14.38,14.38,0,0,0-14-9c-62.38,36.75-107.71,64.39-117,71a35.23,35.23,0,0,0-15,25Z" transform="translate(-1086.42 -183.81)"/><polygon class="cls-18" points="202.44 60.24 192.08 66.27 193.08 145.19 202.44 141.16 202.44 60.24"/><polygon class="cls-18" points="169.85 104.19 180.27 110.13 253.58 67.66 241.16 61.73 169.85 104.19"/><polygon class="cls-18" points="172.85 130.6 180.27 138.53 250.58 98.07 240.16 92.14 172.85 130.6"/><polygon class="cls-18" points="227.49 48.19 217.99 54.21 217.99 135.14 227.49 129.11 227.49 48.19"/><path class="cls-18" d="M1141.8,463l10.79,6.39a3.59,3.59,0,0,1,1.33,5L1143.42,491a3.59,3.59,0,0,0,1.47,5.07l39.46,21.26a3.73,3.73,0,0,0,5-1.35l8.62-15.49a3.74,3.74,0,0,1,5.17-1.27l8.38,4.94a3.59,3.59,0,0,1,1.39,4.9l-7.76,13.22c-5.32,9.05-17.33,12.09-27,6.84l-44-23.91c-9.45-5.13-12.78-16.69-7.32-25.36l9.9-15.7A3.74,3.74,0,0,1,1141.8,463Z" transform="translate(-1086.42 -183.81)"/><polygon class="cls-23" points="40.5 282.52 136.44 336.2 128.84 343.22 32.57 290.47 40.5 282.52"/><path class="cls-18" d="M1440,144" transform="translate(-1086.42 -183.81)"/><path class="cls-18" d="M1560,164" transform="translate(-1086.42 -183.81)"/><path class="cls-15" d="M1658.93,626c-.09,5.52,5.48,11,10,10,2.66-.61,4.63-3.4,5-6,.86-6-6.57-12.45-11-11C1660.32,619.85,1659,623.36,1658.93,626Z" transform="translate(-1086.42 -183.81)"/><path class="cls-3" d="M1498,506.72c0,1.31,1.82,2.62,3.32,2.38a2,2,0,0,0,1.66-1.43c.28-1.43-2.18-3-3.65-2.62A1.79,1.79,0,0,0,1498,506.72Z" transform="translate(-1086.42 -183.81)"/><path class="cls-24" d="M1599.93,438c-.09,5.52,5.48,11,10,10,2.66-.61,4.63-3.4,5-6,.86-6-6.57-12.45-11-11C1601.32,431.85,1600,435.36,1599.93,438Z" transform="translate(-1086.42 -183.81)"/><path class="cls-24" d="M1636.93,458c-.09,5.52,5.48,11,10,10,2.66-.61,4.63-3.4,5-6,.86-6-6.57-12.45-11-11C1638.32,451.85,1637,455.36,1636.93,458Z" transform="translate(-1086.42 -183.81)"/><path class="cls-24" d="M1672.93,477c-.09,5.52,5.48,11,10,10,2.66-.61,4.63-3.4,5-6,.86-6-6.57-12.45-11-11C1674.32,470.85,1673,474.36,1672.93,477Z" transform="translate(-1086.42 -183.81)"/></g><g id="Layer_8" data-name="Layer 8"><path class="cls-18" d="M1426,242.67v37.81a8,8,0,0,0,4.94,7.2l8.59,3.88-3.38,15.25L1448,296.13l37.8,21.91c4.21,2.44,9.77-.19,9.92-4.7l1.21-36a6.66,6.66,0,0,0-3.88-6.11l-62.67-30.94C1428.4,239.36,1426,240.64,1426,242.67Z" transform="translate(-1086.42 -183.81)"/><path class="cls-25" d="M1470,289.4v34a7.2,7.2,0,0,0,4.38,6.47l7.63,3.49-3,13.7,10.5-9.59,33.54,19.69c3.73,2.19,8.66-.18,8.79-4.23l1.08-32.32a6,6,0,0,0-3.44-5.49l-55.6-27.8A2.62,2.62,0,0,0,1470,289.4Z" transform="translate(-1086.42 -183.81)"/></g></svg>