<?xml version="1.0" encoding="utf-8"?>
<!-- Generator: Adobe Illustrator 22.0.1, SVG Export Plug-In . SVG Version: 6.00 Build 0)  -->
<svg version="1.1" id="OBJECTS" xmlns="http://www.w3.org/2000/svg" xmlns:xlink="http://www.w3.org/1999/xlink" x="0px" y="0px"
	 viewBox="0 0 434 213.5" style="enable-background:new 0 0 434 213.5;" xml:space="preserve">
<style type="text/css">
	.st0{fill:url(#SVGID_1_);}
	.st1{fill:url(#SVGID_2_);}
	.st2{fill:url(#SVGID_3_);}
	.st3{fill:url(#SVGID_4_);}
	.st4{fill:url(#SVGID_5_);}
	.st5{fill:url(#SVGID_6_);}
	.st6{fill:url(#SVGID_7_);}
	.st7{fill:url(#SVGID_8_);}
	.st8{fill:url(#SVGID_9_);}
	.st9{fill:url(#SVGID_10_);}
	.st10{fill:url(#SVGID_11_);}
	.st11{fill:#F2E7B8;}
	.st12{fill:#FFE2D1;}
	.st13{fill:#34302E;}
	.st14{fill:#F5B893;}
	.st15{fill:#DFCD7B;}
	.st16{fill:#E0D490;}
	.st17{fill:#DFCB77;}
	.st18{fill:#F4B893;}
	.st19{fill:#413B38;}
	.st20{fill:#72FC9B;}
	.st21{fill:#EFEFEF;}
	.st22{fill:url(#SVGID_12_);}
	.st23{fill:url(#SVGID_13_);}
</style>
<g>
	
		<linearGradient id="SVGID_1_" gradientUnits="userSpaceOnUse" x1="338.3782" y1="63.2876" x2="356.4364" y2="63.2876" gradientTransform="matrix(0.9859 0.1674 -0.1674 0.9859 19.2871 -62.3081)">
		<stop  offset="0" style="stop-color:#9CFFD2"/>
		<stop  offset="1" style="stop-color:#79DE6E"/>
	</linearGradient>
	<path class="st0" d="M349.5,74.5c1.1-0.2,3.7-0.5,3.7-0.5s2.6-0.4,3.7-0.5c1.1-0.2,0.9-1.2,0.9-1.2l-2.2-9.6
		c-0.6-2.5-0.9-5-1.1-7.5L354,43.4c-0.2-1.7-1.4-1.5-1.4-1.5l-3.6,0.5l-3.6,0.5c0,0-1.1,0.1-0.9,1.8l2.6,11.5c0.6,2.5,0.9,5,1,7.6
		l0.4,9.8C348.4,73.6,348.4,74.7,349.5,74.5z"/>
	
		<linearGradient id="SVGID_2_" gradientUnits="userSpaceOnUse" x1="348.055" y1="110.8625" x2="388.0024" y2="110.8625" gradientTransform="matrix(0.9859 0.1674 -0.1674 0.9859 19.2871 -62.3081)">
		<stop  offset="0" style="stop-color:#9CFFD2"/>
		<stop  offset="1" style="stop-color:#79DE6E"/>
	</linearGradient>
	<path class="st1" d="M382,115.5l-3-2l-3-2c0,0-0.9-0.7-1.9,0.7l-5.7,10.3c-1.1,2-2.4,3.9-3.8,5.7l-0.2-0.8
		c-0.3-1.1-0.5-2.2-0.6-3.3c0.1-0.4,0.2-0.7,0.3-1.1l3.8-11.2c0.4-1.7-0.7-1.9-0.7-1.9l-3.5-0.9l-0.8-0.2l0-0.8c0,0,0,0,0-0.1
		c0.6,0.1,1,0.3,1,0.3s2.6,0.6,3.7,0.9c1.1,0.3,1.2-0.8,1.2-0.8l1.4-9.7c0.4-2.5,1-5,1.8-7.4l3.8-11.2c0.4-1.7-0.7-1.9-0.7-1.9
		l-3.5-0.9l-3.5-0.9c0,0-1.1-0.3-1.5,1.3l-1.8,11.7c-0.4,2.5-1,5-1.9,7.4l-1.3,3.7L360,95c-0.6-2.5-0.9-5-1.1-7.5l-0.6-11.8
		c-0.2-1.7-1.4-1.5-1.4-1.5l-3.6,0.5l-3.6,0.5c0,0-1.1,0.1-0.9,1.8l2.6,11.5c0.6,2.5,0.9,5,1,7.6l0.4,9.8c0,0,0,1,1.2,0.9
		c1.1-0.2,3.7-0.5,3.7-0.5s0.8-0.1,1.7-0.2l0,0.1c0,0-0.1,0.4,0,0.7l-1.6,0.2l-3.6,0.5c0,0-1.1,0.1-0.9,1.8l2.6,11.5
		c0.2,0.9,0.3,1.7,0.5,2.6c-0.4,1.7-0.8,3.4-1.4,5.1l-3.2,9.3c0,0-0.4,1,0.8,1.3c1.1,0.3,3.7,0.9,3.7,0.9s2.6,0.6,3.7,0.9
		c1.1,0.3,1.2-0.8,1.2-0.8l0.1-0.4c0.2,0.1,0.3,0.2,0.3,0.2s2.2,1.5,3.1,2.1c0.9,0.6,1.4-0.3,1.4-0.3l4.7-8.7
		c1.2-2.2,2.6-4.4,4.2-6.4l7.4-9.2C383,116,382,115.5,382,115.5z"/>
	
		<linearGradient id="SVGID_3_" gradientUnits="userSpaceOnUse" x1="365.7248" y1="76.6492" x2="434.8202" y2="76.6492" gradientTransform="matrix(0.9859 0.1674 -0.1674 0.9859 19.2871 -62.3081)">
		<stop  offset="0" style="stop-color:#9CFFD2"/>
		<stop  offset="1" style="stop-color:#79DE6E"/>
	</linearGradient>
	<path class="st2" d="M415,116.4c0.2,0,0.3,0.1,0.5,0.1c0.4,0.1,0.8,0.1,1.1,0.2c0.4,1.9,13.4-0.9,13.4-0.9s-12.4-1.1-13.4,0.6
		c-0.3-0.1-0.7-0.2-1-0.3c1.2-0.5,3.4-3,5.3-5.2c3.1,1.5,6.5,2.7,6.5,2.7s-2.7-2.1-5.5-3.9c1.4-1.8,2.4-3.2,2.4-3.2
		s-1.5,1.1-3.3,2.6c-1.6-1-3.2-1.9-4.3-2.2c0.5-0.1,1-0.3,1.5-0.4c1.6,1.2,13-3.3,13-3.3s-13,1-13.1,2.9c-0.9,0.2-1.8,0.4-2.8,0.6
		c-0.1,0-0.2,0-0.3,0.1c1.9-2,4.8-11.9,4.8-11.9s-2.3,3.6-4.1,6.9c-2.4-0.9-9.5-3.4-11.6-3c0.2-0.3,0.5-0.5,0.7-0.8
		c1.7,0.9,11.6-6.8,11.6-6.8s-12.4,4.7-11.8,6.5c-0.3,0.2-0.5,0.5-0.9,0.8c-0.1,0.1-0.2,0.2-0.3,0.4c0.5-2.3-0.7-8.7-1.2-11.3
		l4.6-8.6c1.2-2.2,2.6-4.4,4.2-6.4l7.4-9.2c1-1.4,0-2,0-2l-3-2l-3-2c0,0-0.9-0.7-1.9,0.7l-1,1.8c-1.5-1-3-1.7-3.9-2
		c0.2,0,0.3-0.1,0.5-0.1c0.4-0.2,0.7-0.3,1.1-0.4c1.3,1.4,11-7.8,11-7.8s-11.2,5.5-11.1,7.5c-0.3,0.1-0.7,0.2-1,0.3
		c0.8-1.1,1.4-4.3,1.8-7.2c3.4-0.4,6.9-1.1,6.9-1.1s-3.4-0.4-6.7-0.5c0.3-2.2,0.4-4,0.4-4s-0.7,1.7-1.5,3.9c-1.9,0-3.7,0-4.8,0.3
		c0.4-0.4,0.7-0.8,1.1-1.2c2,0.2,9.4-9.5,9.4-9.5s-10.6,7.7-9.7,9.3c-0.6,0.6-1.4,1.3-2.1,2c-0.1,0.1-0.2,0.2-0.3,0.2
		c0.6-2.7-2.1-12.7-2.1-12.7s-0.1,4.3,0.1,8c-2.6,0.5-9.8,2-11.5,3.5c0.1-0.4,0.1-0.7,0.2-1c1.9-0.1,6.3-11.8,6.3-11.8
		s-8.1,10.5-6.6,11.7c-0.1,0.3-0.2,0.7-0.3,1.1c0,0.2-0.1,0.3-0.1,0.5c-1.1-2.9-7.8-10-7.8-10s2.3,4.5,4.4,7.8
		c-0.2-0.2-0.4-0.2-0.4-0.2l-3.5-0.9l-3.5-0.9c0,0-1.1-0.3-1.5,1.3l-1.8,11.7c-0.4,2.5-1,5-1.9,7.4l-3.2,9.3c0,0-0.4,1,0.8,1.3
		c1.1,0.3,3.7,0.9,3.7,0.9s2.6,0.6,3.7,0.9c1.1,0.3,1.2-0.8,1.2-0.8l0.7-5.2c0.7-0.5,2.5-2,4.9-4c0.8-0.6,1.6-1.3,2.5-2.1
		c0.9-0.7,1.8-1.5,2.7-2.4c1.8-1.6,3.7-3.3,5.5-5c0,0,0,0,0,0c0.1,0,0.3,0.1,0.6,0.1c0.5,0.1,1.2,0.2,2,0.3c0.8,0.1,1.8,0.2,2.8,0.2
		c0.5,0,1,0,1.6,0c0.5,0,1.1-0.1,1.6-0.1c0.5,0,1.1-0.1,1.6-0.2c0.5-0.1,0.9-0.2,1.4-0.3c-0.1,0.8,1.8,2,4.2,3.2l-3.9,7.1
		c-1.2,2.2-2.7,4.3-4.3,6.3l-6.2,7.6c0,0-0.7,0.8,0.3,1.4c0.9,0.6,3.1,2.1,3.1,2.1s2.2,1.5,3.1,2.1c0.5,0.3,0.9,0.2,1.1,0.1
		c-0.2,3.5-0.6,11.4,0.8,11.8c-0.3,0.4-0.6,0.7-0.9,1.1c-0.3,0.5-0.6,0.9-0.9,1.4c-0.3,0.5-0.6,0.9-0.8,1.4c-0.3,0.5-0.5,1-0.7,1.4
		c-0.4,0.9-0.8,1.8-1.1,2.6c-0.3,0.8-0.5,1.4-0.6,1.9c0,0,0,0.1,0,0.1c-0.4,0.1-0.8,0.1-1.2,0.2c-1.2,0.1-2.4,0.3-3.6,0.4
		c-1.1,0.1-2.2,0.2-3.2,0.3c-1.4,0.1-2.6,0.2-3.6,0.3l2.6-4.9c1.2-2.2,2.6-4.4,4.2-6.4l7.4-9.2c1-1.4,0-2,0-2l-3-2l-3-2
		c0,0-0.9-0.7-1.9,0.7l-5.7,10.3c-1.2,2.2-2.7,4.3-4.3,6.3l-6.2,7.6c0,0-0.7,0.8,0.3,1.4s3.1,2.1,3.1,2.1s2.2,1.5,3.1,2.1
		c0.9,0.6,1.4-0.3,1.4-0.3l0.7-1.3c1.2-0.1,3-0.4,5.2-0.7c1-0.1,2.1-0.3,3.2-0.5c1.1-0.2,2.3-0.4,3.6-0.6c2.3-0.4,4.8-0.9,7.3-1.4
		c0,0,0,0,0,0c0.1,0.1,0.2,0.2,0.4,0.4c0.4,0.3,0.9,0.8,1.6,1.3c0.7,0.5,1.4,1.1,2.3,1.6c0.4,0.3,0.9,0.6,1.4,0.8
		c0.5,0.3,1,0.5,1.4,0.8c0.5,0.2,1,0.5,1.5,0.7c0.5,0.2,0.9,0.3,1.3,0.5c-1.2,1.4,6.7,11.7,6.7,11.7S417.2,118.6,415,116.4z
		 M383.3,64.1c-0.9,0.7-1.8,1.3-2.6,1.9c-1.2,0.9-2.3,1.7-3.2,2.3l0.2-1.3c0.4-2.5,1-5,1.8-7.4l3.8-11.2c0.1-0.5,0.1-0.9,0-1.2
		c1.2,1.7,2.3,3,2.9,2.8c-0.1,0.5-0.1,0.9-0.1,1.4c0,0.5,0,1.1,0,1.6c0,0.5,0,1.1,0.1,1.6c0,0.5,0.1,1.1,0.1,1.6
		c0.1,1,0.3,2,0.4,2.8c0.2,0.8,0.3,1.5,0.5,1.9c0,0,0,0.1,0,0.1c-0.3,0.3-0.7,0.5-1,0.8C385.2,62.6,384.2,63.4,383.3,64.1z
		 M388.6,59.9c-0.1-0.4-0.3-0.8-0.4-1.3c-0.2-0.8-0.5-1.6-0.7-2.6c-0.1-0.5-0.2-1-0.3-1.5c-0.1-0.5-0.2-1-0.2-1.6
		c-0.1-0.5-0.1-1.1-0.1-1.6c0-0.5,0-1,0-1.5c0-0.2,0-0.4,0-0.5c1.5,0.8,9-2.9,11.6-4.2c0.2,2.6,0.6,4.8,1.3,5.1
		c-0.5,0.5-1.1,1-1.7,1.5c-0.9,0.8-1.9,1.7-2.9,2.5c-1,0.9-2,1.7-3,2.6C391,58,389.8,59,388.6,59.9z M402.9,57.6c-0.5,0-1,0-1.6,0
		c-0.5,0-1.1,0-1.6-0.1c-0.5,0-1-0.1-1.5-0.2c-1-0.1-1.9-0.3-2.7-0.4c-0.5-0.1-0.9-0.2-1.3-0.3c0.5-0.5,1.1-1,1.6-1.5
		c0.9-0.9,1.9-1.8,2.7-2.7c0.9-0.9,1.7-1.8,2.5-2.6c0,0,0.1-0.1,0.1-0.1c0.4,0.7,2.5,0.7,5.1,0.5c-1,3.1-1.9,6.4-1.3,7.3
		c-0.2,0-0.4,0.1-0.5,0.1C403.9,57.5,403.4,57.6,402.9,57.6z M399.8,108.1c0.2-0.8,0.4-1.7,0.8-2.6c0.2-0.5,0.3-1,0.5-1.4
		c0.2-0.5,0.4-1,0.6-1.5c0.2-0.5,0.5-0.9,0.7-1.4c0.3-0.4,0.5-0.9,0.8-1.3c0.1-0.1,0.2-0.3,0.3-0.4c0.9,1.4,9.2,2.3,12.1,2.5
		c-1.2,2.3-2,4.4-1.6,5c-0.7,0.1-1.5,0.3-2.2,0.4c-1.2,0.2-2.5,0.5-3.8,0.7c-1.3,0.2-2.6,0.4-3.9,0.6c-1.6,0.2-3.1,0.5-4.6,0.7
		C399.6,109,399.7,108.6,399.8,108.1z M411.6,114.1c-0.4-0.3-0.9-0.6-1.3-0.9c-0.4-0.3-0.8-0.6-1.2-0.9c-0.8-0.6-1.5-1.2-2-1.8
		c-0.4-0.3-0.7-0.7-0.9-0.9c0.7-0.2,1.4-0.3,2.2-0.5c1.3-0.3,2.5-0.6,3.7-0.9c1.2-0.3,2.4-0.6,3.5-0.9c0.1,0,0.1,0,0.2-0.1
		c0,0.8,1.8,1.9,4.1,3c-2.4,2.1-4.9,4.5-4.9,5.5c-0.2-0.1-0.3-0.1-0.5-0.2c-0.5-0.2-0.9-0.4-1.4-0.7
		C412.5,114.6,412,114.4,411.6,114.1z"/>
</g>
<g>
	
		<linearGradient id="SVGID_4_" gradientUnits="userSpaceOnUse" x1="56.165" y1="120.3214" x2="67.4152" y2="120.3214" gradientTransform="matrix(0.9501 -0.3119 0.3119 0.9501 -49.0432 -21.6676)">
		<stop  offset="0" style="stop-color:#9CFFD2"/>
		<stop  offset="1" style="stop-color:#79DE6E"/>
	</linearGradient>
	<path class="st3" d="M47.4,89.2c1.1-0.3,3.5-0.9,3.5-0.9s2.5-0.6,3.5-0.9c1.1-0.3,0.7-1.2,0.7-1.2L52,77.2
		c-0.8-2.3-1.4-4.7-1.8-7.1l-1.8-11.3c-0.4-1.6-1.5-1.3-1.5-1.3l-3.4,0.9l-3.4,0.9c0,0-1.1,0.2-0.7,1.8l3.7,10.8
		c0.8,2.3,1.4,4.7,1.7,7.1l1.4,9.4C46.2,88.4,46.4,89.4,47.4,89.2z"/>
	
		<linearGradient id="SVGID_5_" gradientUnits="userSpaceOnUse" x1="69.6579" y1="120.3214" x2="80.9081" y2="120.3214" gradientTransform="matrix(0.9501 -0.3119 0.3119 0.9501 -49.0432 -21.6676)">
		<stop  offset="0" style="stop-color:#9CFFD2"/>
		<stop  offset="1" style="stop-color:#79DE6E"/>
	</linearGradient>
	<path class="st4" d="M60.3,85c1.1-0.3,3.5-0.9,3.5-0.9s2.5-0.6,3.5-0.9C68.4,82.9,68,82,68,82L64.8,73c-0.8-2.3-1.4-4.7-1.8-7.1
		l-1.8-11.3c-0.4-1.6-1.5-1.3-1.5-1.3l-3.4,0.9l-3.4,0.9c0,0-1.1,0.2-0.7,1.8l3.7,10.8c0.8,2.3,1.4,4.7,1.7,7.1l1.4,9.4
		C59,84.2,59.2,85.2,60.3,85z"/>
	
		<linearGradient id="SVGID_6_" gradientUnits="userSpaceOnUse" x1="15.2577" y1="148.9059" x2="85.195" y2="148.9059" gradientTransform="matrix(0.9501 -0.3119 0.3119 0.9501 -49.0432 -21.6676)">
		<stop  offset="0" style="stop-color:#9CFFD2"/>
		<stop  offset="1" style="stop-color:#79DE6E"/>
	</linearGradient>
	<path class="st5" d="M77.3,91.5l-3.4-1l-3.4-1c0,0-0.5-0.2-1,0.3l-0.8-4.7c-0.4-1.6-1.5-1.3-1.5-1.3l-3.4,0.9l-3.4,0.9
		c0,0-1.1,0.2-0.7,1.8l3.7,10.8c0.8,2.3,1.4,4.7,1.7,7.1l0.2,1.5c-0.2,0.7-0.5,1.5-0.8,2.2l-2.4,6.1l-2.6-7.4
		c-0.8-2.3-1.4-4.7-1.8-7.1L56,89.3c-0.4-1.6-1.5-1.3-1.5-1.3l-3.4,0.9l-3.4,0.9c0,0-1.1,0.2-0.7,1.8l0.5,1.4
		c-0.8-0.4-1.7-0.9-2.6-1.4c-1-0.5-2.1-1.1-3.3-1.8c-1.2-0.6-2.4-1.3-3.6-2c-1.4-0.8-2.9-1.7-4.4-2.6l0,0l0,0
		c-1.1-0.7-2.3-1.4-3.4-2.1c-1.3-0.8-2.6-1.6-3.9-2.5c-1.3-0.8-2.5-1.6-3.7-2.5c-0.7-0.4-1.3-0.9-2-1.3c2-1-0.7-16-0.7-16
		s-1.5,12.3-0.3,15.4c-0.2-0.1-0.4-0.3-0.6-0.4c-0.9-0.7-1.8-1.3-2.6-1.9c0.8-2.1-13.1-9.3-13.1-9.3s10.5,10.2,12.7,9.6
		c0.5,0.4,1,0.8,1.5,1.2c-3.7-0.5-14.8,2.4-14.8,2.4s15.2,0.6,16-1.5c1,0.8,2.1,1.7,3.3,2.5c1.2,0.9,2.4,1.8,3.6,2.7
		c1.2,0.9,2.5,1.8,3.8,2.7c0.7,0.5,1.3,0.9,2,1.4c-0.3,0.1-0.7,0.2-1,0.3c-0.9,0.3-2.1,0.6-3.2,1c-0.6,0.2-1.2,0.4-1.8,0.7
		c-0.6,0.2-1.2,0.5-1.8,0.8c-0.6,0.3-1.2,0.6-1.7,0.9c-0.5,0.3-1,0.6-1.4,0.9c-0.4-2.2-15.9-2.3-15.9-2.3s11.2,3.5,14.8,3.1
		c-0.2,0.1-0.3,0.2-0.5,0.4c-0.4,0.3-0.7,0.6-1,0.9c-2.1-1.1-9.1,13.3-9.1,13.3S19,94.5,18,92.4c0.3-0.2,0.7-0.5,1-0.7
		c-0.5,1.7,0.4,6.2,1.3,9.9l-0.5,0.4l-2.9,2c0,0-0.9,0.6,0,1.9l7.4,8.7c1.6,1.9,3,3.9,4.2,6l4.7,8.2c0,0,0.5,0.9,1.4,0.2
		c0.9-0.6,3-2.1,3-2.1s2.1-1.5,3-2.1c0.9-0.6,0.2-1.4,0.2-1.4l-6.2-7.2c-1.6-1.8-3.1-3.8-4.3-6l-5.8-9.8c-1-1.3-1.8-0.6-1.8-0.6
		l-1.1,0.8c-0.1-4.1-0.5-8.8-1.6-9.5c0.2-0.1,0.4-0.2,0.6-0.3c0.5-0.3,1.1-0.5,1.6-0.8c0.6-0.2,1.2-0.5,1.8-0.7
		c0.6-0.2,1.2-0.4,1.8-0.6c0.6-0.2,1.2-0.3,1.8-0.5c1.1-0.3,2.2-0.5,3.2-0.6c0.9-0.1,1.7-0.2,2.3-0.3c0.3,0,0.5,0,0.6-0.1
		c0.1,0,0.2,0,0.2,0c1.1,0.7,2.2,1.4,3.2,2.1c1.2,0.8,2.4,1.6,3.5,2.3c1.1,0.7,2.2,1.4,3.2,2c2.1,1.3,3.8,2.3,5,3l2,5.8
		c0.8,2.3,1.4,4.7,1.7,7.1l1.4,9.4c0,0,0.1,1,1.2,0.7c1.1-0.3,3.5-0.9,3.5-0.9s1.4-0.3,2.5-0.6c0,0.2,0,0.5,0.3,0.7l-2.7,0.7
		l-3.4,0.9c0,0-1.1,0.2-0.7,1.8l3.4,9.8l-0.1,0.3c-0.5,2.4-1.2,4.8-2.1,7l-1.7,4.2l-1.3-1.5c-1.6-1.8-3.1-3.8-4.3-6l-5.8-9.8
		c-1-1.3-1.8-0.6-1.8-0.6l-2.9,2l-2.9,2c0,0-0.9,0.6,0,1.9l7.4,8.7c1.6,1.9,3,3.9,4.2,6l4.7,8.2c0,0,0.5,0.9,1.4,0.2
		c0.9-0.6,3-2.1,3-2.1s1.5-1,2.5-1.8c0.6,0.2,1.2,0.3,1.6,0.5c1.1,0.3,1.2-0.7,1.2-0.7l0.3-1.4l0,0.2c0,0,0.1,1,1.2,0.7
		c1.1-0.3,3.5-0.9,3.5-0.9s2.5-0.6,3.5-0.9c1.1-0.3,0.7-1.2,0.7-1.2l-3.2-8.9c-0.7-1.9-1.2-3.9-1.6-5.9l3.4-8.8
		c0.1-0.2,0.1-0.4,0.1-0.6l2,5.8c0.8,2.3,1.4,4.7,1.7,7.1l1.4,9.4c0,0,0.1,1,1.2,0.7c1.1-0.3,3.5-0.9,3.5-0.9s2.5-0.6,3.5-0.9
		c1.1-0.3,0.7-1.2,0.7-1.2l-3.2-8.9c-0.8-2.3-1.4-4.7-1.8-7.1l-1.8-11.3c-0.4-1.6-1.5-1.3-1.5-1.3l-3.4,0.9l-0.6,0.2l0.2-0.9
		c0.2,0,0.3-0.1,0.3-0.1s2.5-0.6,3.5-0.9c1.1-0.3,0.7-1.2,0.7-1.2l-2.4-6.8c0.2-0.6,0.4-1.1,0.6-1.7l4.1-10.6
		C78.4,91.7,77.3,91.5,77.3,91.5z M68.5,121.7l-3.4-1l-1.4-0.4l-0.1-0.5c0-0.2-0.1-0.3-0.1-0.4c0.9,0.3,1.8,0.5,1.8,0.5
		s2,0.6,3.2,0.9l0.4,1C68.7,121.8,68.5,121.7,68.5,121.7z"/>
	
		<linearGradient id="SVGID_7_" gradientUnits="userSpaceOnUse" x1="78.7278" y1="131.7813" x2="102.911" y2="131.7813" gradientTransform="matrix(0.9501 -0.3119 0.3119 0.9501 -49.0432 -21.6676)">
		<stop  offset="0" style="stop-color:#9CFFD2"/>
		<stop  offset="1" style="stop-color:#79DE6E"/>
	</linearGradient>
	<path class="st6" d="M86.1,61.4l-3.4-1l-3.4-1c0,0-1-0.4-1.5,1.2l-2.3,11.2c-0.5,2.4-1.2,4.8-2.1,7l-3.5,8.8c0,0-0.4,0.9,0.7,1.2
		c1.1,0.3,3.5,1,3.5,1s2.4,0.7,3.5,1c1.1,0.3,1.2-0.7,1.2-0.7l1.8-9.3c0.5-2.4,1.1-4.8,2-7.1l4.1-10.6
		C87.2,61.6,86.1,61.4,86.1,61.4z"/>
</g>
<linearGradient id="SVGID_8_" gradientUnits="userSpaceOnUse" x1="82.0933" y1="133.6005" x2="348.6354" y2="133.6005">
	<stop  offset="0" style="stop-color:#9CFFD2"/>
	<stop  offset="1" style="stop-color:#79DE6E"/>
</linearGradient>
<path class="st7" d="M347.8,120.3c-0.5,0.8-1.2,2-2.1,3.4c-0.9,1.4-1.9,3.1-2.9,4.9c-0.6,1.1-1.3,2.3-1.9,3.5c0-0.7,0.1-1.4,0.1-2.1
	c0.1-1.3,0.1-2.3,0.1-3.1c0-0.7,0-1.2,0-1.2s-0.4,1.6-1.1,4c-0.7,2.4-1.7,5.6-2.8,8.7c-0.2,0.5-0.4,1.1-0.6,1.6
	c-0.1-1.3-0.1-2.7-0.1-4.1c0-1.7,0.2-3.5,0.4-5.1c0.2-1.6,0.5-3.2,0.8-4.5c0.1-0.7,0.3-1.3,0.4-1.8c0.1-0.5,0.3-1,0.4-1.4
	c0.2-0.8,0.4-1.2,0.4-1.2s-0.2,0.4-0.6,1.1c-0.2,0.3-0.4,0.8-0.7,1.3c-0.3,0.5-0.5,1-0.8,1.7c-0.6,1.2-1.2,2.7-1.8,4.3
	c-0.6,1.6-1.1,3.3-1.6,5.1c-0.1,0.3-0.2,0.6-0.2,1c0-0.2,0-0.3,0-0.5c-0.1-2.3,0-4.5,0.1-6.7c0.1-2.2,0.3-4.1,0.4-5.9
	c0.1-1.7,0.4-3.3,0.7-4.3c0.1-0.5,0.3-1,0.4-1.2c0.1-0.3,0.2-0.4,0.2-0.4s-0.1,0.1-0.2,0.4c-0.1,0.3-0.3,0.7-0.6,1.2
	c-0.5,1-1,2.5-1.4,4.2c-0.2,0.8-0.4,1.7-0.7,2.7c-0.3-1.8-0.6-3.5-1-4.9c-0.5-1.6-1-2.9-1.4-3.7c-0.2-0.4-0.4-0.8-0.5-1
	c-0.1-0.2-0.2-0.3-0.2-0.3s0,0.1,0.1,0.4c0.1,0.2,0.2,0.6,0.3,1c0.2,0.9,0.5,2.2,0.7,3.8c0.2,1.6,0.2,3.5,0.1,5.5
	c-0.1,1-0.2,2.1-0.3,3.1c-0.1,1.1-0.3,2.1-0.5,3.2c-0.5,2.6-1.3,5.3-2,7.6c-0.1-1.9-0.1-3.9-0.2-5.8c0-2.4,0-4.8,0.1-7.1
	c0.1-2.3,0.2-4.4,0.3-6.2c0.1-0.9,0.1-1.7,0.2-2.5c0.1-0.7,0.1-1.4,0.2-1.9c0.1-1.1,0.1-1.7,0.1-1.7s-0.2,0.6-0.4,1.6
	c-0.1,0.5-0.3,1.1-0.5,1.9c-0.2,0.7-0.4,1.5-0.6,2.4c-0.4,1.8-0.8,3.9-1.3,6.1c-0.4,2.2-0.8,4.6-1.2,7.1c-0.1,0.9-0.3,1.9-0.4,2.8
	c-0.3-1.4-0.6-2.8-0.9-4.2c-0.4-1.9-0.6-3.9-0.7-5.8c0.4-1.1,0.8-2.1,1.2-3.1c0.6-1.5,1.1-2.8,1.5-3.7c0.4-0.9,0.6-1.4,0.6-1.4
	s-0.3,0.5-0.8,1.3c-0.5,0.8-1.2,2-2.1,3.4c-0.1,0.2-0.3,0.4-0.4,0.6c0-2.2,0.2-4.3,0.4-6.1c0.2-1,0.3-1.9,0.5-2.8
	c0-0.2,0.1-0.4,0.1-0.6c0-0.2,0.1-0.4,0.1-0.6c0.1-0.4,0.2-0.7,0.2-1c0.3-1.2,0.5-1.9,0.5-1.9s-0.3,0.6-0.7,1.8
	c-0.1,0.3-0.2,0.6-0.4,0.9c-0.1,0.2-0.1,0.3-0.2,0.5c-0.1,0.2-0.1,0.4-0.2,0.6c-0.3,0.8-0.6,1.7-0.9,2.7c-0.1,0.5-0.3,1-0.4,1.6
	c-0.1,0.4-0.2,0.8-0.3,1.2c0,0,0,0,0,0c0,0.1-0.1,0.3-0.1,0.4c-0.2,1.2-0.5,2.4-0.6,3.8c0,0.4-0.1,0.7-0.1,1.1
	c0,0.3-0.1,0.6-0.1,0.9c-0.4-1-0.9-2-1.3-2.8c-0.2-0.3-0.3-0.7-0.5-1c-0.2-0.3-0.3-0.6-0.5-0.8c-0.3-0.5-0.5-1-0.8-1.4
	c-0.4-0.7-0.7-1.2-0.7-1.2s0.2,0.5,0.4,1.3c0.1,0.4,0.3,0.9,0.5,1.5c0.1,0.3,0.2,0.6,0.3,0.9c0.1,0.3,0.2,0.7,0.3,1
	c0.1,0.4,0.2,0.9,0.3,1.4c-0.1,0.2-0.5,1.8-1.1,4c-0.7,2.4-1.7,5.6-2.8,8.7c-0.2,0.5-0.4,1.1-0.6,1.6c-0.1-1.3-0.1-2.7-0.1-4.1
	c0-1.7,0.2-3.5,0.4-5.1c0.2-1.6,0.5-3.2,0.8-4.5c0.1-0.7,0.3-1.3,0.4-1.8c0.1-0.5,0.3-1,0.4-1.4c0.2-0.8,0.4-1.2,0.4-1.2
	s-0.2,0.4-0.6,1.1c-0.2,0.3-0.4,0.8-0.7,1.3c-0.3,0.5-0.5,1-0.8,1.7c-0.6,1.2-1.2,2.7-1.8,4.3c-0.6,1.6-1.1,3.3-1.6,5.1
	c-0.1,0.3-0.2,0.6-0.2,1c0-0.2,0-0.3,0-0.5c-0.1-2.3,0-4.5,0.1-6.7c0-0.7,0.1-1.4,0.1-2.1c0.4-1,0.8-2,1.1-2.9
	c0.6-1.5,1.1-2.8,1.5-3.7c0.4-0.9,0.6-1.4,0.6-1.4s-0.3,0.5-0.8,1.3c-0.5,0.8-1.2,1.9-2.1,3.3c0.1-1.9,0.4-3.6,0.7-4.7
	c0.1-0.5,0.3-1,0.4-1.2c0.1-0.3,0.2-0.4,0.2-0.4s-0.1,0.1-0.2,0.4c-0.1,0.3-0.3,0.7-0.6,1.2c-0.5,1-1,2.5-1.4,4.2
	c-0.2,0.8-0.4,1.7-0.7,2.7c-0.1,0.3-0.2,0.7-0.2,1c-0.3,0.6-0.7,1.2-1,1.8c-0.6,1.1-1.3,2.3-1.9,3.5c0-0.7,0.1-1.4,0.1-2.1
	c0.1-1.3,0.1-2.3,0.1-3.1c0-0.7,0-1.2,0-1.2s-0.4,1.6-1.1,4c-0.7,2.4-1.7,5.6-2.8,8.7c-0.2,0.5-0.4,1.1-0.6,1.6
	c-0.1-1.3-0.1-2.7-0.1-4.1c0-1.7,0.2-3.5,0.4-5.1c0.2-1.6,0.5-3.2,0.8-4.5c0.1-0.7,0.3-1.3,0.4-1.8c0.1-0.5,0.3-1,0.4-1.4
	c0.2-0.8,0.4-1.2,0.4-1.2s-0.2,0.4-0.6,1.1c-0.2,0.3-0.4,0.8-0.7,1.3c-0.3,0.5-0.5,1-0.8,1.7c-0.6,1.2-1.2,2.7-1.8,4.3
	c-0.6,1.6-1.1,3.3-1.6,5.1c-0.1,0.3-0.2,0.6-0.2,1c0-0.2,0-0.3,0-0.5c-0.1-2.3,0-4.5,0.1-6.7c0.1-2.2,0.3-4.1,0.4-5.9
	c0.1-1.7,0.4-3.3,0.7-4.3c0.1-0.5,0.3-1,0.4-1.2c0.1-0.3,0.2-0.4,0.2-0.4s-0.1,0.1-0.2,0.4c-0.1,0.3-0.3,0.7-0.6,1.2
	c-0.5,1-1,2.5-1.4,4.2c-0.2,0.8-0.4,1.7-0.7,2.7c-0.1-0.7-0.2-1.4-0.4-2c0.5-1.3,1-2.4,1.3-3.2c0.4-0.9,0.6-1.4,0.6-1.4
	s-0.3,0.5-0.8,1.3c-0.3,0.6-0.8,1.3-1.3,2.1c-0.1-0.6-0.3-1.1-0.4-1.6c-0.5-1.6-1-2.9-1.4-3.7c-0.2-0.4-0.4-0.8-0.5-1
	c-0.1-0.2-0.2-0.3-0.2-0.3s0,0.1,0.1,0.4c0.1,0.2,0.2,0.6,0.3,1c0.2,0.9,0.5,2.2,0.7,3.8c0.1,1,0.2,2.2,0.2,3.4
	c-0.8,1.2-1.6,2.6-2.4,4.2c-0.6,1.1-1.3,2.3-1.9,3.5c0-0.7,0.1-1.4,0.1-2.1c0.1-1.3,0.1-2.3,0.1-3.1c0-0.7,0-1.2,0-1.2
	s-0.4,1.6-1.1,4c-0.7,2.4-1.7,5.6-2.8,8.7c-0.2,0.5-0.4,1.1-0.6,1.6c-0.1-1.3-0.1-2.7-0.1-4.1c0-1.7,0.2-3.5,0.4-5.1
	c0.2-1.6,0.5-3.2,0.8-4.5c0.1-0.7,0.3-1.3,0.4-1.8c0.1-0.5,0.3-1,0.4-1.4c0.2-0.8,0.4-1.2,0.4-1.2s-0.2,0.4-0.6,1.1
	c-0.2,0.3-0.4,0.8-0.7,1.3c-0.3,0.5-0.5,1-0.8,1.7c-0.6,1.2-1.2,2.7-1.8,4.3c-0.6,1.6-1.1,3.3-1.6,5.1c-0.1,0.3-0.2,0.6-0.2,1
	c0-0.2,0-0.3,0-0.5c-0.1-2.3,0-4.5,0.1-6.7c0.1-2.2,0.3-4.1,0.4-5.9c0.1-1.7,0.4-3.3,0.7-4.3c0.1-0.5,0.3-1,0.4-1.2
	c0.1-0.3,0.2-0.4,0.2-0.4s-0.1,0.1-0.2,0.4c-0.1,0.3-0.3,0.7-0.6,1.2c-0.5,1-1,2.5-1.4,4.2c-0.2,0.8-0.4,1.7-0.7,2.7
	c-0.3-1.8-0.6-3.5-1-4.9c-0.5-1.6-1-2.9-1.4-3.7c-0.2-0.4-0.4-0.8-0.5-1c-0.1-0.2-0.2-0.3-0.2-0.3s0,0.1,0.1,0.4
	c0.1,0.2,0.2,0.6,0.3,1c0.2,0.9,0.5,2.2,0.7,3.8c0.2,1.6,0.2,3.5,0.1,5.5c-0.1,1-0.2,2.1-0.3,3.1c-0.1,1.1-0.3,2.1-0.5,3.2
	c-0.5,2.6-1.3,5.3-2,7.6c-0.1-1.9-0.1-3.9-0.2-5.8c0-2.4,0-4.8,0.1-7.1c0.1-2.3,0.2-4.4,0.3-6.2c0.1-0.9,0.1-1.7,0.2-2.5
	c0.1-0.7,0.1-1.4,0.2-1.9c0.1-1.1,0.1-1.7,0.1-1.7s-0.2,0.6-0.4,1.6c-0.1,0.5-0.3,1.1-0.5,1.9c-0.2,0.7-0.4,1.5-0.6,2.4
	c-0.4,1.8-0.8,3.9-1.3,6.1c-0.4,2.2-0.8,4.6-1.2,7.1c-0.1,0.9-0.3,1.9-0.4,2.8c-0.3-1.4-0.6-2.8-0.9-4.2c-0.4-1.9-0.6-3.9-0.7-5.8
	c0.4-1.1,0.8-2.1,1.2-3.1c0.6-1.5,1.1-2.8,1.5-3.7c0.4-0.9,0.6-1.4,0.6-1.4s-0.3,0.5-0.8,1.3c-0.5,0.8-1.2,2-2.1,3.4
	c-0.1,0.2-0.3,0.4-0.4,0.6c0-2.2,0.2-4.3,0.4-6.1c0.2-1,0.3-1.9,0.5-2.8c0-0.2,0.1-0.4,0.1-0.6c0-0.2,0.1-0.4,0.1-0.6
	c0.1-0.4,0.2-0.7,0.2-1c0.3-1.2,0.5-1.9,0.5-1.9s-0.3,0.6-0.7,1.8c-0.1,0.3-0.2,0.6-0.4,0.9c-0.1,0.2-0.1,0.3-0.2,0.5
	c-0.1,0.2-0.1,0.4-0.2,0.6c-0.3,0.8-0.6,1.7-0.9,2.7c-0.1,0.5-0.3,1-0.4,1.6c-0.1,0.4-0.2,0.8-0.3,1.2c0,0,0,0,0,0
	c0,0.1-0.1,0.3-0.1,0.4c-0.2,1.2-0.5,2.4-0.6,3.8c0,0.4-0.1,0.7-0.1,1.1c0,0.3-0.1,0.6-0.1,0.9c-0.4-1-0.9-2-1.3-2.8
	c-0.2-0.3-0.3-0.7-0.5-1c-0.2-0.3-0.3-0.6-0.5-0.8c-0.3-0.5-0.5-1-0.8-1.4c-0.4-0.7-0.7-1.2-0.7-1.2s0.2,0.5,0.4,1.3
	c0.1,0.4,0.3,0.9,0.5,1.5c0.1,0.3,0.2,0.6,0.3,0.9c0.1,0.3,0.2,0.7,0.3,1c0.1,0.4,0.2,0.9,0.3,1.4c-0.1,0.2-0.5,1.8-1.1,4
	c-0.7,2.4-1.7,5.6-2.8,8.7c-0.2,0.5-0.4,1.1-0.6,1.6c-0.1-1.3-0.1-2.7-0.1-4.1c0-1.7,0.2-3.5,0.4-5.1c0.2-1.6,0.5-3.2,0.8-4.5
	c0.1-0.7,0.3-1.3,0.4-1.8c0.1-0.5,0.3-1,0.4-1.4c0.2-0.8,0.4-1.2,0.4-1.2s-0.2,0.4-0.6,1.1c-0.2,0.3-0.4,0.8-0.7,1.3
	c-0.3,0.5-0.5,1-0.8,1.7c-0.6,1.2-1.2,2.7-1.8,4.3c-0.6,1.6-1.1,3.3-1.6,5.1c-0.1,0.3-0.2,0.6-0.2,1c0-0.2,0-0.3,0-0.5
	c-0.1-2.3,0-4.5,0.1-6.7c0.1-2.2,0.3-4.1,0.4-5.9c0.1-1.7,0.4-3.3,0.7-4.3c0.1-0.5,0.3-1,0.4-1.2c0.1-0.3,0.2-0.4,0.2-0.4
	s-0.1,0.1-0.2,0.4c-0.1,0.3-0.3,0.7-0.6,1.2c-0.5,1-1,2.5-1.4,4.2c-0.2,0.8-0.4,1.7-0.7,2.7c-0.3-1.8-0.6-3.5-1-4.9
	c-0.5-1.6-1-2.9-1.4-3.7c-0.2-0.4-0.4-0.8-0.5-1c-0.1-0.2-0.2-0.3-0.2-0.3s0,0.1,0.1,0.4c0.1,0.2,0.2,0.6,0.3,1
	c0.2,0.9,0.5,2.2,0.7,3.8c0.2,1.6,0.2,3.5,0.1,5.5c-0.1,1-0.2,2.1-0.3,3.1c-0.1,1.1-0.3,2.1-0.5,3.2c-0.5,2.6-1.3,5.3-2,7.6
	c-0.1-1.9-0.1-3.9-0.2-5.8c0-2.4,0-4.8,0.1-7.1c0.1-2.3,0.2-4.4,0.3-6.2c0.1-0.9,0.1-1.7,0.2-2.5c0.1-0.7,0.1-1.4,0.2-1.9
	c0.1-1.1,0.1-1.7,0.1-1.7s-0.2,0.6-0.4,1.6c-0.1,0.5-0.3,1.1-0.5,1.9c-0.2,0.7-0.4,1.5-0.6,2.4c-0.4,1.8-0.8,3.9-1.3,6.1
	c-0.1,0.8-0.3,1.6-0.4,2.3c-0.8-9.2-1.2-17.6-1.2-17.6s-1.1,10.5-1.7,21.1c-0.1,1.1-0.1,2.3-0.2,3.4c-0.1,0.9-1.4,1-1.5,0
	c-0.2-1.7-0.3-3.4-0.5-5.1c-0.3-3.2-0.5-6.4-0.6-9.3c0.3-0.7,0.5-1.2,0.7-1.7c0.4-0.9,0.6-1.4,0.6-1.4s-0.3,0.5-0.8,1.3
	c-0.1,0.2-0.3,0.5-0.5,0.8c-0.1-1.4-0.1-2.7-0.1-3.9c-0.1-2-0.1-3.6-0.1-4.7c0-1.1,0-1.8,0-1.8s-0.1,0.6-0.2,1.8
	c-0.2,1.1-0.4,2.7-0.6,4.7c-0.3,2-0.5,4.5-0.8,7c-0.7,1.2-1.5,2.6-2.4,4c-0.6-1.5-1.2-2.9-1.8-4c-0.2-0.3-0.3-0.7-0.5-1
	c-0.2-0.3-0.3-0.6-0.5-0.8c-0.3-0.5-0.5-1-0.8-1.4c-0.4-0.7-0.7-1.2-0.7-1.2s0.2,0.5,0.4,1.3c0.1,0.4,0.3,0.9,0.5,1.5
	c0.1,0.3,0.2,0.6,0.3,0.9c0.1,0.3,0.2,0.7,0.3,1c0.2,0.8,0.4,1.6,0.6,2.5c-0.2,0.7-0.5,1.7-0.8,2.8c-0.7,2.4-1.7,5.6-2.8,8.7
	c-0.2,0.5-0.4,1.1-0.6,1.6c-0.1-1.3-0.1-2.7-0.1-4.1c0-1.7,0.2-3.5,0.4-5.1c0.2-1.6,0.5-3.2,0.8-4.5c0.1-0.7,0.3-1.3,0.4-1.8
	c0.1-0.5,0.3-1,0.4-1.4c0.2-0.8,0.4-1.2,0.4-1.2s-0.2,0.4-0.6,1.1c-0.2,0.3-0.4,0.8-0.7,1.3c-0.3,0.5-0.5,1-0.8,1.7
	c-0.6,1.2-1.2,2.7-1.8,4.3c-0.6,1.6-1.1,3.3-1.6,5.1c-0.1,0.3-0.2,0.6-0.2,1c0-0.2,0-0.3,0-0.5c-0.1-2.3,0-4.5,0.1-6.7
	c0.1-2.2,0.3-4.1,0.4-5.9c0.1-1.7,0.4-3.3,0.7-4.3c0.1-0.5,0.3-1,0.4-1.2c0.1-0.3,0.2-0.4,0.2-0.4s-0.1,0.1-0.2,0.4
	c-0.1,0.3-0.3,0.7-0.6,1.2c-0.5,1-1,2.5-1.4,4.2c-0.2,0.8-0.4,1.7-0.7,2.7c-0.3-1.8-0.6-3.5-1-4.9c-0.5-1.6-1-2.9-1.4-3.7
	c-0.2-0.4-0.4-0.8-0.5-1c-0.1-0.2-0.2-0.3-0.2-0.3s0,0.1,0.1,0.4c0.1,0.2,0.2,0.6,0.3,1c0.2,0.9,0.5,2.2,0.7,3.8
	c0.2,1.6,0.2,3.5,0.1,5.5c-0.1,1-0.2,2.1-0.3,3.1c-0.1,1.1-0.3,2.1-0.5,3.2c-0.5,2.6-1.3,5.3-2,7.6c-0.1-1.9-0.1-3.9-0.2-5.8
	c0-2.4,0-4.8,0.1-7.1c0.1-2.3,0.2-4.4,0.3-6.2c0.1-0.9,0.1-1.7,0.2-2.5c0.1-0.7,0.1-1.4,0.2-1.9c0.1-1.1,0.1-1.7,0.1-1.7
	s-0.2,0.6-0.4,1.6c-0.1,0.5-0.3,1.1-0.5,1.9c-0.2,0.7-0.4,1.5-0.6,2.4c-0.4,1.8-0.8,3.9-1.3,6.1c-0.4,2.2-0.8,4.6-1.2,7.1
	c-0.1,0.9-0.3,1.9-0.4,2.8c-0.3-1.4-0.6-2.8-0.9-4.2c-0.4-1.9-0.6-3.9-0.7-5.8c0.4-1.1,0.8-2.1,1.2-3.1c0.6-1.5,1.1-2.8,1.5-3.7
	c0.4-0.9,0.6-1.4,0.6-1.4s-0.3,0.5-0.8,1.3c-0.5,0.8-1.2,2-2.1,3.4c-0.1,0.2-0.3,0.4-0.4,0.6c0-2.2,0.2-4.3,0.4-6.1
	c0.2-1,0.3-1.9,0.5-2.8c0-0.2,0.1-0.4,0.1-0.6c0-0.2,0.1-0.4,0.1-0.6c0.1-0.4,0.2-0.7,0.2-1c0.3-1.2,0.5-1.9,0.5-1.9
	s-0.3,0.6-0.7,1.8c-0.1,0.3-0.2,0.6-0.4,0.9c-0.1,0.2-0.1,0.3-0.2,0.5c-0.1,0.2-0.1,0.4-0.2,0.6c-0.3,0.8-0.6,1.7-0.9,2.7
	c-0.1,0.5-0.3,1-0.4,1.6c-0.1,0.4-0.2,0.8-0.3,1.2c0,0,0,0,0,0c0,0.1-0.1,0.3-0.1,0.4c-0.2,1.2-0.5,2.4-0.6,3.8
	c0,0.4-0.1,0.7-0.1,1.1c0,0.3-0.1,0.6-0.1,0.9c-0.4-1-0.9-2-1.3-2.8c-0.2-0.3-0.3-0.7-0.5-1c-0.2-0.3-0.3-0.6-0.5-0.8
	c-0.3-0.5-0.5-1-0.8-1.4c-0.4-0.7-0.7-1.2-0.7-1.2s0.2,0.5,0.4,1.3c0.1,0.4,0.3,0.9,0.5,1.5c0.1,0.3,0.2,0.6,0.3,0.9
	c0.1,0.3,0.2,0.7,0.3,1c0.1,0.4,0.2,0.9,0.3,1.4c-0.1,0.2-0.5,1.8-1.1,4c-0.7,2.4-1.7,5.6-2.8,8.7c-0.2,0.5-0.4,1.1-0.6,1.6
	c-0.1-1.3-0.1-2.7-0.1-4.1c0-1.7,0.2-3.5,0.4-5.1c0.2-1.6,0.5-3.2,0.8-4.5c0.1-0.7,0.3-1.3,0.4-1.8c0.1-0.5,0.3-1,0.4-1.4
	c0.2-0.8,0.4-1.2,0.4-1.2s-0.2,0.4-0.6,1.1c-0.2,0.3-0.4,0.8-0.7,1.3c-0.3,0.5-0.5,1-0.8,1.7c-0.6,1.2-1.2,2.7-1.8,4.3
	c-0.6,1.6-1.1,3.3-1.6,5.1c-0.1,0.3-0.2,0.6-0.2,1c0-0.2,0-0.3,0-0.5c-0.1-2.3,0-4.5,0.1-6.7c0.1-2.2,0.3-4.1,0.4-5.9
	c0.1-1.7,0.4-3.3,0.7-4.3c0.1-0.5,0.3-1,0.4-1.2c0.1-0.3,0.2-0.4,0.2-0.4s-0.1,0.1-0.2,0.4c-0.1,0.3-0.3,0.7-0.6,1.2
	c-0.5,1-1,2.5-1.4,4.2c-0.2,0.8-0.4,1.7-0.7,2.7c-0.3-1.8-0.6-3.5-1-4.9c-0.5-1.6-1-2.9-1.4-3.7c-0.2-0.4-0.4-0.8-0.5-1
	c-0.1-0.2-0.2-0.3-0.2-0.3s0,0.1,0.1,0.4c0.1,0.2,0.2,0.6,0.3,1c0.2,0.9,0.5,2.2,0.7,3.8c0.2,1.6,0.2,3.5,0.1,5.5
	c-0.1,1-0.2,2.1-0.3,3.1c-0.1,1.1-0.3,2.1-0.5,3.2c-0.5,2.6-1.3,5.3-2,7.6c-0.1-1.9-0.1-3.9-0.2-5.8c0-2.4,0-4.8,0.1-7.1
	c0.1-2.3,0.2-4.4,0.3-6.2c0.1-0.9,0.1-1.7,0.2-2.5c0.1-0.7,0.1-1.4,0.2-1.9c0.1-1.1,0.1-1.7,0.1-1.7s-0.2,0.6-0.4,1.6
	c-0.1,0.5-0.3,1.1-0.5,1.9c-0.2,0.7-0.4,1.5-0.6,2.4c-0.4,1.8-0.8,3.9-1.3,6.1c-0.1,0.8-0.3,1.6-0.4,2.3c-0.8-9.2-1.2-17.6-1.2-17.6
	s-0.7,17.7-2.1,21c-0.3,0.6-0.9,1.1-1.5,0.8c0,0,0,0,0,0c-1.2-1.7-0.8-10.3-0.9-13.8c0.3-0.6,0.4-1,0.4-1s-0.1,0.2-0.4,0.6
	c0-0.9-0.1-1.7-0.1-2.5c-0.1-2-0.1-3.6-0.1-4.7c0-1.1,0-1.8,0-1.8s-0.1,0.6-0.2,1.8c-0.2,1.1-0.4,2.7-0.6,4.7
	c-0.2,1.5-0.4,3.3-0.6,5.2c-0.3,0.4-0.6,0.9-0.9,1.4c-0.7,1-1.4,2.2-2.1,3.5c-0.5-1.1-0.9-2.2-1.4-3.1c-0.2-0.3-0.3-0.7-0.5-1
	c-0.2-0.3-0.3-0.6-0.5-0.8c-0.3-0.5-0.5-1-0.8-1.4c-0.4-0.7-0.7-1.2-0.7-1.2s0.2,0.5,0.4,1.3c0.1,0.4,0.3,0.9,0.5,1.5
	c0.1,0.3,0.2,0.6,0.3,0.9c0.1,0.3,0.2,0.7,0.3,1c0.4,1.4,0.8,3.1,1.1,5c-0.5,0.9-0.9,1.7-1.4,2.6c0-0.7,0.1-1.4,0.1-2.1
	c0.1-1.3,0.1-2.3,0.1-3.1c0-0.7,0-1.2,0-1.2s-0.4,1.6-1.1,4c-0.7,2.4-1.7,5.6-2.8,8.7c-0.2,0.5-0.4,1.1-0.6,1.6
	c-0.1-1.3-0.1-2.7-0.1-4.1c0-1.7,0.2-3.5,0.4-5.1c0.2-1.6,0.5-3.2,0.8-4.5c0.1-0.7,0.3-1.3,0.4-1.8c0.1-0.5,0.3-1,0.4-1.4
	c0.2-0.8,0.4-1.2,0.4-1.2s-0.2,0.4-0.6,1.1c-0.2,0.3-0.4,0.8-0.7,1.3c-0.3,0.5-0.5,1-0.8,1.7c-0.6,1.2-1.2,2.7-1.8,4.3
	c-0.6,1.6-1.1,3.3-1.6,5.1c-0.1,0.3-0.2,0.6-0.2,1c0-0.2,0-0.3,0-0.5c-0.1-2.3,0-4.5,0.1-6.7c0.1-2.2,0.3-4.1,0.4-5.9
	c0.1-1.7,0.4-3.3,0.7-4.3c0.1-0.5,0.3-1,0.4-1.2c0.1-0.3,0.2-0.4,0.2-0.4s-0.1,0.1-0.2,0.4c-0.1,0.3-0.3,0.7-0.6,1.2
	c-0.5,1-1,2.5-1.4,4.2c-0.2,0.8-0.4,1.7-0.7,2.7c-0.3-1.8-0.6-3.5-1-4.9c-0.5-1.6-1-2.9-1.4-3.7c-0.2-0.4-0.4-0.8-0.5-1
	c-0.1-0.2-0.2-0.3-0.2-0.3s0,0.1,0.1,0.4c0.1,0.2,0.2,0.6,0.3,1c0.2,0.9,0.5,2.2,0.7,3.8c0.2,1.6,0.2,3.5,0.1,5.5
	c-0.1,1-0.2,2.1-0.3,3.1c-0.1,1.1-0.3,2.1-0.5,3.2c-0.5,2.6-1.3,5.3-2,7.6c-0.1-1.9-0.1-3.9-0.2-5.8c0-2.4,0-4.8,0.1-7.1
	c0.1-2.3,0.2-4.4,0.3-6.2c0.1-0.9,0.1-1.7,0.2-2.5c0.1-0.7,0.1-1.4,0.2-1.9c0.1-1.1,0.1-1.7,0.1-1.7s-0.2,0.6-0.4,1.6
	c-0.1,0.5-0.3,1.1-0.5,1.9c-0.2,0.7-0.4,1.5-0.6,2.4c-0.4,1.8-0.8,3.9-1.3,6.1c-0.4,2.2-0.8,4.6-1.2,7.1c-0.1,0.9-0.3,1.9-0.4,2.8
	c-0.3-1.4-0.6-2.8-0.9-4.2c-0.4-1.9-0.6-3.9-0.7-5.8c0.4-1.1,0.8-2.1,1.2-3.1c0.6-1.5,1.1-2.8,1.5-3.7c0.4-0.9,0.6-1.4,0.6-1.4
	s-0.3,0.5-0.8,1.3c-0.5,0.8-1.2,2-2.1,3.4c-0.1,0.2-0.3,0.4-0.4,0.6c0-2.2,0.2-4.3,0.4-6.1c0.2-1,0.3-1.9,0.5-2.8
	c0-0.2,0.1-0.4,0.1-0.6c0-0.2,0.1-0.4,0.1-0.6c0.1-0.4,0.2-0.7,0.2-1c0.3-1.2,0.5-1.9,0.5-1.9s-0.3,0.6-0.7,1.8
	c-0.1,0.3-0.2,0.6-0.4,0.9c-0.1,0.2-0.1,0.3-0.2,0.5c-0.1,0.2-0.1,0.4-0.2,0.6c-0.3,0.8-0.6,1.7-0.9,2.7c-0.1,0.5-0.3,1-0.4,1.6
	c-0.1,0.4-0.2,0.8-0.3,1.2c0,0,0,0,0,0c0,0.1-0.1,0.3-0.1,0.4c-0.2,1.2-0.5,2.4-0.6,3.8l-0.1,1.1c0,0.3-0.1,0.6-0.1,0.9
	c-0.4-1-0.9-2-1.3-2.8c-0.2-0.3-0.3-0.7-0.5-1c-0.2-0.3-0.3-0.6-0.5-0.8c-0.3-0.5-0.5-1-0.8-1.4c-0.4-0.7-0.7-1.2-0.7-1.2
	s0.2,0.5,0.4,1.3c0.1,0.4,0.3,0.9,0.5,1.5c0.1,0.3,0.2,0.6,0.3,0.9c0.1,0.3,0.2,0.7,0.3,1c0.1,0.4,0.2,0.9,0.3,1.4
	c-0.1,0.2-0.5,1.8-1.1,4c-0.7,2.4-1.7,5.6-2.8,8.7c-0.2,0.5-0.4,1.1-0.6,1.6c-0.1-1.3-0.1-2.7-0.1-4.1c0-1.7,0.2-3.5,0.4-5.1
	c0.2-1.6,0.5-3.2,0.8-4.5c0.1-0.7,0.3-1.3,0.4-1.8c0.1-0.5,0.3-1,0.4-1.4c0.2-0.8,0.4-1.2,0.4-1.2s-0.2,0.4-0.6,1.1
	c-0.2,0.3-0.4,0.8-0.7,1.3c-0.3,0.5-0.5,1-0.8,1.7c-0.6,1.2-1.2,2.7-1.8,4.3c-0.6,1.6-1.1,3.3-1.6,5.1c-0.1,0.3-0.2,0.6-0.2,1
	c0-0.2,0-0.3,0-0.5c-0.1-2.3,0-4.5,0.1-6.7c0.1-2.2,0.3-4.1,0.4-5.9c0.1-1.7,0.4-3.3,0.7-4.3c0.1-0.5,0.3-1,0.4-1.2
	c0.1-0.3,0.2-0.4,0.2-0.4s-0.1,0.1-0.2,0.4c-0.1,0.3-0.3,0.7-0.6,1.2c-0.5,1-1,2.5-1.4,4.2c-0.2,0.8-0.4,1.7-0.7,2.7
	c-0.3-1.8-0.6-3.5-1-4.9c-0.5-1.6-1-2.9-1.4-3.7c-0.2-0.4-0.4-0.8-0.5-1c-0.1-0.2-0.2-0.3-0.2-0.3s0,0.1,0.1,0.4
	c0.1,0.2,0.2,0.6,0.3,1c0.2,0.9,0.5,2.2,0.7,3.8c0.2,1.6,0.2,3.5,0.1,5.5c-0.1,1-0.2,2.1-0.3,3.1c-0.1,1.1-0.3,2.1-0.5,3.2
	c-0.5,2.6-1.3,5.3-2,7.6c-0.1-1.9-0.1-3.9-0.2-5.8c0-2.4,0-4.8,0.1-7.1c0.1-2.3,0.2-4.4,0.3-6.2c0.1-0.9,0.1-1.7,0.2-2.5
	c0.1-0.7,0.1-1.4,0.2-1.9c0.1-1.1,0.1-1.7,0.1-1.7s-0.2,0.6-0.4,1.6c-0.1,0.5-0.3,1.1-0.5,1.9c-0.2,0.7-0.4,1.5-0.6,2.4
	c-0.4,1.8-0.8,3.9-1.3,6.1c-0.1,0.8-0.3,1.6-0.4,2.3c-0.8-9.2-1.2-17.6-1.2-17.6s-1.1,10.5-1.7,21.1c-0.3,4.4-0.5,8.8-0.6,12.5
	c-0.5-3.8-1.1-9-1.6-14.1c-0.3-3.2-0.5-6.4-0.6-9.3c0.3-0.7,0.5-1.2,0.7-1.7c0.4-0.9,0.6-1.4,0.6-1.4s-0.3,0.5-0.8,1.3
	c-0.1,0.2-0.3,0.5-0.5,0.8c-0.1-1.4-0.1-2.7-0.1-3.9c-0.1-2-0.1-3.6-0.1-4.7c0-1.1,0-1.8,0-1.8s-0.1,0.6-0.2,1.8
	c-0.2,1.1-0.4,2.7-0.6,4.7c-0.3,2-0.5,4.5-0.8,7c-0.7,1.2-1.5,2.6-2.4,4c-0.6-1.5-1.2-2.9-1.8-4c-0.2-0.3-0.3-0.7-0.5-1
	c-0.2-0.3-0.3-0.6-0.5-0.8c-0.3-0.5-0.5-1-0.8-1.4c-0.4-0.7-0.7-1.2-0.7-1.2s0.2,0.5,0.4,1.3c0.1,0.4,0.3,0.9,0.5,1.5
	c0.1,0.3,0.2,0.6,0.3,0.9c0.1,0.3,0.2,0.7,0.3,1c0.2,0.8,0.4,1.6,0.6,2.5c-0.2,0.7-0.5,1.7-0.8,2.8c-0.7,2.4-1.7,5.6-2.8,8.7
	c-0.2,0.5-0.4,1.1-0.6,1.6c-0.1-1.3-0.1-2.7-0.1-4.1c0-1.7,0.2-3.5,0.4-5.1c0.2-1.6,0.5-3.2,0.8-4.5c0.1-0.7,0.3-1.3,0.4-1.8
	c0.1-0.5,0.3-1,0.4-1.4c0.2-0.8,0.4-1.2,0.4-1.2s-0.2,0.4-0.6,1.1c-0.2,0.3-0.4,0.8-0.7,1.3c-0.3,0.5-0.5,1-0.8,1.7
	c-0.6,1.2-1.2,2.7-1.8,4.3c-0.6,1.6-1.1,3.3-1.6,5.1c-0.1,0.3-0.2,0.6-0.2,1c0-0.2,0-0.3,0-0.5c-0.1-2.3,0-4.5,0.1-6.7
	c0.1-2.2,0.3-4.1,0.4-5.9c0.1-1.7,0.4-3.3,0.7-4.3c0.1-0.5,0.3-1,0.4-1.2c0.1-0.3,0.2-0.4,0.2-0.4s-0.1,0.1-0.2,0.4
	c-0.1,0.3-0.3,0.7-0.6,1.2c-0.5,1-1,2.5-1.4,4.2c-0.2,0.8-0.4,1.7-0.7,2.7c-0.3-1.8-0.6-3.5-1-4.9c-0.5-1.6-1-2.9-1.4-3.7
	c-0.2-0.4-0.4-0.8-0.5-1c-0.1-0.2-0.2-0.3-0.2-0.3s0,0.1,0.1,0.4c0.1,0.2,0.2,0.6,0.3,1c0.2,0.9,0.5,2.2,0.7,3.8
	c0.2,1.6,0.2,3.5,0.1,5.5c-0.1,1-0.2,2.1-0.3,3.1c-0.1,1.1-0.3,2.1-0.5,3.2c-0.5,2.6-1.3,5.3-2,7.6c-0.1-1.9-0.1-3.9-0.2-5.8
	c0-2.4,0-4.8,0.1-7.1c0.1-2.3,0.2-4.4,0.3-6.2c0.1-0.9,0.1-1.7,0.2-2.5c0.1-0.7,0.1-1.4,0.2-1.9c0.1-1.1,0.1-1.7,0.1-1.7
	s-0.2,0.6-0.4,1.6c-0.1,0.5-0.3,1.1-0.5,1.9c-0.2,0.7-0.4,1.5-0.6,2.4c-0.4,1.8-0.8,3.9-1.3,6.1c-0.4,2.2-0.8,4.6-1.2,7.1
	c-0.1,0.9-0.3,1.9-0.4,2.8c-0.3-1.4-0.6-2.8-0.9-4.2c-0.4-1.9-0.6-3.9-0.7-5.8c0.4-1.1,0.8-2.1,1.2-3.1c0.6-1.5,1.1-2.8,1.5-3.7
	c0.4-0.9,0.6-1.4,0.6-1.4s-0.3,0.5-0.8,1.3c-0.5,0.8-1.2,2-2.1,3.4c-0.1,0.2-0.3,0.4-0.4,0.6c0-2.2,0.2-4.3,0.4-6.1
	c0.2-1,0.3-1.9,0.5-2.8c0-0.2,0.1-0.4,0.1-0.6c0-0.2,0.1-0.4,0.1-0.6c0.1-0.4,0.2-0.7,0.2-1c0.3-1.2,0.5-1.9,0.5-1.9
	s-0.3,0.6-0.7,1.8c-0.1,0.3-0.2,0.6-0.4,0.9c-0.1,0.2-0.1,0.3-0.2,0.5c-0.1,0.2-0.1,0.4-0.2,0.6c-0.3,0.8-0.6,1.7-0.9,2.7
	c-0.1,0.5-0.3,1-0.4,1.6c-0.1,0.4-0.2,0.8-0.3,1.2c0,0,0,0,0,0c0,0.1-0.1,0.3-0.1,0.4c-0.2,1.2-0.5,2.4-0.6,3.8l-0.1,1.1
	c0,0.3-0.1,0.6-0.1,0.9c-0.4-1-0.9-2-1.3-2.8c-0.2-0.3-0.3-0.7-0.5-1c-0.2-0.3-0.3-0.6-0.5-0.8c-0.3-0.5-0.5-1-0.8-1.4
	c-0.4-0.7-0.7-1.2-0.7-1.2s0.2,0.5,0.4,1.3c0.1,0.4,0.3,0.9,0.5,1.5c0.1,0.3,0.2,0.6,0.3,0.9c0.1,0.3,0.2,0.7,0.3,1
	c0.1,0.4,0.2,0.9,0.3,1.4c-0.1,0.2-0.5,1.8-1.1,4c-0.7,2.4-1.7,5.6-2.8,8.7c-0.2,0.5-0.4,1.1-0.6,1.6c-0.1-1.3-0.1-2.7-0.1-4.1
	c0-1.7,0.2-3.5,0.4-5.1c0.2-1.6,0.5-3.2,0.8-4.5c0.1-0.7,0.3-1.3,0.4-1.8c0.1-0.5,0.3-1,0.4-1.4c0.2-0.8,0.4-1.2,0.4-1.2
	s-0.2,0.4-0.6,1.1c-0.2,0.3-0.4,0.8-0.7,1.3c-0.3,0.5-0.5,1-0.8,1.7c-0.6,1.2-1.2,2.7-1.8,4.3c-0.6,1.6-1.1,3.3-1.6,5.1
	c-0.1,0.3-0.2,0.6-0.2,1c0-0.2,0-0.3,0-0.5c-0.1-2.3,0-4.5,0.1-6.7c0.1-2.2,0.3-4.1,0.4-5.9c0.1-1.7,0.4-3.3,0.7-4.3
	c0.1-0.5,0.3-1,0.4-1.2c0.1-0.3,0.2-0.4,0.2-0.4s-0.1,0.1-0.2,0.4c-0.1,0.3-0.3,0.7-0.6,1.2c-0.5,1-1,2.5-1.4,4.2
	c-0.2,0.8-0.4,1.7-0.7,2.7c-0.3-1.8-0.6-3.5-1-4.9c-0.5-1.6-1-2.9-1.4-3.7c-0.2-0.4-0.4-0.8-0.5-1c-0.1-0.2-0.2-0.3-0.2-0.3
	s0,0.1,0.1,0.4c0.1,0.2,0.2,0.6,0.3,1c0.2,0.9,0.5,2.2,0.7,3.8c0.2,1.6,0.2,3.5,0.1,5.5c-0.1,1-0.2,2.1-0.3,3.1
	c-0.1,1.1-0.3,2.1-0.5,3.2c-0.5,2.6-1.3,5.3-2,7.6c-0.1-1.9-0.1-3.9-0.2-5.8c0-2.4,0-4.8,0.1-7.1c0.1-2.3,0.2-4.4,0.3-6.2
	c0.1-0.9,0.1-1.7,0.2-2.5c0.1-0.7,0.1-1.4,0.2-1.9c0.1-1.1,0.1-1.7,0.1-1.7s-0.2,0.6-0.4,1.6c-0.1,0.5-0.3,1.1-0.5,1.9
	c-0.2,0.7-0.4,1.5-0.6,2.4c-0.4,1.8-0.8,3.9-1.3,6.1c-0.1,0.8-0.3,1.6-0.4,2.3c-0.8-9.2-1.2-17.6-1.2-17.6s-1.1,10.5-1.7,21.1
	c-0.1,1-0.1,2-0.2,3c-0.1,1-1.5,1-1.6,0c-0.2-1.5-0.3-3.1-0.4-4.7c-0.4-5.2-0.7-10.4-0.8-14.3c-0.1-2-0.1-3.6-0.1-4.7
	c0-1.1,0-1.8,0-1.8s-0.1,0.6-0.2,1.8c-0.2,1.1-0.4,2.7-0.6,4.7c-0.5,3.9-1,9.1-1.4,14.3c0,0.5-0.1,1-0.1,1.5
	c-0.4-1.4-0.9-2.8-1.4-4.1c-0.7-1.8-1.4-3.4-2.1-4.7c-0.2-0.3-0.3-0.7-0.5-1c-0.2-0.3-0.3-0.6-0.5-0.8c-0.3-0.5-0.5-1-0.8-1.4
	c-0.4-0.7-0.7-1.2-0.7-1.2s0.2,0.5,0.4,1.3c0.1,0.4,0.3,0.9,0.5,1.5c0.1,0.3,0.2,0.6,0.3,0.9c0.1,0.3,0.2,0.7,0.3,1
	c0.4,1.4,0.7,3.1,1.1,4.8c0.3,1.8,0.5,3.7,0.7,5.6c0.1,1.9,0.2,3.8,0.1,5.6c-0.1,1.8,0,16.1,0,16.1h255.9c0,0,0-12.9,0.2-14.9
	c0.3-2,0.7-4.1,1.2-6.2c0.5-2.1,1.2-4.2,1.9-6.1c0.7-1.9,1.4-3.8,2-5.3c0.6-1.5,1.1-2.8,1.5-3.7c0.4-0.9,0.6-1.4,0.6-1.4
	S348.3,119.5,347.8,120.3z M112.3,132c0-0.7,0.1-1.4,0.1-2.1c0.1-1.3,0.1-2.3,0.1-3.1c0-0.6,0-1,0-1.1c0.3,1.1,0.5,2.2,0.7,3.4
	c0,0.2,0.1,0.5,0.1,0.7C113,130.6,112.6,131.3,112.3,132z M135.6,132c0-0.7,0.1-1.4,0.1-2.1c0-0.7,0.1-1.3,0.1-1.8
	c0.1,0.4,0.1,0.7,0.2,1.1c0.1,0.5,0.2,1,0.2,1.5C136,131.2,135.8,131.6,135.6,132z M139.5,131.4c0,0.5-0.1,1-0.1,1.5
	c-0.2-0.7-0.4-1.3-0.6-1.9c0.2-0.5,0.3-1.1,0.5-1.6c0.2-0.4,0.3-0.9,0.5-1.3C139.6,129.2,139.5,130.3,139.5,131.4z M163.7,132
	c0-0.7,0.1-1.4,0.1-2.1c0.1-1.3,0.1-2.3,0.1-3.1c0-0.6,0-1,0-1.1c0.3,1.1,0.5,2.2,0.7,3.4c0,0.2,0.1,0.5,0.1,0.7
	C164.4,130.6,164,131.3,163.7,132z M191.8,131.4c0,0.5-0.1,1-0.1,1.5c-0.4-1.1-0.7-2.3-1.1-3.3c0-0.1,0-0.1,0.1-0.2
	c0.6-1.7,1.2-3.3,1.7-4.6C192.1,126.9,192,129.1,191.8,131.4z M216,132c0-0.7,0.1-1.4,0.1-2.1c0.1-1.3,0.1-2.3,0.1-3.1
	c0-0.6,0-1,0-1.1c0.3,1.1,0.5,2.2,0.7,3.4c0,0.2,0.1,0.5,0.1,0.7C216.7,130.6,216.4,131.3,216,132z M239.3,132
	c0-0.7,0.1-1.4,0.1-2.1c0-0.7,0.1-1.3,0.1-1.8c0.1,0.4,0.1,0.7,0.2,1.1c0.1,0.5,0.2,1,0.2,1.5C239.8,131.2,239.5,131.6,239.3,132z
	 M243.2,131.4c0,0.5-0.1,1-0.1,1.5c-0.2-0.7-0.4-1.3-0.6-1.9c0.2-0.5,0.3-1.1,0.5-1.6c0.2-0.4,0.3-0.9,0.5-1.3
	C243.3,129.2,243.3,130.3,243.2,131.4z M267.4,132c0-0.7,0.1-1.4,0.1-2.1c0.1-1.3,0.1-2.3,0.1-3.1c0-0.6,0-1,0-1.1
	c0.3,1.1,0.5,2.2,0.7,3.4c0,0.2,0.1,0.5,0.1,0.7C268.1,130.6,267.8,131.3,267.4,132z M294.7,129.6c-0.1,1.1-0.3,2.1-0.5,3.2
	c-0.8,3.9-2,7.7-3.1,10.8c0.1-0.6,0.1-1.2,0.2-1.8c0.3-2,0.7-4.1,1.2-6.2c0.5-2.1,1.2-4.2,1.9-6.1c0.2-0.5,0.3-0.9,0.5-1.4
	C294.8,128.5,294.8,129,294.7,129.6z M317.7,132c0-0.7,0.1-1.4,0.1-2.1c0.1-1.3,0.1-2.3,0.1-3.1c0-0.6,0-1,0-1.1
	c0.3,1.1,0.5,2.2,0.7,3.4c0,0.2,0.1,0.5,0.1,0.7C318.4,130.6,318,131.3,317.7,132z"/>
<g>
	
		<linearGradient id="SVGID_9_" gradientUnits="userSpaceOnUse" x1="-70.7206" y1="59.5977" x2="-70.7206" y2="149.5508" gradientTransform="matrix(-1 0 0 -1 15.1294 216)">
		<stop  offset="0" style="stop-color:#9CFFD2"/>
		<stop  offset="1" style="stop-color:#79DE6E"/>
	</linearGradient>
	<path class="st8" d="M5.3,158.6c0-0.3,0-0.5,0-0.8c0-11.3,9.2-20.5,20.5-20.5c4.8,0,9.2,1.7,12.7,4.5c5.4-9,15.3-15.1,26.7-15.1
		c1,0,1.9,0.1,2.9,0.1c3.4-16.5,18.1-29,35.7-29c20.1,0,36.4,16.3,36.4,36.4c0,0.1,0,0.1,0,0.2c0.9-0.1,1.8-0.2,2.7-0.2
		c13,0,23.5,10.5,23.5,23.5c0,0.3,0,0.5,0,0.8L5.3,158.6L5.3,158.6z"/>
</g>
<g>
	
		<linearGradient id="SVGID_10_" gradientUnits="userSpaceOnUse" x1="-332.9206" y1="59.4103" x2="-332.9206" y2="149.3634" gradientTransform="matrix(-1 0 0 -1 15.1294 216)">
		<stop  offset="0" style="stop-color:#9CFFD2"/>
		<stop  offset="1" style="stop-color:#79DE6E"/>
	</linearGradient>
	<path class="st9" d="M267.5,158.8c0-0.3,0-0.5,0-0.8c0-11.3,9.2-20.5,20.5-20.5c4.8,0,9.2,1.7,12.7,4.5c5.4-9,15.3-15.1,26.7-15.1
		c1,0,1.9,0.1,2.9,0.1c3.4-16.5,18.1-29,35.7-29c20.1,0,36.4,16.3,36.4,36.4c0,0.1,0,0.1,0,0.2c0.9-0.1,1.8-0.2,2.7-0.2
		c13,0,23.5,10.5,23.5,23.5c0,0.3,0,0.5,0,0.8L267.5,158.8L267.5,158.8z"/>
</g>
<g>
	
		<linearGradient id="SVGID_11_" gradientUnits="userSpaceOnUse" x1="221.8" y1="10.6667" x2="221.8" y2="59.3744" gradientTransform="matrix(1 0 0 -1 0 216)">
		<stop  offset="0" style="stop-color:#9CFFD2"/>
		<stop  offset="0.2574" style="stop-color:#97FACE"/>
		<stop  offset="0.5736" style="stop-color:#89EDC4"/>
		<stop  offset="0.9193" style="stop-color:#71D7B4"/>
		<stop  offset="1" style="stop-color:#6AD1AF"/>
	</linearGradient>
	<path class="st10" d="M195.6,206.1c0-37.8,52.4-37.8,52.4,0v7.4h19.5v-7.4c0-62.1-91.4-62.2-91.4,0v7.4h19.5V206.1z"/>
</g>
<g>
	<path class="st11" d="M224.4,116.4c-0.1,0.4,0.3,0.6,0.4,1c0,0.1,0,0.3,0.1,0.3c0.4,0.3,0.9,0.6,1.4,0.7c0.4,0.1,0.8,0.1,1.2,0.3
		c0.3,0.2,0.5,0.1,0.8-0.1c0.3,0.4,0.5,0.8,0.6,1.2c0.3,1,0.8,1.9,1.1,3c-0.1,0.1-0.1,0.2,0,0.3c0.3,1,0.6,2,0.9,3.1
		c0.4,1.6,0.7,3.1,1,4.7c0,0.2,0,0.4-0.2,0.5c-0.3,0.3-0.5,0.5-0.8,0.8c-0.1,0.1-0.2,0.2-0.2,0.4c0.2,0.1,0.5,0,0.8,0
		c0.7,0,1.1-0.5,1.1-1.2c0-0.1,0-0.2,0-0.3c0.3-0.3,0.2-0.6,0.2-0.9c0-0.4-0.1-0.7-0.2-1.1c-0.1-0.6-0.3-1.2-0.3-1.9
		c0.3,0,0.4,0.1,0.6,0.3c1.3,1.2,2.4,2.6,3.5,4.1c1.1,1.5,2,3.1,2.9,4.7c1.2,2.3,2.2,4.7,3.1,7.1c1.3,3.4,2.2,7,3.2,10.5
		c0,0.1,0.1,0.3,0.1,0.4c-0.3,0.9,0.1,1.8,0.1,2.7c0,0.8-0.1,1.5-0.6,2.2c-0.4,0.5-0.9,0.8-1.5,0.9c-0.2,0-0.3,0.1-0.5,0.1
		c-0.4,0-0.7,0.2-0.8,0.6c-0.5-0.1-1.1-0.3-1.6-0.3c-0.1,0-0.3,0-0.4-0.1c-0.6-0.3-1.3-0.3-2-0.3c-1,0.1-2-0.3-2.9-0.8
		c-1-0.5-2-1-3-1.2c-0.9-0.2-1.7-0.4-2.6-0.8c-0.3-0.1-0.6-0.3-1-0.3c-0.4-0.1-0.9-0.2-1.3-0.4c-1.8-0.6-3.6-1.3-5.4-2
		c-0.6-0.2-1.2-0.5-1.7-0.8c-1.4-0.7-2.8-1.3-4.3-1.9c-1.4-0.6-2.7-1.3-4-2.1c-0.5-0.3-1.1-0.6-1.6-1c-0.4-0.3-1-0.4-1.4-0.7
		c-1.7-0.9-3.5-1.9-5.1-3c-0.9-0.7-1.9-1.3-2.7-2c-0.5-0.4-1.1-0.7-1.6-1.1c-1.7-1.2-3.3-2.4-5-3.6c-1-0.8-2.1-1.5-3.1-2.3
		c-1.5-1.1-2.9-2.3-3.9-3.9c-0.3-0.6-0.8-1-1.3-1.4c-0.4-0.3-0.7-0.6-1-1c-0.5-0.6-1.1-1.3-1.5-2c-0.3-0.6-0.8-1.1-1.2-1.6
		c-0.7-0.7-1.2-1.6-1.7-2.4c-0.4-0.6-0.8-1.1-1.2-1.6c-0.1-0.1-0.2-0.3-0.4-0.4c0-0.3,0.2-0.5,0.4-0.7c0.8-0.8,1.6-1.7,2.5-2.4
		c1.8-1.7,3.8-3.2,6.1-4.2c1.2-0.5,2.3-1,3.6-1.2c0.2,0,0.4-0.2,0.6-0.3c0.8-0.6,1.6-1.2,2.3-1.8c0,0,0.1,0,0.2-0.1
		c0.3,0,0.5-0.1,0.7-0.2c1-0.6,2-1.1,3.2-1c0.1,0,0.3,0,0.3-0.1c0.1,0,0.2,0,0.4,0c0.5,0.1,0.9-0.1,1.1-0.5c0.1,0.2,0.2,0.4,0.1,0.7
		c-0.1,0.5,0,0.9,0,1.4c0.1,0.9,0.4,1.6,0.9,2.2c0.7,0.9,1.6,1.7,2.3,2.6c1.5,1.6,3.1,3,4.8,4.4c0.6,0.5,1.2,1.1,1.9,1.6
		c0.7,0.6,1.4,1.3,2,2c0.1,0.2,0.2,0.5,0.5,0.5c-0.3,0.7-0.8,1.2-1.2,1.8c-0.4,0.6-0.9,1.1-1.3,1.7c-0.1,0.1-0.2,0.2-0.1,0.3
		c0,0.2,0.3,0.7,0.5,0.7c0.3,0,0.4-0.3,0.5-0.4c0.2-0.3,0.4-0.6,0.7-0.9c0,0.1,0.1,0.2,0.1,0.2c-0.1,1.6,0.1,3.2-0.1,4.9
		c-0.1,0.8-0.2,1.5-0.3,2.3c-0.1,0.5-0.2,1-0.2,1.6c0,0.3,0.1,0.5,0.4,0.5c0.4,0,0.5-0.1,0.6-0.4c0.3-1.6,0.5-3.1,0.5-4.7
		c0-0.2,0-0.3,0-0.5c0.2-1.5,0.2-3,0-4.5c0-0.4,0-0.9,0.1-1.3c0-0.2,0.1-0.3,0.3-0.3c0.4-0.2,0.7-0.4,1.1-0.5
		c1.1-0.3,2.2-0.2,3.3-0.2c0.4,0,0.5,0.1,0.6,0.5c0.3,0.9,0.6,1.9,0.8,2.9c0.3,1.5,0.6,3,0.8,4.5c0.2,1.4,0.3,2.7,0.3,4.1
		c0,0.9,0,1.8,0,2.7c0,0.6,0.3,0.7,0.8,0.6c0.1,0,0.3-0.1,0.4-0.2c1.4-0.8,2.8-1.6,4.1-2.6c0.2-0.2,0.6-0.3,0.7-0.7
		c-0.4,0.2-0.8,0.2-1.1,0.1c-0.4,0-0.8,0.1-1.1,0.3c-0.7,0.5-1.4,0.9-2.1,1.3c-0.2,0.1-0.5,0.3-0.8,0.4c-0.1-0.2-0.1-0.5-0.1-0.7
		c0-1.1,0.1-2.2,0-3.3c-0.1-1.3-0.3-2.5-0.5-3.8c-0.3-2-0.8-3.9-1.3-5.8c-0.2-0.6-0.4-1.1-1.1-1.3c0-0.3,0.2-0.4,0.4-0.5
		c1.1-0.8,2-1.7,2.8-2.7c0.9-1.2,1.6-2.5,1.9-4C223.9,116.5,224.1,116.4,224.4,116.4z M215.8,130.1
		C215.8,130.1,215.8,130.1,215.8,130.1c0,0.1,0,0.3,0,0.4c0,1.2,0,2.5-0.2,3.7c-0.1,1.1-0.2,2.3-0.3,3.4c-0.1,1.3,0,2.7,0,4.1
		c0,0.1,0.1,0.2,0.1,0.4c0.1,0.3,0.4,0.4,0.7,0.4c0.3-0.1,0.3-0.3,0.3-0.5c0-0.6,0.1-1.3-0.1-1.9c-0.1-0.2,0-0.4,0-0.6
		c0.1-0.2,0.1-0.5,0.1-0.7c-0.1-1.4,0.2-2.8,0.3-4.2c0.1-1.2,0.2-2.3,0.2-3.5c0-1-0.3-2,0-3.1c0.1-0.4,0.1-0.7,0.6-0.9
		c0.2-0.1,0.2-0.3,0.2-0.5c0-0.2-0.1-0.3-0.2-0.4c-0.4-0.2-1.1,0-1.4,0.4c-0.2,0.3-0.3,0.6-0.3,0.9
		C215.8,128.4,215.8,129.2,215.8,130.1z M188.1,115.8c-0.1,0-0.2,0-0.3,0.1c-0.1,0.1,0,0.2,0.1,0.3c0.1,0.1,0.2,0.2,0.3,0.3
		c0.8,0.6,1.3,1.3,1.7,2.2c1,1.9,1.6,3.9,2.5,5.9c0.8,1.9,1.6,3.8,2.6,5.7c0.1,0.1,0.1,0.3,0.2,0.4c0.1,0.1,0.1,0.1,0.2,0
		c0.3-0.2,0.4-0.9,0.3-1.2c-0.7-1.4-1.3-2.8-1.9-4.2c-0.8-2-1.7-4-2.5-5.9c-0.4-1-0.9-1.9-1.5-2.8
		C189.2,116,188.7,115.9,188.1,115.8z M205,139.1c0.3,0,0.4-0.1,0.5-0.4c0.2-1.1,0.7-2.1,1.2-3.1c0-0.1,0.1-0.1,0.1-0.2
		c0.1-0.3-0.1-0.6-0.4-0.8c-0.3-0.1-0.3,0.2-0.4,0.3c-0.4,0.6-0.7,1.2-1,1.9c-0.4,1.1-0.4,1.1-1.4,0.5c-0.4-0.3-0.9-0.5-1.4-0.8
		c-0.3-0.2-0.4-0.1-0.7,0.3c-0.2,0.3,0,0.4,0.2,0.5c0.9,0.6,1.9,1.1,2.9,1.6C204.8,139.1,204.9,139.1,205,139.1z M216.5,146.2
		c0-0.5,0.1-1.1-0.1-1.6c-0.1-0.2-0.2-0.3-0.4-0.4c-0.2,0-0.5,0-0.6,0.2c-0.2,0.2-0.2,0.5,0,0.7c0.2,0.3,0.2,0.7,0.1,1
		c0,0.1-0.1,0.3-0.1,0.4c0.2,0.6,0.1,1.1,0.1,1.7c0,0.8,0.2,1.5,0.4,2.2c0.1,0.4,0.4,0.5,0.7,0.4c0.3-0.1,0.4-0.3,0.3-0.7
		C216.6,149,216.6,147.6,216.5,146.2z"/>
	<path class="st12" d="M213.2,124.9c-0.3,0-0.4-0.3-0.5-0.5c-0.6-0.7-1.3-1.4-2-2c-0.6-0.5-1.2-1.1-1.9-1.6
		c-1.7-1.4-3.3-2.8-4.8-4.4c-0.8-0.8-1.7-1.6-2.3-2.6c-0.5-0.7-0.9-1.4-0.9-2.2c0-0.5-0.1-0.9,0-1.4c0.1-0.2,0-0.5-0.1-0.7
		c1-1.7,2-3.5,2.8-5.3c0.7-1.6,1.3-3.1,1.9-4.7c0.4-1,0.6-2,1-3.1c0.1-0.2,0-0.4,0-0.6c0.1,0,0.2,0,0.3-0.1c0.1-0.3,0.1-0.6,0.1-0.9
		c-0.2-0.7-0.3-1.3-0.4-2c-0.1-0.5-0.4-0.9-0.9-1.1c-0.4-0.2-0.9-0.3-1.2-0.5c-3-1.7-5-4.1-5.7-7.5c-0.3-1.4-0.1-2.8,0.9-4
		c0.7-0.9,1.6-1.3,2.8-1.2c0.6,0.1,1.2,0.2,1.7,0.5c0.6,0.3,1.1,0.6,1.6,1c0.2,0.2,0.4,0.2,0.6,0.1c0.2-0.1,0.5-0.3,0.4-0.6
		c0-0.8-0.1-1.6-0.1-2.4c-0.1-2-0.3-3.9-0.6-5.9c-0.1-0.4,0-0.7,0.2-1c0.4-0.8,1-1.4,1.7-1.9c1.4-1.1,2.8-2.2,4.3-3.1
		c3.5-2.1,7.3-3.4,11.3-4.2c2.1-0.4,4.1-0.6,6.2-0.3c1.5,0.2,3,0.7,4.1,1.8c0.8,0.8,1.5,1.6,1.7,2.8c0,0.2,0,0.5,0.3,0.5
		c0,0.2,0,0.3,0,0.5c0.7,2,1.2,4,1.8,6c0.6,2.1,1.2,4.2,1.7,6.3c0.6,2.6,1.2,5.2,1.7,7.8c0.4,2.1,0.9,4.1,1.2,6.2
		c0.1,0.6,0.1,1.1,0.2,1.7c0.1,0.9,0.1,1.8,0.1,2.7c-0.1,2.8-0.7,5.5-2.3,7.8c-1.2,1.9-3,3.1-5,4c-1.4,0.6-3,0.9-4.5,1
		c-1.2,0.1-2.3,0-3.5-0.1c-0.3,0-0.5,0.1-0.8,0.2c0-0.5,0-0.5-0.5-0.6c-0.3-0.1-0.6-0.1-0.9-0.2c-1.7-0.4-3.3-1-4.9-1.6
		c-1.7-0.7-3.4-1.5-5-2.4c-1.2-0.7-2.2-1.4-3.3-2.3c-0.8-0.6-1.5-1.3-2.1-2.1c-0.3-0.4-0.6-0.7-0.8-1.1c-0.2-0.2-0.5-0.3-0.7-0.2
		c-0.2,0.1-0.2,0.4-0.1,0.7c0,0.1,0.1,0.2,0.2,0.3c0.5,0.7,1,1.4,1.7,2c0.8,0.8,1.7,1.6,2.7,2.3c1.5,1,3,1.9,4.6,2.6
		c1.4,0.7,2.9,1.3,4.3,1.8c1.5,0.5,3,0.9,4.6,1.3c0,0.2-0.1,0.5-0.1,0.7c-0.5,1.5-1,3.1-1.4,4.6c-0.1,0.2-0.1,0.4-0.1,0.6
		c-0.3,0-0.4,0.1-0.5,0.4c-0.3,1.5-1,2.9-1.9,4c-0.8,1-1.8,2-2.8,2.7c-0.2,0.1-0.4,0.2-0.4,0.5c-0.3,0.1-0.6,0.1-0.9,0.1
		c-0.5,0-0.9,0-1.4,0C215.3,124.3,214.2,124.5,213.2,124.9z M237.3,92.9c-0.1,0-0.2,0.1-0.2,0.1c-1.8,0.3-3.5,0.8-5.3,1.3
		c-3,0.9-5.8,2.2-8.5,3.6c-0.4,0.2-0.8,0.4-1.2,0.6c-0.2,0.1-0.4,0.3-0.3,0.6c0.1,0.3,0.3,0.4,0.7,0.3c0.3-0.1,0.7-0.2,0.9-0.5
		c0.1-0.1,0.3-0.2,0.4-0.3c1.4-0.7,2.9-1.5,4.3-2.1c1.6-0.6,3.1-1.2,4.8-1.7c1.5-0.4,2.9-0.8,4.4-1.1c0.4-0.1,0.5-0.2,0.5-0.5
		C237.8,93.1,237.5,92.9,237.3,92.9z M199.4,82.7c0,0.3,0.1,0.7,0.1,1c0.2,1,0.6,1.9,1.4,2.5c0.4,0.3,0.9,0.5,1.5,0.2
		c0.5-0.2,0.9-0.6,1.2-1.1c0.2-0.3,0.4-0.3,0.5,0c0.4,1,0.9,1.9,1.3,3c0.1,0.2,0.1,0.4,0.3,0.6c0.2,0.2,0.6,0.2,0.8-0.1
		c0.1-0.2,0-0.3,0-0.5c-0.4-1.3-1-2.6-1.6-3.8c-0.1-0.2-0.2-0.3-0.3-0.5c-0.3-0.4-0.8-0.4-1.2-0.1c-0.2,0.1-0.3,0.3-0.4,0.5
		c-0.1,0.2-0.2,0.4-0.4,0.6c-0.5,0.4-0.8,0.4-1.2,0c-0.9-0.9-1.1-2-0.9-3.2c0.1-0.6,0.5-1.1,1.1-1.3c0.2,0,0.3-0.1,0.4-0.3
		c0.1-0.1,0.2-0.3,0.1-0.5c-0.1-0.2-0.2-0.3-0.5-0.2c-0.3,0.1-0.6,0.1-0.9,0.3C199.7,80.7,199.5,81.7,199.4,82.7z M229,100.8
		c0.1,0,0.2-0.1,0.3-0.1c0.7-0.2,1.4-0.5,2.1-0.7c0.7-0.3,1.5-0.6,2.2-1c0.3-0.2,0.4-0.4,0.2-0.7c-0.2-0.3-0.4-0.2-0.7-0.1
		c-1.1,0.5-2.2,1-3.4,1.4c-0.3,0.1-0.7,0.2-1,0.4c-0.2,0.1-0.4,0.2-0.3,0.5C228.5,100.7,228.7,100.8,229,100.8z M235,78.8
		c0.1-0.4-0.3-0.9-0.8-0.9c-0.5,0-0.8,0.3-0.8,0.8c0,0.6,0.3,0.9,0.8,0.9C234.7,79.7,235,79.3,235,78.8z M219.7,82.8
		c0-0.5-0.3-0.9-0.8-0.9c-0.5,0-0.8,0.3-0.8,0.8c0,0.5,0.4,0.9,0.8,0.9C219.3,83.6,219.7,83.3,219.7,82.8z"/>
	<path class="st13" d="M235.7,66.1c-0.3,0-0.3-0.3-0.3-0.5c-0.2-1.2-0.9-2-1.7-2.8c-1.2-1.1-2.6-1.6-4.1-1.8
		c-2.1-0.3-4.2-0.1-6.2,0.3c-4,0.8-7.8,2.1-11.3,4.2c-1.5,0.9-3,1.9-4.3,3.1c-0.7,0.6-1.3,1.2-1.7,1.9c-0.2,0.3-0.3,0.7-0.2,1
		c0.3,1.9,0.4,3.9,0.6,5.9c0.1,0.8,0.1,1.6,0.1,2.4c0,0.3-0.2,0.5-0.4,0.6c-0.2,0.2-0.4,0.1-0.6-0.1c-0.5-0.4-1-0.7-1.6-1
		c-0.5-0.3-1.1-0.4-1.7-0.5c-1.1-0.1-2.1,0.3-2.8,1.2c-0.9,1.2-1.1,2.5-0.9,4c0.7,3.4,2.7,5.8,5.7,7.5c0.4,0.2,0.8,0.3,1.2,0.5
		c0.5,0.2,0.8,0.5,0.9,1.1c0.1,0.7,0.3,1.3,0.4,2c0.1,0.3,0.1,0.6-0.1,0.9c-0.1,0.1-0.2,0.1-0.3,0.1c-0.1-0.3-0.3-0.6-0.7-0.6
		c-2.6-0.4-4.6-1.7-6.3-3.6c-1.6-1.8-2.9-3.8-3.9-6c-1.9-4-3-8.2-3.6-12.6c-0.3-2.4-0.6-4.9-0.5-7.4c0.1-2.5,0.7-4.8,1.9-7
		c1.6-2.8,3.6-5.2,6.1-7.2c0.1-0.1,0.2-0.1,0.2-0.2c0.1,0,0.1,0.1,0.1,0.2c0.1,0.8,0.8,1,1.4,0.5c1.1-0.9,2.2-1.7,3.4-2.4
		c2.7-1.6,5.6-2.5,8.7-3c3.7-0.6,7.4-0.5,11-0.1c2.3,0.3,4.5,0.7,6.8,1.2c0.2,0,0.3,0.1,0.5,0.2c-0.3,0.2-0.7,0.4-1,0.6
		c-0.3,0.2-0.4,0.6-0.3,1c0.1,0.3,0.4,0.4,0.7,0.5c2.3,0.3,4.5,0.8,6.5,1.8c1.9,1,3.3,2.5,3.9,4.6c0,0.1,0.1,0.2,0.1,0.3
		c0.1,0.2,0,0.4-0.3,0.4c-0.5,0-1.1,0.1-1.6,0.1c-0.8,0.1-1.7,0.1-2.5,0.1c-0.7,0-1.3,0.2-1.8,0.7c-0.3,0.3-0.4,0.6-0.4,1
		c-0.1,0.9,0.2,1.7,0.6,2.6c0.5,1,1,2,1.4,3c0.1,0.2,0.3,0.4,0.2,0.7c-0.3,0-0.6,0-0.9,0C235.9,65.4,235.7,65.6,235.7,66.1z"/>
	<path class="st14" d="M226,110.6c-1.5-0.4-3.1-0.7-4.6-1.3c-1.5-0.5-2.9-1.1-4.3-1.8c-1.6-0.7-3.2-1.6-4.6-2.6
		c-1-0.7-1.9-1.4-2.7-2.3c-0.6-0.6-1.2-1.3-1.7-2c-0.1-0.1-0.1-0.2-0.2-0.3c-0.2-0.3-0.1-0.6,0.1-0.7c0.2-0.1,0.5-0.1,0.7,0.2
		c0.3,0.4,0.6,0.7,0.8,1.1c0.6,0.8,1.3,1.5,2.1,2.1c1,0.9,2.1,1.6,3.3,2.3c1.6,0.9,3.2,1.7,5,2.4c1.6,0.6,3.2,1.2,4.9,1.6
		c0.3,0.1,0.6,0.1,0.9,0.2c0.5,0.1,0.5,0.1,0.5,0.6C226.2,110.4,226.1,110.5,226,110.6z"/>
	<path class="st15" d="M232.2,127.5c0,0.6,0.2,1.2,0.3,1.9c0,0.4,0.2,0.7,0.2,1.1c0,0.3,0.1,0.6-0.2,0.9c-0.1,0.1-0.1,0.2,0,0.3
		c0.1,0.7-0.3,1.2-1.1,1.2c-0.3,0-0.5,0-0.8,0c-0.1-0.2,0.1-0.3,0.2-0.4c0.3-0.3,0.5-0.5,0.8-0.8c0.1-0.1,0.2-0.3,0.2-0.5
		c-0.3-1.6-0.6-3.2-1-4.7c-0.3-1-0.6-2.1-0.9-3.1c0-0.1-0.1-0.2,0-0.3c0.3,0.3,0.3,0.7,0.5,1.1c0.2,0.7,0.5,1.4,0.6,2.1
		c0.1,0.6,0.4,1.1,1.1,1.3C232.1,127.4,232.2,127.4,232.2,127.5L232.2,127.5z"/>
	<path class="st16" d="M228.3,118.7c-0.2,0.2-0.5,0.2-0.8,0.1c-0.4-0.2-0.8-0.2-1.2-0.3c-0.5-0.1-1-0.4-1.4-0.7
		c-0.1-0.1-0.1-0.2-0.1-0.3c0.1,0,0.3,0,0.4,0.1c0.7,0.6,1.5,0.8,2.4,0.8C227.8,118.4,228.1,118.4,228.3,118.7z"/>
	<path class="st16" d="M199.2,110.1c-0.1,0.1-0.2,0.1-0.3,0.1c-1.2,0-2.2,0.4-3.2,1c-0.2,0.1-0.4,0.3-0.7,0.2c1.1-1,2.4-1.6,3.9-1.5
		C199,110,199.1,110,199.2,110.1z"/>
	<path class="st11" d="M232.2,127.5c-0.1,0-0.1-0.1-0.1-0.1C232.2,127.4,232.2,127.4,232.2,127.5z"/>
	<path class="st17" d="M213.2,124.9c1-0.4,2-0.7,3.1-0.6c0.5,0,0.9,0,1.4,0c0.3,0,0.6,0,0.9-0.1c0.7,0.2,0.9,0.7,1.1,1.3
		c0.5,1.9,1,3.9,1.3,5.8c0.2,1.3,0.3,2.5,0.5,3.8c0.1,1.1,0,2.2,0,3.3c0,0.2-0.1,0.5,0.1,0.7c0.3-0.1,0.6-0.2,0.8-0.4
		c0.7-0.4,1.4-0.8,2.1-1.3c0.4-0.2,0.7-0.4,1.1-0.3c0.3,0,0.7,0,1.1-0.1c-0.2,0.4-0.5,0.5-0.7,0.7c-1.3,1-2.7,1.8-4.1,2.6
		c-0.1,0.1-0.3,0.1-0.4,0.2c-0.5,0.2-0.8,0-0.8-0.6c0-0.9,0-1.8,0-2.7c-0.1-1.4-0.2-2.7-0.3-4.1c-0.2-1.5-0.5-3-0.8-4.5
		c-0.2-1-0.5-1.9-0.8-2.9c-0.1-0.3-0.2-0.5-0.6-0.5c-1.1,0-2.2,0-3.3,0.2c-0.4,0.1-0.7,0.3-1.1,0.5c-0.1,0.1-0.2,0.2-0.3,0.3
		c-0.1,0.4-0.1,0.9-0.1,1.3c0.2,1.5,0.2,3,0,4.5c0,0.2,0,0.3,0,0.5c0,1.6-0.2,3.1-0.5,4.7c-0.1,0.4-0.2,0.4-0.6,0.4
		c-0.3,0-0.4-0.2-0.4-0.5c0-0.5,0.1-1,0.2-1.6c0.1-0.8,0.2-1.5,0.3-2.3c0.2-1.6,0.1-3.2,0.1-4.9c0-0.1,0-0.1-0.1-0.2
		c-0.4,0.2-0.5,0.6-0.7,0.9c-0.1,0.2-0.2,0.4-0.5,0.4c-0.1,0-0.4-0.5-0.5-0.7c0-0.1,0.1-0.2,0.1-0.3c0.4-0.6,0.9-1.1,1.3-1.7
		C212.4,126.1,213,125.6,213.2,124.9z"/>
	<path class="st17" d="M215.8,130.1c0-0.9,0-1.8,0-2.7c0-0.4,0.1-0.7,0.3-0.9c0.3-0.4,0.9-0.6,1.4-0.4c0.2,0.1,0.2,0.2,0.2,0.4
		c0,0.2,0,0.5-0.2,0.5c-0.5,0.1-0.5,0.5-0.6,0.9c-0.2,1,0.1,2.1,0,3.1c0,1.2-0.2,2.3-0.2,3.5c-0.1,1.4-0.3,2.8-0.3,4.2
		c0,0.2,0,0.5-0.1,0.7c-0.1,0.2-0.1,0.4,0,0.6c0.2,0.6,0.1,1.3,0.1,1.9c0,0.2,0,0.5-0.3,0.5c-0.3,0.1-0.6-0.1-0.7-0.4
		c0-0.1-0.1-0.2-0.1-0.4c0-1.4-0.1-2.7,0-4.1c0.1-1.1,0.2-2.3,0.3-3.4c0.2-1.2,0.2-2.5,0.2-3.7C215.8,130.4,215.8,130.3,215.8,130.1
		C215.8,130.1,215.8,130.1,215.8,130.1z"/>
	<path class="st17" d="M188.1,115.8c0.6,0.1,1.2,0.1,1.6,0.8c0.6,0.9,1.1,1.8,1.5,2.8c0.8,2,1.7,3.9,2.5,5.9
		c0.6,1.4,1.2,2.8,1.9,4.2c0.2,0.3,0,1-0.3,1.2c-0.1,0.1-0.2,0.1-0.2,0c-0.1-0.1-0.2-0.2-0.2-0.4c-1-1.9-1.7-3.8-2.6-5.7
		c-0.9-1.9-1.5-4-2.5-5.9c-0.4-0.8-0.9-1.6-1.7-2.2c-0.1-0.1-0.2-0.2-0.3-0.3c-0.1-0.1-0.2-0.2-0.1-0.3
		C187.9,115.8,188,115.8,188.1,115.8z"/>
	<path class="st17" d="M205,139.1c-0.1,0-0.3,0-0.4-0.1c-1-0.5-2-1-2.9-1.6c-0.2-0.1-0.4-0.2-0.2-0.5c0.3-0.4,0.4-0.5,0.7-0.3
		c0.5,0.2,0.9,0.5,1.4,0.8c1,0.6,1,0.6,1.4-0.5c0.2-0.7,0.6-1.3,1-1.9c0.1-0.2,0.1-0.4,0.4-0.3c0.3,0.1,0.5,0.5,0.4,0.8
		c0,0.1-0.1,0.1-0.1,0.2c-0.5,1-1,2-1.2,3.1C205.5,139,205.3,139.1,205,139.1z"/>
	<path class="st17" d="M216.5,146.2c0,1.4,0.1,2.7,0.4,4.1c0.1,0.4,0,0.6-0.3,0.7c-0.3,0.1-0.6,0-0.7-0.4c-0.2-0.7-0.3-1.5-0.4-2.2
		c0-0.6,0.1-1.1-0.1-1.7c0-0.1,0-0.3,0.1-0.4c0-0.4,0.1-0.7-0.1-1c-0.2-0.2-0.1-0.5,0-0.7c0.2-0.2,0.4-0.2,0.6-0.2
		c0.2,0,0.3,0.2,0.4,0.4C216.6,145.2,216.5,145.7,216.5,146.2z"/>
	<path class="st14" d="M237.3,92.9c0.3,0,0.5,0.2,0.6,0.4c0.1,0.3-0.1,0.5-0.5,0.5c-1.5,0.3-3,0.7-4.4,1.1c-1.6,0.5-3.2,1.1-4.8,1.7
		c-1.5,0.6-2.9,1.3-4.3,2.1c-0.1,0.1-0.3,0.1-0.4,0.3c-0.3,0.3-0.6,0.4-0.9,0.5c-0.4,0.1-0.5,0-0.7-0.3c-0.2-0.3,0-0.5,0.3-0.6
		c0.4-0.2,0.8-0.4,1.2-0.6c2.7-1.5,5.6-2.7,8.5-3.6c1.7-0.5,3.5-1,5.3-1.3C237.1,93,237.2,92.9,237.3,92.9z"/>
	<path class="st14" d="M199.4,82.7c0.1-1.1,0.3-2.1,1.4-2.7c0.3-0.2,0.6-0.2,0.9-0.3c0.2-0.1,0.4,0,0.5,0.2c0.1,0.2,0,0.3-0.1,0.5
		c-0.1,0.2-0.3,0.2-0.4,0.3c-0.7,0.2-1,0.6-1.1,1.3c-0.2,1.2,0,2.3,0.9,3.2c0.4,0.4,0.8,0.4,1.2,0c0.2-0.2,0.3-0.3,0.4-0.6
		c0.1-0.2,0.2-0.4,0.4-0.5c0.4-0.3,0.8-0.3,1.2,0.1c0.1,0.1,0.2,0.3,0.3,0.5c0.6,1.3,1.2,2.5,1.6,3.8c0,0.1,0.2,0.3,0,0.5
		c-0.2,0.3-0.5,0.3-0.8,0.1c-0.2-0.2-0.2-0.4-0.3-0.6c-0.3-1-0.8-2-1.3-3c-0.2-0.4-0.3-0.4-0.5,0c-0.3,0.5-0.7,0.8-1.2,1.1
		c-0.5,0.2-1,0.1-1.5-0.2c-0.8-0.6-1.2-1.5-1.4-2.5C199.5,83.4,199.4,83.1,199.4,82.7z"/>
	<path class="st18" d="M229,100.8c-0.3,0-0.5-0.1-0.5-0.4c-0.1-0.2,0.1-0.4,0.3-0.5c0.3-0.1,0.7-0.3,1-0.4c1.2-0.4,2.3-0.9,3.4-1.4
		c0.3-0.1,0.5-0.2,0.7,0.1c0.2,0.2,0.1,0.5-0.2,0.7c-0.7,0.4-1.4,0.7-2.2,1c-0.7,0.3-1.4,0.5-2.1,0.7
		C229.2,100.8,229.1,100.8,229,100.8z"/>
	<path class="st19" d="M235,78.8c0,0.6-0.3,0.9-0.8,0.9c-0.5,0-0.8-0.4-0.8-0.9c0-0.5,0.4-0.9,0.8-0.8
		C234.7,77.9,235.1,78.3,235,78.8z"/>
	<path class="st19" d="M219.7,82.8c0,0.5-0.4,0.9-0.8,0.9c-0.5,0-0.9-0.5-0.8-0.9c0-0.5,0.4-0.8,0.8-0.8
		C219.4,81.9,219.7,82.2,219.7,82.8z"/>
</g>
<path class="st20" d="M177.2,56c0-62.2,91.4-62.1,91.4,0v65.8c0,62.1-91.4,62.2-91.4,0V56z M196.7,121.8c0,37.8,52.4,37.8,52.4,0V56
	c0-37.2-52.4-37.7-52.4,0V121.8z"/>
<g>
	<path class="st21" d="M177,133.4h-20.6v26.4h-20.9v-26.4H71.8v-14.9L129,43.7h23l-53.9,71.5h38V91.8h20.2v23.4H177V133.4z"/>
</g>
<g>
	<path class="st21" d="M373.6,135.1H353v26.4h-20.9v-26.4h-63.7v-14.9l57.2-74.8h23l-53.9,71.5h38V93.5H353v23.4h20.6V135.1z"/>
</g>
<g>
	<linearGradient id="SVGID_12_" gradientUnits="userSpaceOnUse" x1="72.088" y1="216.5183" x2="177.2066" y2="216.5183">
		<stop  offset="0" style="stop-color:#9CFFD2"/>
		<stop  offset="1" style="stop-color:#79DE6E"/>
	</linearGradient>
	<path class="st22" d="M177.2,203.1h-20.6v23.4h-20.2v-23.4h-38l53.9,71.5h-23l-57.2-74.8v-14.9h63.7v-26.4h20.9v26.4h20.6V203.1z"
		/>
</g>
<g>
	<linearGradient id="SVGID_13_" gradientUnits="userSpaceOnUse" x1="268.9159" y1="218.8641" x2="373.583" y2="218.8641">
		<stop  offset="0" style="stop-color:#9CFFD2"/>
		<stop  offset="1" style="stop-color:#79DE6E"/>
	</linearGradient>
	<path class="st23" d="M373.6,205.4h-20.5v23.4H333v-23.4h-37.8l53.7,71.5h-22.9l-57-74.8v-14.9h63.4v-26.4h20.8v26.4h20.5V205.4z"
		/>
</g>
</svg>
