<?xml version="1.0" encoding="utf-8"?>
<!-- Generator: Adobe Illustrator 22.0.1, SVG Export Plug-In . SVG Version: 6.00 Build 0)  -->
<svg version="1.1" id="Layer_1" xmlns="http://www.w3.org/2000/svg" xmlns:xlink="http://www.w3.org/1999/xlink" x="0px" y="0px"
	 viewBox="0 0 518 405" style="enable-background:new 0 0 518 405;" xml:space="preserve">
<style type="text/css">
	.st0{display:none;}
	.st1{fill:url(#SVGID_1_);}
	.st2{fill:#2B3044;}
	.st3{fill:#F2F2F2;}
	.st4{fill:none;}
	.st5{fill:url(#SVGID_2_);}
	.st6{fill:#C42329;}
	.st7{fill:url(#SVGID_3_);}
	.st8{fill:url(#SVGID_4_);}
	.st9{fill:url(#SVGID_5_);}
	.st10{fill:url(#SVGID_6_);}
	.st11{fill:url(#SVGID_7_);}
	.st12{opacity:0.13;enable-background:new    ;}
	.st13{fill:url(#SVGID_8_);}
	.st14{fill:url(#SVGID_9_);}
	.st15{fill:url(#SVGID_10_);}
</style>
<g id="Layer_1_1_" class="st0">
	
		<image style="display:inline;overflow:visible;enable-background:new    ;" width="967" height="401" xlink:href="4F92ECF3.jpeg"  transform="matrix(1.1435 0 0 1.1621 -599.4001 0.5)">
	</image>
</g>
<g id="Layer_6">
	
		<linearGradient id="SVGID_1_" gradientUnits="userSpaceOnUse" x1="271.3153" y1="474.278" x2="255.2266" y2="90.9481" gradientTransform="matrix(1 0 0 -1 0 483)">
		<stop  offset="0" style="stop-color:#D6D8E4"/>
		<stop  offset="0.5383" style="stop-color:#5C6392"/>
		<stop  offset="0.9668" style="stop-color:#2B3044"/>
	</linearGradient>
	<path class="st1" d="M429,68.7c10.5,9.8,90.4,86.6,71,177.8c-18.1,85.1-117.4,116.8-154,129c-91,30.4-257.5,38.7-310-63
		C-3.4,236.2,40.5,134.6,94.5,79C154.7,16.9,230.4,8.9,248,7.5C265.9,6.1,356.6,1,429,68.7z"/>
	<path class="st2" d="M39-69.5"/>
	<ellipse class="st3" cx="137" cy="142" rx="95" ry="93.5"/>
	<path class="st4" d="M189,370.5"/>
</g>
<g id="Layer_5">
	
		<linearGradient id="SVGID_2_" gradientUnits="userSpaceOnUse" x1="309.5306" y1="285.8024" x2="249.0306" y2="137.3024" gradientTransform="matrix(1 0 0 -1 0 483)">
		<stop  offset="0" style="stop-color:#F6E29D"/>
		<stop  offset="1" style="stop-color:#F2F1EE;stop-opacity:0.2265"/>
		<stop  offset="1" style="stop-color:#F2F2F2;stop-opacity:0.2"/>
	</linearGradient>
	<polygon class="st5" points="276,184.5 343,212.5 317,368.5 180,325.5 	"/>
	<line class="st4" x1="-83" y1="68.5" x2="-83" y2="68.5"/>
	<path class="st4" d="M161,353.5"/>
</g>
<g id="Layer_3">
	<path class="st6" d="M427-59.5"/>
	
		<linearGradient id="SVGID_3_" gradientUnits="userSpaceOnUse" x1="288" y1="276.4" x2="323.5" y2="276.4" gradientTransform="matrix(1 0 0 -1 0 483)">
		<stop  offset="0.1327" style="stop-color:#C42329"/>
		<stop  offset="1" style="stop-color:#991F28"/>
	</linearGradient>
	<polygon class="st7" points="323.5,211.5 322,216.5 288,201.5 290.3,196.7 	"/>
	
		<linearGradient id="SVGID_4_" gradientUnits="userSpaceOnUse" x1="381.2505" y1="460.6938" x2="372.7714" y2="437.213" gradientTransform="matrix(1 0 0 -1 0 483)">
		<stop  offset="3.571429e-02" style="stop-color:#C42329"/>
		<stop  offset="1" style="stop-color:#991F28"/>
	</linearGradient>
	<path class="st8" d="M356,34.5c0.1-0.1,0.5-0.5,1-1c15.2-15,21.7-15.9,24-16c0.4,0,6.7,2.9,7,3c1.6,0.4,3.5,6,5,27
		c-3.5,0.7-12.2,2-22-2C363.1,42.3,358.3,37.2,356,34.5z"/>
	
		<linearGradient id="SVGID_5_" gradientUnits="userSpaceOnUse" x1="372.6814" y1="436.0304" x2="309.6814" y2="277.5304" gradientTransform="matrix(1 0 0 -1 0 483)">
		<stop  offset="0" style="stop-color:#A7C6CE"/>
		<stop  offset="0.5434" style="stop-color:#739199"/>
		<stop  offset="1" style="stop-color:#3F494C"/>
	</linearGradient>
	<path class="st9" d="M356,34.5c-5.1,4.4-10.5,9.7-16,16c-7.7,8.8-13.6,17.5-18,25c-5.3,9.1-8.7,17.2-10.6,22.2c0,0-0.7,1.9-1.4,3.8
		c-5.1,14.8-8.2,40.3-9,47c1,6.3,2,12.7,3,19c-1.8,0.9-4.4,2.5-7,5c-1.1,1.1-2.4,2.6-4,5c-4.2,6.5-6.9,14.5-8,18
		c8.5,3.5,17.2,7.1,26,11c6.8,3,13.5,6,20,9c3.4-6.7,7.3-17.3,6-30c-0.2-2.1-0.6-4.1-1-6c5.4-2.4,13.2-6.7,21-14
		c6.1-5.7,9.7-11,13-16c1.5-2.3,7.6-11.4,13-25c4.9-12.4,6.9-22.4,8-28c2.8-14.4,3-26,3-32c0-6.8-0.5-12.6-1-17
		c-3.5,0.7-12.2,2-22-2C363.1,42.3,358.3,37.2,356,34.5z"/>
	
		<linearGradient id="SVGID_6_" gradientUnits="userSpaceOnUse" x1="350.816" y1="313.4871" x2="351.816" y2="273.4871" gradientTransform="matrix(1 0 0 -1 0 483)">
		<stop  offset="0.1327" style="stop-color:#C42329"/>
		<stop  offset="1" style="stop-color:#991F28"/>
	</linearGradient>
	<path class="st10" d="M335.4,203l21.7,9.5c1.9-4.1,3.7-8.6,5.3-13.6c5.4-17.5,5.1-33.2,3.8-44.4c-3.2,3.9-7.6,8.5-13.3,13
		c-6.2,4.9-12.1,8.2-16.9,10.5c0.6,3.3,1.2,7.6,1.1,12.6C337,195.5,336.2,199.7,335.4,203z"/>
	
		<linearGradient id="SVGID_7_" gradientUnits="userSpaceOnUse" x1="271.4599" y1="307.2349" x2="303.4599" y2="332.5682" gradientTransform="matrix(1 0 0 -1 0 483)">
		<stop  offset="0" style="stop-color:#991F28"/>
		<stop  offset="0" style="stop-color:#A02028"/>
		<stop  offset="0.6173" style="stop-color:#C42329"/>
	</linearGradient>
	<path class="st11" d="M303.6,127.7c-5.8,4.7-12.8,11.1-19.6,19.8c-7.8,10-12.8,19.5-16,27c7,3.3,14,6.7,21,10c1-2.7,3-6.9,7-11
		c2.9-3,5.8-4.8,8-6c-1-5.3-1.9-11.7-2-19C301.9,140.5,302.6,133.4,303.6,127.7z"/>
	<path class="st6" d="M437,133.5"/>
	<path class="st12" d="M321.3,198.8c-7.1-0.1-14.1-2.8-19.3-7.7c0.1-0.3,0.7-0.6,1.1-0.5c5.4,1.9,10.9,3.8,16.3,5.7
		c0.8,0.3,1.6,0.6,2.2,1.2c0.2,0.2,0.3,0.5,0.3,0.7S321.6,198.8,321.3,198.8z"/>
</g>
<g id="Layer_4">
	
		<linearGradient id="SVGID_8_" gradientUnits="userSpaceOnUse" x1="341.1908" y1="361.4181" x2="312.3049" y2="289.2034" gradientTransform="matrix(1 0 0 -1 0 483)">
		<stop  offset="3.571429e-02" style="stop-color:#C42329"/>
		<stop  offset="1" style="stop-color:#991F28"/>
	</linearGradient>
	<path class="st13" d="M302,190.5c5.2-12.3,11.7-25.8,20-40c7-12,14.1-22.7,21-32c-1.3,11.4-3.5,24.2-7,38c-4,16-9,30.1-14,42
		C315.3,195.8,308.7,193.2,302,190.5z"/>
	
		<linearGradient id="SVGID_9_" gradientUnits="userSpaceOnUse" x1="339" y1="398.5" x2="375" y2="398.5" gradientTransform="matrix(1 0 0 -1 0 483)">
		<stop  offset="3.571429e-02" style="stop-color:#C42329"/>
		<stop  offset="1" style="stop-color:#991F28"/>
	</linearGradient>
	<circle class="st14" cx="357" cy="84.5" r="18"/>
	
		<linearGradient id="SVGID_10_" gradientUnits="userSpaceOnUse" x1="341" y1="398.5" x2="373" y2="398.5" gradientTransform="matrix(1 0 0 -1 0 483)">
		<stop  offset="3.826531e-02" style="stop-color:#292C3F"/>
		<stop  offset="1" style="stop-color:#565B6E"/>
	</linearGradient>
	<circle class="st15" cx="357" cy="84.5" r="16"/>
</g>
</svg>
